<svg width="24" height="24" viewBox="0 0 24 24" fill="none" xmlns="http://www.w3.org/2000/svg">
<path d="M11.6137 0.672852L0.75 5.90354V8.62482H23.25V5.8891L11.6137 0.672852ZM21.75 7.12482H2.25V6.8461L11.6363 2.32679L21.75 6.86054V7.12482Z" fill="black"/>
<path d="M2.25 19.125H21.75V20.625H2.25V19.125Z" fill="black"/>
<path d="M0.75 21.75H23.25V23.25H0.75V21.75Z" fill="black"/>
<path d="M2.625 10.125H4.125V17.625H2.625V10.125Z" fill="black"/>
<path d="M19.875 10.125H21.375V17.625H19.875V10.125Z" fill="black"/>
<path d="M15.375 10.125H16.875V17.625H15.375V10.125Z" fill="black"/>
<path d="M7.125 10.125H8.625V17.625H7.125V10.125Z" fill="black"/>
<path d="M11.25 10.125H12.75V17.625H11.25V10.125Z" fill="black"/>
</svg>
