<svg width="57" height="57" viewBox="0 0 57 57" fill="none" xmlns="http://www.w3.org/2000/svg">
<g clip-path="url(#clip0)">
<path d="M52.1974 33.094L56.8608 28.4304L52.0907 23.6603L54.6399 17.4144L48.5338 14.9221V8.32714H41.7878L39.1738 2.10799L33.094 4.66344L28.4304 0L23.6603 4.7701L17.4144 2.22089L14.9223 8.32714H8.32714V15.0731L2.10799 17.687L4.66355 23.767L0 28.4304L4.77021 33.2006L2.22089 39.4465L8.32714 41.9387V48.5338H15.0731L17.687 54.7528L23.767 52.1974L28.4304 56.8609L33.2006 52.0907L39.4464 54.6399L41.9387 48.5338H48.5338V41.7878L54.7528 39.1738L52.1974 33.094Z" fill="#FAC232"/>
<path d="M45.5848 11.3325L44.3256 4.85862L37.7037 6.14661L33.9505 0.54103L28.4702 4.21024L23.0023 0.52302L19.2306 6.11615L12.6128 4.80634L11.3324 11.2759L4.85853 12.5352L6.14652 19.1571L0.540946 22.9103L4.21031 28.3905L0.523032 33.8586L6.11616 37.6302L4.80626 44.2479L11.276 45.5284L12.5351 52.0022L19.1571 50.7142L22.9103 56.3199L28.3905 52.6505L33.8586 56.3378L37.6302 50.7447L44.2478 52.0545L45.5284 45.5848L52.0022 44.3257L50.7142 37.7037L56.3197 33.9506L52.6505 28.4703L56.3378 23.0022L50.7447 19.2306L52.0544 12.6129L45.5848 11.3325Z" fill="#FAC232"/>
<path d="M28.4305 49.9984C40.3421 49.9984 49.9984 40.3421 49.9984 28.4305C49.9984 16.5188 40.3421 6.86252 28.4305 6.86252C16.5188 6.86252 6.86252 16.5188 6.86252 28.4305C6.86252 40.3421 16.5188 49.9984 28.4305 49.9984Z" fill="#FFD069"/>
<path d="M28.4305 43.1359C36.5521 43.1359 43.1359 36.552 43.1359 28.4305C43.1359 20.3089 36.5521 13.7251 28.4305 13.7251C20.3089 13.7251 13.7251 20.3089 13.7251 28.4305C13.7251 36.552 20.3089 43.1359 28.4305 43.1359Z" fill="#F1F1F1"/>
<g clip-path="url(#clip1)">
<path d="M29.8306 32.9778H21.284C20.5752 32.9778 20 33.6168 20 34.4045V36.9988H31.1145V34.4045C31.1145 33.6168 30.5394 32.9778 29.8306 32.9778Z" fill="#0C74D4"/>
<path d="M36.8702 33.1789L29.0687 24.5105L30.5755 22.8392C30.824 23.0826 31.2061 23.0707 31.4412 22.8095C31.687 22.5334 31.687 22.0911 31.4412 21.815L28.1923 18.2081C27.9465 17.9321 27.5458 17.9321 27.3 18.2081C27.0515 18.4813 27.0515 18.9265 27.3 19.1996L27.2733 19.17L23.148 23.7505L23.1747 23.7832C22.9289 23.5071 22.5282 23.5071 22.2824 23.7832C22.0339 24.0563 22.0339 24.5016 22.2824 24.7747L25.5286 28.3845C25.777 28.6577 26.1778 28.6577 26.4236 28.3845C26.6694 28.1085 26.6694 27.6661 26.4236 27.3901L26.4503 27.4197L27.9572 25.7484L35.7561 34.4139C36.0633 34.7553 36.563 34.7553 36.8702 34.4139C37.1775 34.0725 37.1775 33.5203 36.8702 33.1789Z" fill="#0C74D4"/>
</g>
</g>
<defs>
<clipPath id="clip0">
<rect width="56.8609" height="56.8609" fill="white"/>
</clipPath>
<clipPath id="clip1">
<rect width="17.1" height="19" fill="white" transform="translate(20 18)"/>
</clipPath>
</defs>
</svg>
