<svg width="77" height="71" viewBox="0 0 77 71" fill="none" xmlns="http://www.w3.org/2000/svg">
<g clip-path="url(#clip0_1261_46)">
<path d="M62.1974 33.094L66.8608 28.4304L62.0907 23.6603L64.6399 17.4144L58.5338 14.9221V8.32714H51.7878L49.1738 2.10799L43.094 4.66344L38.4304 0L33.6603 4.7701L27.4144 2.22089L24.9223 8.32714H18.3271V15.0731L12.108 17.687L14.6636 23.767L10 28.4304L14.7702 33.2006L12.2209 39.4465L18.3271 41.9387V48.5338H25.0731L27.687 54.7528L33.767 52.1974L38.4304 56.8609L43.2006 52.0907L49.4464 54.6399L51.9387 48.5338H58.5338V41.7878L64.7528 39.1738L62.1974 33.094Z" fill="#FAC232"/>
<path d="M55.5848 11.3325L54.3256 4.85862L47.7037 6.14661L43.9505 0.54103L38.4702 4.21024L33.0023 0.52302L29.2306 6.11615L22.6128 4.80634L21.3324 11.2759L14.8585 12.5352L16.1465 19.1571L10.5409 22.9103L14.2103 28.3905L10.523 33.8586L16.1162 37.6302L14.8063 44.2479L21.276 45.5284L22.5351 52.0022L29.1571 50.7142L32.9103 56.3199L38.3905 52.6505L43.8586 56.3378L47.6302 50.7447L54.2478 52.0545L55.5284 45.5848L62.0022 44.3257L60.7142 37.7037L66.3197 33.9506L62.6505 28.4703L66.3378 23.0022L60.7447 19.2306L62.0544 12.6129L55.5848 11.3325Z" fill="#FAC232"/>
<path d="M38.4305 49.9984C50.3421 49.9984 59.9984 40.3421 59.9984 28.4305C59.9984 16.5188 50.3421 6.86252 38.4305 6.86252C26.5188 6.86252 16.8625 16.5188 16.8625 28.4305C16.8625 40.3421 26.5188 49.9984 38.4305 49.9984Z" fill="#FFD069"/>
<path d="M38.4305 43.1359C46.5521 43.1359 53.1359 36.552 53.1359 28.4305C53.1359 20.3089 46.5521 13.7251 38.4305 13.7251C30.3089 13.7251 23.7251 20.3089 23.7251 28.4305C23.7251 36.552 30.3089 43.1359 38.4305 43.1359Z" fill="#F1F1F1"/>
<g clip-path="url(#clip1_1261_46)">
<path d="M39.8306 32.9778H31.284C30.5752 32.9778 30 33.6168 30 34.4045V36.9988H41.1145V34.4045C41.1145 33.6168 40.5394 32.9778 39.8306 32.9778Z" fill="#0C74D4"/>
<path d="M46.8702 33.1789L39.0687 24.5105L40.5755 22.8392C40.824 23.0826 41.2061 23.0707 41.4412 22.8095C41.687 22.5334 41.687 22.0911 41.4412 21.815L38.1923 18.2081C37.9465 17.9321 37.5458 17.9321 37.3 18.2081C37.0515 18.4813 37.0515 18.9265 37.3 19.1996L37.2733 19.17L33.148 23.7505L33.1747 23.7832C32.9289 23.5071 32.5282 23.5071 32.2824 23.7832C32.0339 24.0563 32.0339 24.5016 32.2824 24.7747L35.5286 28.3845C35.777 28.6577 36.1778 28.6577 36.4236 28.3845C36.6694 28.1085 36.6694 27.6661 36.4236 27.3901L36.4503 27.4197L37.9572 25.7484L45.7561 34.4139C46.0633 34.7553 46.563 34.7553 46.8702 34.4139C47.1775 34.0725 47.1775 33.5203 46.8702 33.1789Z" fill="#0C74D4"/>
</g>
</g>
<g filter="url(#filter0_d_1261_46)">
<rect x="10.9804" y="42.6457" width="55.5766" height="14.2152" rx="2" fill="#0C74D4"/>
</g>
<path d="M25.0365 50.0353C25.3165 50.1239 25.5358 50.2733 25.6945 50.4833C25.8532 50.6886 25.9325 50.9429 25.9325 51.2463C25.9325 51.6756 25.7645 52.0069 25.4285 52.2403C25.0972 52.4689 24.6118 52.5833 23.9725 52.5833H21.4385V47.6833H23.8325C24.4298 47.6833 24.8872 47.7976 25.2045 48.0263C25.5265 48.2549 25.6875 48.5653 25.6875 48.9573C25.6875 49.1953 25.6292 49.4076 25.5125 49.5943C25.4005 49.7809 25.2418 49.9279 25.0365 50.0353ZM22.5655 48.5373V49.6923H23.6925C23.9725 49.6923 24.1848 49.6433 24.3295 49.5453C24.4742 49.4473 24.5465 49.3026 24.5465 49.1113C24.5465 48.9199 24.4742 48.7776 24.3295 48.6843C24.1848 48.5863 23.9725 48.5373 23.6925 48.5373H22.5655ZM23.8885 51.7293C24.1872 51.7293 24.4112 51.6803 24.5605 51.5823C24.7145 51.4843 24.7915 51.3326 24.7915 51.1273C24.7915 50.7213 24.4905 50.5183 23.8885 50.5183H22.5655V51.7293H23.8885ZM26.791 47.6833H27.925V52.5833H26.791V47.6833ZM29.0879 47.6833H31.3139C31.8459 47.6833 32.3149 47.7859 32.7209 47.9913C33.1316 48.1919 33.4489 48.4766 33.6729 48.8453C33.9016 49.2139 34.0159 49.6433 34.0159 50.1333C34.0159 50.6233 33.9016 51.0526 33.6729 51.4213C33.4489 51.7899 33.1316 52.0769 32.7209 52.2823C32.3149 52.4829 31.8459 52.5833 31.3139 52.5833H29.0879V47.6833ZM31.2579 51.6523C31.7479 51.6523 32.1376 51.5169 32.4269 51.2463C32.7209 50.9709 32.8679 50.5999 32.8679 50.1333C32.8679 49.6666 32.7209 49.2979 32.4269 49.0273C32.1376 48.7519 31.7479 48.6143 31.2579 48.6143H30.2219V51.6523H31.2579ZM41.3475 47.6833V52.5833H40.4165L37.9735 49.6083V52.5833H36.8535V47.6833H37.7915L40.2275 50.6583V47.6833H41.3475ZM44.8799 52.6673C44.3712 52.6673 43.9115 52.5576 43.5009 52.3383C43.0949 52.1189 42.7752 51.8179 42.5419 51.4353C42.3132 51.0479 42.1989 50.6139 42.1989 50.1333C42.1989 49.6526 42.3132 49.2209 42.5419 48.8383C42.7752 48.4509 43.0949 48.1476 43.5009 47.9283C43.9115 47.7089 44.3712 47.5993 44.8799 47.5993C45.3885 47.5993 45.8459 47.7089 46.2519 47.9283C46.6579 48.1476 46.9775 48.4509 47.2109 48.8383C47.4442 49.2209 47.5609 49.6526 47.5609 50.1333C47.5609 50.6139 47.4442 51.0479 47.2109 51.4353C46.9775 51.8179 46.6579 52.1189 46.2519 52.3383C45.8459 52.5576 45.3885 52.6673 44.8799 52.6673ZM44.8799 51.7013C45.1692 51.7013 45.4305 51.6359 45.6639 51.5053C45.8972 51.3699 46.0792 51.1833 46.2099 50.9453C46.3452 50.7073 46.4129 50.4366 46.4129 50.1333C46.4129 49.8299 46.3452 49.5593 46.2099 49.3213C46.0792 49.0833 45.8972 48.8989 45.6639 48.7683C45.4305 48.6329 45.1692 48.5653 44.8799 48.5653C44.5905 48.5653 44.3292 48.6329 44.0959 48.7683C43.8625 48.8989 43.6782 49.0833 43.5429 49.3213C43.4122 49.5593 43.3469 49.8299 43.3469 50.1333C43.3469 50.4366 43.4122 50.7073 43.5429 50.9453C43.6782 51.1833 43.8625 51.3699 44.0959 51.5053C44.3292 51.6359 44.5905 51.7013 44.8799 51.7013ZM55.655 47.6833L54.052 52.5833H52.834L51.756 49.2653L50.643 52.5833H49.432L47.822 47.6833H48.998L50.104 51.1273L51.259 47.6833H52.309L53.429 51.1553L54.57 47.6833H55.655Z" fill="white"/>
<defs>
<filter id="filter0_d_1261_46" x="0.980408" y="36.6457" width="75.5766" height="34.2152" filterUnits="userSpaceOnUse" color-interpolation-filters="sRGB">
<feFlood flood-opacity="0" result="BackgroundImageFix"/>
<feColorMatrix in="SourceAlpha" type="matrix" values="0 0 0 0 0 0 0 0 0 0 0 0 0 0 0 0 0 0 127 0" result="hardAlpha"/>
<feOffset dy="4"/>
<feGaussianBlur stdDeviation="5"/>
<feColorMatrix type="matrix" values="0 0 0 0 0.286275 0 0 0 0 0.647059 0 0 0 0 0.776471 0 0 0 0.1 0"/>
<feBlend mode="normal" in2="BackgroundImageFix" result="effect1_dropShadow_1261_46"/>
<feBlend mode="normal" in="SourceGraphic" in2="effect1_dropShadow_1261_46" result="shape"/>
</filter>
<clipPath id="clip0_1261_46">
<rect width="56.8609" height="56.8609" fill="white" transform="translate(10)"/>
</clipPath>
<clipPath id="clip1_1261_46">
<rect width="17.1" height="19" fill="white" transform="translate(30 18)"/>
</clipPath>
</defs>
</svg>
