<svg width="57" height="57" viewBox="0 0 57 57" fill="none" xmlns="http://www.w3.org/2000/svg">
<g clip-path="url(#clip0)">
<path d="M52.1974 33.094L56.8608 28.4304L52.0907 23.6603L54.6399 17.4144L48.5338 14.9221V8.32714H41.7878L39.1738 2.10799L33.094 4.66344L28.4304 0L23.6603 4.7701L17.4144 2.22089L14.9223 8.32714H8.32714V15.0731L2.10799 17.687L4.66355 23.767L0 28.4304L4.77021 33.2006L2.22089 39.4465L8.32714 41.9387V48.5338H15.0731L17.687 54.7528L23.767 52.1974L28.4304 56.8609L33.2006 52.0907L39.4464 54.6399L41.9387 48.5338H48.5338V41.7878L54.7528 39.1738L52.1974 33.094Z" fill="#FAC232"/>
<path d="M45.5848 11.3325L44.3256 4.85862L37.7037 6.14661L33.9505 0.54103L28.4702 4.21024L23.0023 0.52302L19.2306 6.11615L12.6128 4.80634L11.3324 11.2759L4.85853 12.5352L6.14652 19.1571L0.540946 22.9103L4.21031 28.3905L0.523032 33.8586L6.11616 37.6302L4.80626 44.2479L11.276 45.5284L12.5351 52.0022L19.1571 50.7142L22.9103 56.3199L28.3905 52.6505L33.8586 56.3378L37.6302 50.7447L44.2478 52.0545L45.5284 45.5848L52.0022 44.3257L50.7142 37.7037L56.3197 33.9506L52.6505 28.4703L56.3378 23.0022L50.7447 19.2306L52.0544 12.6129L45.5848 11.3325Z" fill="#FAC232"/>
<path d="M28.4305 49.9984C40.3421 49.9984 49.9984 40.3421 49.9984 28.4305C49.9984 16.5188 40.3421 6.86252 28.4305 6.86252C16.5188 6.86252 6.86252 16.5188 6.86252 28.4305C6.86252 40.3421 16.5188 49.9984 28.4305 49.9984Z" fill="#FFD069"/>
<path d="M28.4305 43.1359C36.5521 43.1359 43.1359 36.5521 43.1359 28.4305C43.1359 20.3089 36.5521 13.7251 28.4305 13.7251C20.3089 13.7251 13.7251 20.3089 13.7251 28.4305C13.7251 36.5521 20.3089 43.1359 28.4305 43.1359Z" fill="#F1F1F1"/>
<g clip-path="url(#clip1)">
<path d="M30.3874 23.582C30.3093 23.5009 30.2015 23.4551 30.0889 23.4551H26.772C26.6594 23.4551 26.5517 23.5009 26.4735 23.582C25.8673 24.2097 20.5528 29.7854 20.5528 32.162C20.5528 35.5916 24.087 38.3811 28.4304 38.3811C32.7739 38.3811 36.3081 35.5916 36.3081 32.162C36.3081 29.7854 30.9936 24.2097 30.3874 23.582Z" fill="#4CAF50"/>
<path d="M33.7167 19.0345C33.026 18.2534 31.2291 19.2783 30.1975 19.9724C29.7249 19.3007 29.025 18.4798 28.4305 18.4798C27.8359 18.4798 27.1361 19.3007 26.6634 19.9724C25.6343 19.2775 23.8341 18.2526 23.1442 19.0345C22.9529 19.2551 22.8627 19.5455 22.8954 19.8356C23.0289 21.3713 26.1551 23.9096 26.5108 24.1931C26.5848 24.2526 26.677 24.2848 26.772 24.2844H30.0889C30.1829 24.2845 30.2741 24.2526 30.3476 24.194C30.7033 23.9096 33.8303 21.3747 33.963 19.8364C33.997 19.5464 33.9076 19.2555 33.7167 19.0345Z" fill="#4CAF50"/>
<path d="M31.7473 24.2843H25.1136C24.8846 24.2843 24.699 24.0987 24.699 23.8697C24.699 23.6407 24.8846 23.4551 25.1136 23.4551H31.7474C31.9764 23.4551 32.162 23.6408 32.162 23.8698C32.162 24.0987 31.9763 24.2843 31.7473 24.2843Z" fill="#388E3C"/>
<path d="M28.4305 35.0642C27.4445 35.1616 26.5465 34.4927 26.3574 33.5202C26.3382 33.2912 26.5082 33.09 26.7372 33.0708C26.9662 33.0515 27.1674 33.2216 27.1867 33.4505C27.2232 33.8834 27.7812 34.235 28.4305 34.235C29.1055 34.235 29.6743 33.8552 29.6743 33.4058C29.6743 33.0011 29.2813 32.7424 28.438 32.5848L28.3476 32.5682C27.0018 32.3195 26.3574 31.7697 26.3574 30.9181C26.4872 29.8961 27.405 29.1619 28.4305 29.2596C29.4164 29.1623 30.3145 29.8311 30.5035 30.8037C30.5228 31.0327 30.3527 31.2339 30.1237 31.2531C29.8948 31.2724 29.6935 31.1023 29.6743 30.8733C29.6395 30.4405 29.0814 30.0889 28.4305 30.0889C27.7555 30.0889 27.1866 30.4687 27.1866 30.9181C27.1866 31.3228 27.5805 31.5815 28.4247 31.739L28.5159 31.7564C29.8592 32.0052 30.506 32.5542 30.506 33.4066C30.3758 34.4293 29.4566 35.1635 28.4305 35.0642Z" fill="#FAFAFA"/>
<path d="M28.4305 35.8934C28.2015 35.8934 28.0158 35.7078 28.0158 35.4788V28.8451C28.0158 28.6161 28.2015 28.4305 28.4305 28.4305C28.6594 28.4305 28.8451 28.6161 28.8451 28.8451V35.4789C28.8451 35.7078 28.6594 35.8934 28.4305 35.8934Z" fill="#FAFAFA"/>
</g>
</g>
<defs>
<clipPath id="clip0">
<rect width="56.8609" height="56.8609" fill="white"/>
</clipPath>
<clipPath id="clip1">
<rect width="19.9013" height="19.9013" fill="white" transform="translate(18.4798 18.4798)"/>
</clipPath>
</defs>
</svg>
