<svg width="64" height="64" viewBox="0 0 64 64" fill="none" xmlns="http://www.w3.org/2000/svg">
<path d="M32 0C14.3545 0 0 14.3545 0 32C0 49.6455 14.3545 64 32 64C49.6455 64 64 49.6455 64 32C64 14.3545 49.6455 0 32 0Z" fill="#07AD6B"/>
<path d="M48.2168 25.2188L30.8833 42.5518C30.3633 43.0718 29.6807 43.3335 28.998 43.3335C28.3154 43.3335 27.6328 43.0718 27.1128 42.5518L18.4463 33.8853C17.4033 32.8428 17.4033 31.1572 18.4463 30.1147C19.4888 29.0718 21.1738 29.0718 22.2168 30.1147L28.998 36.896L44.4463 21.4482C45.4888 20.4053 47.1738 20.4053 48.2168 21.4482C49.2593 22.4907 49.2593 24.1758 48.2168 25.2188Z" fill="#FAFAFA"/>
</svg>
