<svg width="64" height="64" viewBox="0 0 64 64" fill="none" xmlns="http://www.w3.org/2000/svg">
<g clipPath="url(#clip0)">
<path d="M52 56H6.66667C2.992 56 0 53.008 0 49.3333V46.6666C0 41.52 4.18667 37.3333 9.33333 37.3333H36.9333C37.6693 37.3333 38.2667 37.9306 38.2667 38.6666C38.2667 39.4026 37.6693 40 36.9333 40H9.33333C5.65867 40 2.66667 42.992 2.66667 46.6666V49.3333C2.66667 51.5386 4.46133 53.3333 6.66667 53.3333H52C54.2053 53.3333 56 51.5386 56 49.3333V46.6666C56 44.9973 55.3787 43.4053 54.248 42.184C53.7467 41.6426 53.7813 40.8 54.3227 40.2986C54.8587 39.7973 55.7067 39.8293 56.208 40.3733C57.792 42.0906 58.6667 44.3253 58.6667 46.6666V49.3333C58.6667 53.008 55.6747 56 52 56Z" fill="#0C74D4"/>
<path d="M5.33333 64C2.392 64 0 61.608 0 58.6667V49.3333C0 48.5973 0.597333 48 1.33333 48C2.06933 48 2.66667 48.5973 2.66667 49.3333V58.6667C2.66667 60.136 3.864 61.3333 5.33333 61.3333C6.80267 61.3333 8 60.136 8 58.6667V54.6667C8 53.9307 8.59733 53.3333 9.33333 53.3333C10.0693 53.3333 10.6667 53.9307 10.6667 54.6667V58.6667C10.6667 61.608 8.27467 64 5.33333 64Z" fill="#0C74D4"/>
<path d="M53.3333 64C50.392 64 48 61.608 48 58.6667V54.6667C48 53.9307 48.5973 53.3333 49.3333 53.3333C50.0693 53.3333 50.6667 53.9307 50.6667 54.6667V58.6667C50.6667 60.136 51.864 61.3333 53.3333 61.3333C54.8027 61.3333 56 60.136 56 58.6667V49.3333C56 48.5973 56.5973 48 57.3333 48C58.0693 48 58.6667 48.5973 58.6667 49.3333V58.6667C58.6667 61.608 56.2747 64 53.3333 64Z" fill="#0C74D4"/>
<path d="M6.6671 40C6.49644 40 6.3231 39.968 6.1551 39.896C5.4751 39.6134 5.1551 38.832 5.43777 38.152L10.7444 25.432C11.7871 22.944 14.1951 21.3334 16.8804 21.3334H25.9204C26.6564 21.3334 27.2538 21.9307 27.2538 22.6667C27.2538 23.4027 26.6591 24 25.9204 24H16.8804C15.2964 24 13.8218 24.9894 13.2058 26.4614L7.8991 39.1814C7.6831 39.6907 7.1871 40 6.6671 40Z" fill="#0C74D4"/>
<path d="M17.3333 48H9.33333C8.59733 48 8 47.4026 8 46.6666C8 45.9306 8.59733 45.3333 9.33333 45.3333H17.3333C18.0693 45.3333 18.6667 45.9306 18.6667 46.6666C18.6667 47.4026 18.0693 48 17.3333 48Z" fill="#0C74D4"/>
<path d="M49.3333 48H41.3333C40.5973 48 40 47.4026 40 46.6666C40 45.9306 40.5973 45.3333 41.3333 45.3333H49.3333C50.0693 45.3333 50.6667 45.9306 50.6667 46.6666C50.6667 47.4026 50.0693 48 49.3333 48Z" fill="#0C74D4"/>
<path d="M48 37.3333C47.824 37.3333 47.648 37.2987 47.4827 37.2267C46.848 36.9627 32 30.544 32 17.4293V6.28533C32 5.71466 32.3653 5.20533 32.9067 5.02133L47.5733 0.0693286C47.8507 -0.0240047 48.1493 -0.0240047 48.4267 0.0693286L63.0933 5.02133C63.6347 5.20533 64 5.71466 64 6.28533V17.4293C64 30.544 49.152 36.9627 48.5173 37.2293C48.352 37.2987 48.176 37.3333 48 37.3333ZM34.6667 7.24266V17.4293C34.6667 27.5227 45.48 33.3173 48 34.5333C50.5173 33.3147 61.3333 27.4987 61.3333 17.4293V7.24266L48 2.74133L34.6667 7.24266Z" fill="#0C74D4"/>
<path d="M46.6667 24C46.6427 24 46.6161 24 46.5921 23.9973C46.2134 23.976 45.8614 23.7947 45.6241 23.4987L40.2907 16.832C39.8321 16.256 39.9254 15.4187 40.4987 14.9573C41.0747 14.496 41.9121 14.592 42.3734 15.1653L46.7761 20.6693L55.0561 12.3893C55.5761 11.8693 56.4214 11.8693 56.9414 12.3893C57.4614 12.9093 57.4614 13.7547 56.9414 14.2747L47.6081 23.608C47.3601 23.8613 47.0187 24 46.6667 24Z" fill="#07AD6B"/>
</g>
<defs>
<clipPath id="clip0">
<rect width="64" height="64" fill="white"/>
</clipPath>
</defs>
</svg>
