<svg width="16" height="16" viewBox="0 0 16 16" fill="none" xmlns="http://www.w3.org/2000/svg">
<path d="M4.81112 4.11155C4.81112 2.34953 6.238 0.922656 8.00001 0.922656C9.76202 0.922656 11.1889 2.34953 11.1889 4.11155C11.1889 5.87356 9.76202 7.30043 8.00001 7.30043C6.238 7.30043 4.81112 5.87356 4.81112 4.11155ZM0.922229 12.8615C0.922229 12.4721 1.11175 12.0792 1.54723 11.6773C1.98746 11.271 2.63073 10.9045 3.39799 10.5971C4.93364 9.98193 6.7896 9.67266 8.00001 9.67266C9.21042 9.67266 11.0664 9.98193 12.602 10.5971C13.3693 10.9045 14.0126 11.271 14.4528 11.6773C14.8883 12.0792 15.0778 12.4721 15.0778 12.8615V15.0782H0.922229V12.8615Z" stroke="#109CF1" stroke-width="1.4"/>
</svg>
