<svg width="40" height="33" viewBox="0 0 40 33" fill="none" xmlns="http://www.w3.org/2000/svg">
<g clipPath="url(#clip0)">
<path fill-rule="evenodd" clip-rule="evenodd" d="M27.3838 5.38392L11.5231 13.8949C11.1726 14.083 10.9111 14.4027 10.7962 14.7836C10.6814 15.1644 10.7225 15.5754 10.9106 15.9259L16.5846 26.4997C16.7727 26.8503 17.0924 27.1117 17.4733 27.2266C17.8542 27.3415 18.2651 27.3003 18.6156 27.1122L34.4763 18.6012C34.8269 18.4131 35.0884 18.0934 35.2032 17.7126C35.3181 17.3317 35.2769 16.9208 35.0888 16.5702L29.4148 5.9964C29.2267 5.64586 28.9071 5.3844 28.5262 5.26953C28.1453 5.15467 27.7344 5.19582 27.3838 5.38392ZM10.8139 12.5732C10.1128 12.9494 9.58985 13.5887 9.36013 14.3505C9.13041 15.1122 9.2127 15.9341 9.58891 16.6352L15.2629 27.209C15.6391 27.9101 16.2784 28.433 17.0402 28.6627C17.802 28.8924 18.6238 28.8101 19.3249 28.4339L35.1856 19.9229C35.8867 19.5467 36.4096 18.9074 36.6393 18.1456C36.8691 17.3839 36.7868 16.5621 36.4106 15.861L30.7366 5.28715C30.3603 4.58606 29.721 4.06314 28.9593 3.83342C28.1975 3.60369 27.3757 3.68599 26.6746 4.0622L10.8139 12.5732Z" fill="black"/>
<path d="M25.1918 10.8159C25.0977 10.6406 25.0771 10.4352 25.1346 10.2448C25.192 10.0543 25.3227 9.89448 25.498 9.80043L28.1415 8.38193C28.3167 8.28788 28.5222 8.2673 28.7126 8.32474C28.9031 8.38217 29.0629 8.5129 29.157 8.68817L29.8662 10.0099C29.9603 10.1852 29.9808 10.3906 29.9234 10.5811C29.866 10.7715 29.7352 10.9313 29.56 11.0254L26.9165 12.4439C26.7412 12.5379 26.5358 12.5585 26.3453 12.5011C26.1549 12.4437 25.9951 12.3129 25.901 12.1376L25.1918 10.8159ZM14.4569 22.5345L32.9611 12.605L34.3796 15.2484L15.8754 25.1779L14.4569 22.5345Z" fill="black"/>
</g>
<path fill-rule="evenodd" clip-rule="evenodd" d="M0 11.248C0 10.4524 0.316071 9.68934 0.87868 9.12673C1.44129 8.56412 2.20435 8.24805 3 8.24805H21C21.7956 8.24805 22.5587 8.56412 23.1213 9.12673C23.6839 9.68934 24 10.4524 24 11.248V18.748H0V11.248ZM17.25 12.748C17.0511 12.748 16.8603 12.8271 16.7197 12.9677C16.579 13.1084 16.5 13.2991 16.5 13.498V14.998C16.5 15.197 16.579 15.3877 16.7197 15.5284C16.8603 15.669 17.0511 15.748 17.25 15.748H20.25C20.4489 15.748 20.6397 15.669 20.7803 15.5284C20.921 15.3877 21 15.197 21 14.998V13.498C21 13.2991 20.921 13.1084 20.7803 12.9677C20.6397 12.8271 20.4489 12.748 20.25 12.748H17.25Z" fill="black"/>
<path d="M0 21.748V23.248C0 24.0437 0.316071 24.8068 0.87868 25.3694C1.44129 25.932 2.20435 26.248 3 26.248H21C21.7956 26.248 22.5587 25.932 23.1213 25.3694C23.6839 24.8068 24 24.0437 24 23.248V21.748H0Z" fill="black"/>
<rect x="10" y="18.748" width="14" height="3" fill="#F5F5FB"/>
<defs>
<clipPath id="clip0">
<rect width="24" height="24" fill="white" transform="translate(6.75195 11.3481) rotate(-28.2184)"/>
</clipPath>
</defs>
</svg>
