<svg width="82" height="36" viewBox="0 0 82 36" fill="none" xmlns="http://www.w3.org/2000/svg">
<path d="M22.2639 11.5831C20.3036 11.5831 18.4422 10.649 17.2723 9.03683L12.7275 2.79003L15.4378 2.35666C23.2182 1.10596 31.3444 1.61118 39.5874 3.85437L41.4107 4.35061L39.8456 8.26664C39.5425 9.0256 38.8509 9.56001 38.0381 9.66106L23.0341 11.536C22.7759 11.5674 22.5176 11.5831 22.2639 11.5831Z" fill="#CFD8DC"/>
<path d="M52.7869 8.86615C48.9539 7.01367 45.1546 5.54066 41.3868 4.40672L39.8442 8.26662C39.5411 9.02557 38.8495 9.55999 38.0366 9.66103L23.0326 11.536C22.7744 11.5696 22.5184 11.5831 22.2625 11.5831C20.3022 11.5831 18.4407 10.649 17.2709 9.0368L12.7777 2.85962C9.6768 3.50855 6.61179 4.42244 3.58944 5.6215C1.7639 6.34453 0.748962 8.34072 1.22724 10.2628L2.56103 15.6294C2.99889 17.3876 4.56844 18.6136 6.37602 18.6136H50.1575C51.7697 18.6136 53.2 17.6458 53.804 16.1503L54.7179 13.8824C55.4881 11.9626 54.6416 9.75758 52.7869 8.86615Z" fill="#1F2A53" fill-opacity="0.75"/>
<path d="M12.3361 20.859C9.85937 20.859 7.84521 18.8448 7.84521 16.3681C7.84521 13.8914 9.85937 11.8773 12.3361 11.8773C14.8128 11.8773 16.8269 13.8914 16.8269 16.3681C16.8269 18.8448 14.8128 20.859 12.3361 20.859Z" fill="#90A4AE"/>
<path d="M43.7174 20.859C41.2407 20.859 39.2266 18.8448 39.2266 16.3681C39.2266 13.8914 41.2407 11.8773 43.7174 11.8773C46.1941 11.8773 48.2083 13.8914 48.2083 16.3681C48.2083 18.8448 46.1941 20.859 43.7174 20.859Z" fill="#90A4AE"/>
<path d="M43.8251 19.2946C42.1509 19.2946 40.7891 17.9328 40.7891 16.2586C40.7891 14.5845 42.1509 13.2226 43.8251 13.2226C45.4992 13.2226 46.8611 14.5845 46.8611 16.2586C46.8611 17.9328 45.4992 19.2946 43.8251 19.2946Z" fill="#90A4AE"/>
<path d="M43.8251 19.2946C42.1509 19.2946 40.7891 17.9328 40.7891 16.2586C40.7891 14.5845 42.1509 13.2226 43.8251 13.2226C45.4992 13.2226 46.8611 14.5845 46.8611 16.2586C46.8611 17.9328 45.4992 19.2946 43.8251 19.2946Z" stroke="white" stroke-width="0.5"/>
<path d="M43.8251 19.2946C42.1509 19.2946 40.7891 17.9328 40.7891 16.2586C40.7891 14.5845 42.1509 13.2226 43.8251 13.2226C45.4992 13.2226 46.8611 14.5845 46.8611 16.2586C46.8611 17.9328 45.4992 19.2946 43.8251 19.2946Z" stroke="white" stroke-width="0.5"/>
<path d="M23.8873 1.6875C21.0334 1.6875 18.2131 1.9098 15.4378 2.35664L12.7275 2.79001L12.7792 2.85962L17.2723 9.0368C18.4422 10.649 20.3059 11.5831 22.2639 11.5831C22.5176 11.5831 22.7759 11.5674 23.0341 11.536L27.0691 11.0307V1.77956C26.0025 1.71894 24.9427 1.6875 23.8873 1.6875Z" fill="#B4BCC0"/>
<path d="M12.7797 2.85962C9.67876 3.50855 6.61374 4.42244 3.59139 5.6215C1.76585 6.34453 0.750916 8.34072 1.22919 10.2628L2.56298 15.6294C2.99859 17.3876 4.56815 18.6136 6.37572 18.6136H8.44826C8.06429 17.9534 7.84424 17.1855 7.84424 16.3681C7.84424 13.8914 9.85839 11.8773 12.3351 11.8773C14.8118 11.8773 16.826 13.8914 16.826 16.3681C16.826 17.1855 16.6059 17.9534 16.2242 18.6136H27.0696V11.0307L23.0346 11.536C22.7764 11.5696 22.5204 11.5831 22.2644 11.5831C20.3041 11.5831 18.4427 10.649 17.2728 9.0368L12.7797 2.85962Z" fill="#1F2A53"/>
<path d="M12.3361 11.8773C9.85937 11.8773 7.84521 13.8914 7.84521 16.3681C7.84521 17.1855 8.06527 17.9534 8.44699 18.6136C9.22616 19.9541 10.6767 20.859 12.3361 20.859C13.9955 20.859 15.446 19.9541 16.2252 18.6136C16.6069 17.9534 16.8269 17.1855 16.8269 16.3681C16.8269 13.8914 14.8128 11.8773 12.3361 11.8773Z" fill="#7D8F97"/>
<path d="M12.2806 19.2946C10.6065 19.2946 9.24463 17.9328 9.24463 16.2586C9.24463 14.5845 10.6065 13.2226 12.2806 13.2226C13.9548 13.2226 15.3166 14.5845 15.3166 16.2586C15.3166 17.9328 13.9548 19.2946 12.2806 19.2946Z" fill="#90A4AE"/>
<path d="M12.2806 19.2946C10.6065 19.2946 9.24463 17.9328 9.24463 16.2586C9.24463 14.5845 10.6065 13.2226 12.2806 13.2226C13.9548 13.2226 15.3166 14.5845 15.3166 16.2586C15.3166 17.9328 13.9548 19.2946 12.2806 19.2946Z" stroke="white" stroke-width="0.5"/>
<path d="M12.2806 19.2946C10.6065 19.2946 9.24463 17.9328 9.24463 16.2586C9.24463 14.5845 10.6065 13.2226 12.2806 13.2226C13.9548 13.2226 15.3166 14.5845 15.3166 16.2586C15.3166 17.9328 13.9548 19.2946 12.2806 19.2946Z" stroke="white" stroke-width="0.5"/>
<path d="M81.6361 14.063L73.9486 1.24538C73.4823 0.4715 72.652 0 71.75 0H58.9375C57.523 0 56.375 1.148 56.375 2.5625V30.75H79.4375C80.852 30.75 82 29.602 82 28.1875V15.375C81.877 14.9291 81.7591 14.5089 81.6361 14.063Z" fill="#F44336"/>
<path d="M61.5 5.125H70.2996L76.4496 15.375H61.5V5.125Z" fill="#FAFAFA"/>
<path d="M69.1875 33.3125C72.018 33.3125 74.3125 31.018 74.3125 28.1875C74.3125 25.357 72.018 23.0625 69.1875 23.0625C66.357 23.0625 64.0625 25.357 64.0625 28.1875C64.0625 31.018 66.357 33.3125 69.1875 33.3125Z" fill="#FAFAFA"/>
<path d="M69.1875 35.875C64.9491 35.875 61.5 32.4259 61.5 28.1875C61.5 23.9491 64.9491 20.5 69.1875 20.5C73.4259 20.5 76.875 23.9491 76.875 28.1875C76.875 32.4259 73.4259 35.875 69.1875 35.875ZM69.1875 25.625C67.7781 25.625 66.625 26.7781 66.625 28.1875C66.625 29.5969 67.7781 30.75 69.1875 30.75C70.5969 30.75 71.75 29.5969 71.75 28.1875C71.75 26.7781 70.5969 25.625 69.1875 25.625Z" fill="#455A64"/>
<path d="M56.375 30.75H2.5625C1.148 30.75 0 29.602 0 28.1875V20.5H56.375V30.75Z" fill="#F44336"/>
<path d="M17.9375 33.3125C20.768 33.3125 23.0625 31.018 23.0625 28.1875C23.0625 25.357 20.768 23.0625 17.9375 23.0625C15.107 23.0625 12.8125 25.357 12.8125 28.1875C12.8125 31.018 15.107 33.3125 17.9375 33.3125Z" fill="#FAFAFA"/>
<path d="M17.9375 35.875C13.6991 35.875 10.25 32.4259 10.25 28.1875C10.25 23.9491 13.6991 20.5 17.9375 20.5C22.1759 20.5 25.625 23.9491 25.625 28.1875C25.625 32.4259 22.1759 35.875 17.9375 35.875ZM17.9375 25.625C16.523 25.625 15.375 26.7781 15.375 28.1875C15.375 29.5969 16.523 30.75 17.9375 30.75C19.352 30.75 20.5 29.5969 20.5 28.1875C20.5 26.7781 19.352 25.625 17.9375 25.625Z" fill="#455A64"/>
</svg>
