<svg width="64" height="64" viewBox="0 0 64 64" fill="none" xmlns="http://www.w3.org/2000/svg">
<path d="M63.9824 8.34521C63.9824 3.74365 60.2383 0 55.6372 0C51.46 0 47.9907 3.08496 47.3857 7.0957H1.25C0.55957 7.0957 0 7.65527 0 8.3457V35.6768V35.6777V35.6782V42.9609C0 43.6514 0.55957 44.2109 1.25 44.2109H17.8872V48.5664C17.8872 49.2568 18.4468 49.8164 19.1372 49.8164C19.8271 49.8164 20.3872 49.2568 20.3872 48.5664V30.3975C20.3872 28.8174 21.624 27.5801 23.2031 27.5801C23.9556 27.5801 24.6636 27.873 25.1953 28.4048C25.7275 28.937 26.0205 29.6445 26.0205 30.3975V41.0464C26.0205 41.1724 26.0264 41.2969 26.0361 41.4209C26.104 42.2471 26.395 43.0283 26.8877 43.6992C26.8882 43.6997 26.8887 43.7002 26.8887 43.7007C26.8892 43.7007 26.8892 43.7012 26.8892 43.7012C26.8896 43.7017 26.8901 43.7021 26.8906 43.7026C27.7329 44.8511 29.0854 45.5371 30.5107 45.5371C31.7095 45.5371 32.8364 45.0698 33.6851 44.2212L33.6953 44.2109H43.752L36.9688 54.6084C36.9448 54.645 36.9233 54.6826 36.9033 54.7212C36.3872 55.7275 36.1143 56.8574 36.1143 57.9893V62.75C36.1143 63.4404 36.6743 64 37.3643 64C38.0547 64 38.6143 63.4404 38.6143 62.75V57.9893C38.6143 57.2729 38.7822 56.5576 39.1006 55.9165L45.8999 45.4937C45.9233 45.4575 45.9453 45.4204 45.9648 45.3818C46.1587 45.0049 46.3164 44.6133 46.4399 44.2109H55.6372C56.3271 44.2109 56.8872 43.6514 56.8872 42.9609V35.6782V35.6777C56.8872 35.6772 56.8872 35.6772 56.8872 35.6768V16.5967C60.8975 15.9917 63.9824 12.522 63.9824 8.34521ZM51.6196 15.6572C52.3638 16.0679 53.1714 16.3633 54.0049 16.5293C54.0952 16.5469 54.186 16.563 54.2769 16.5776C54.312 16.5835 54.3472 16.5903 54.3823 16.5957C54.3838 16.5962 54.3853 16.5962 54.3867 16.5967V29.1216C51.7075 29.6313 49.5913 31.7476 49.0815 34.4268H37.8696C40.5571 31.2847 42.144 26.8145 42.144 22.0718C42.144 17.2505 40.52 12.7393 37.7686 9.5957H47.3843C47.4048 9.73193 47.4302 9.86719 47.457 10.0015C47.833 11.8618 48.8589 13.5635 50.3213 14.7725C50.7261 15.1069 51.1597 15.4033 51.6196 15.6572ZM54.3872 38.0688H28.5205V36.9282H54.3872V38.0688ZM51.6538 34.4268C52.062 33.1289 53.0889 32.1021 54.3872 31.6938V34.4268H51.6538ZM2.5 34.4268V31.6938C3.79834 32.1021 4.8252 33.1289 5.2334 34.4268H2.5ZM2.5 36.9282H17.8872V38.0688H2.5V36.9282ZM17.8872 31.5693V34.4268H7.80518C7.29541 31.7476 5.17969 29.6318 2.5 29.1216V14.9009C5.17969 14.3911 7.29541 12.2749 7.80518 9.5957H19.9429C17.1914 12.7393 15.5674 17.2505 15.5674 22.0718C15.5669 25.4961 16.3701 28.771 17.8872 31.5693ZM2.5 9.5957H5.2334C4.8252 10.894 3.79834 11.9209 2.5 12.3291V9.5957ZM2.5 41.7109V40.5688H17.8872V41.7109H2.5ZM23.2031 25.0801C21.5645 25.0801 19.9893 25.8618 18.9902 27.1597C18.9502 27.2119 18.9111 27.2646 18.873 27.3179C18.8604 27.3364 18.8462 27.3535 18.8335 27.3721C18.3281 25.7031 18.0669 23.9146 18.0669 22.0718C18.0669 16.877 20.1758 12.1387 23.5942 9.5957H34.1172C37.5356 12.1387 39.644 16.877 39.644 22.0718C39.644 27.1655 37.5967 31.8564 34.2764 34.4268H28.5205V30.8818C28.6631 30.9385 28.8179 30.9702 28.9805 30.9702C29.6704 30.9702 30.2305 30.4106 30.2305 29.7202V28.9023C31.8091 28.8447 33.0757 27.5435 33.0757 25.9512V23.6509C33.0757 22.022 31.7505 20.6968 30.1216 20.6968H27.8394C27.5889 20.6968 27.3853 20.4932 27.3853 20.2427V18.0713C27.3853 17.8208 27.5889 17.6172 27.8394 17.6172H30.1216C30.3721 17.6172 30.5757 17.8208 30.5757 18.0713C30.5757 18.7617 31.1357 19.3213 31.8257 19.3213C32.5161 19.3213 33.0757 18.7617 33.0757 18.0713C33.0757 16.479 31.8091 15.1777 30.2305 15.1201V14.3022C30.2305 13.6118 29.6709 13.0522 28.981 13.0522C28.9805 13.0522 28.9805 13.0522 28.9805 13.0522C28.2905 13.0522 27.7305 13.6118 27.7305 14.3022V15.1201C26.1523 15.1777 24.8857 16.479 24.8853 18.0713V20.2432C24.8853 21.8721 26.2104 23.1968 27.8394 23.1968H30.1216C30.3721 23.1968 30.5757 23.4009 30.5757 23.6514V25.9512C30.5757 26.2017 30.3721 26.4053 30.1216 26.4053H28.981C28.981 26.4053 28.981 26.4053 28.9805 26.4053H28.98H27.8394C27.5889 26.4053 27.3853 26.2017 27.3853 25.9521V25.7417C27.3857 25.0513 26.8262 24.4912 26.1362 24.4907C26.1357 24.4907 26.1357 24.4907 26.1353 24.4907C25.5742 24.4907 25.0991 24.8608 24.9414 25.3701C24.4712 25.208 23.9766 25.1113 23.4683 25.0864C23.3804 25.082 23.292 25.0801 23.2031 25.0801ZM45.4443 41.7109H28.6348C28.6323 41.7036 28.6294 41.6963 28.627 41.689C28.6167 41.6597 28.6079 41.6294 28.5996 41.5996C28.5479 41.4204 28.5205 41.2329 28.5205 41.0464V40.5688H54.3872V41.7109H45.4443ZM55.6411 14.1904C55.6396 14.1904 55.6382 14.1899 55.6372 14.1899C54.4282 14.1899 53.3042 13.8213 52.3711 13.1904C50.8159 12.1392 49.792 10.3594 49.792 8.34521C49.792 5.12207 52.4141 2.5 55.6372 2.5C58.8599 2.5 61.4824 5.12207 61.4824 8.34521C61.4824 11.5669 58.8623 14.188 55.6411 14.1904Z" fill="#1F2A53" fill-opacity="0.75"/>
<path d="M19.1372 57.5117C18.4468 57.5117 17.8872 58.0713 17.8872 58.7617V62.75C17.8872 63.4404 18.4468 64 19.1372 64C19.8271 64 20.3872 63.4404 20.3872 62.75V58.7617C20.3872 58.0713 19.8271 57.5117 19.1372 57.5117Z" fill="#1F2A53" fill-opacity="0.75"/>
<path d="M20.291 53.1262C20.0893 52.6336 19.5776 52.3191 19.0474 52.3577C18.5293 52.3953 18.0786 52.7615 17.9355 53.261C17.791 53.7634 17.9853 54.3152 18.4097 54.6199C18.8271 54.9202 19.4033 54.929 19.831 54.6438C20.3208 54.3172 20.5171 53.6687 20.291 53.1262Z" fill="#1F2A53" fill-opacity="0.75"/>
</svg>
