<svg width="29" height="32" viewBox="0 0 29 32" fill="none" xmlns="http://www.w3.org/2000/svg">
<path d="M7.2043 17.6033C6.76247 17.6033 6.4043 17.9615 6.4043 18.4033V23.2033C6.4043 23.6451 6.76247 24.0033 7.2043 24.0033C7.64612 24.0033 8.0043 23.6451 8.0043 23.2033V22.404H8.80007C10.1257 22.404 11.2004 21.3293 11.2004 20.0036C11.2004 18.678 10.1257 17.6033 8.80007 17.6033H7.2043ZM8.80007 20.804H8.0043V19.2033H8.80007C9.24207 19.2033 9.60039 19.5616 9.60039 20.0036C9.60039 20.4456 9.24207 20.804 8.80007 20.804ZM19.1962 18.4023C19.1968 17.9609 19.5548 17.6033 19.9962 17.6033H22.4043C22.8461 17.6033 23.2043 17.9615 23.2043 18.4033C23.2043 18.8451 22.8461 19.2033 22.4043 19.2033H20.7952L20.7932 20.8061H22.4043C22.8461 20.8061 23.2043 21.1642 23.2043 21.6061C23.2043 22.0479 22.8461 22.4061 22.4043 22.4061H20.7942L20.7962 23.2013C20.7974 23.6431 20.4401 24.0022 19.9983 24.0033C19.5565 24.0044 19.1974 23.6472 19.1962 23.2054L19.1922 21.6081L19.1922 21.6051L19.1962 18.4023ZM13.6 17.6033C13.1582 17.6033 12.8 17.9615 12.8 18.4033V23.2033C12.8 23.6451 13.1582 24.0033 13.6 24.0033H14.3961C16.1634 24.0033 17.5961 22.5706 17.5961 20.8033C17.5961 19.036 16.1634 17.6033 14.3961 17.6033H13.6ZM14.4 22.4033V19.2033C15.2819 19.2054 15.9961 19.921 15.9961 20.8033C15.9961 21.6857 15.2818 22.4012 14.4 22.4033ZM27.2 28.8V26.9372C28.146 26.4879 28.8 25.5237 28.8 24.4067V17.2C28.8 16.083 28.146 15.1188 27.2 14.6695V12.5248C27.2 11.6768 26.8624 10.8624 26.2624 10.2624L16.936 0.9376C16.9121 0.913677 16.885 0.892929 16.8581 0.872312C16.8382 0.857079 16.8184 0.841917 16.8 0.8256C16.6864 0.7232 16.5744 0.6224 16.4496 0.5376C16.4092 0.510306 16.3649 0.488761 16.3208 0.467314C16.2952 0.454815 16.2695 0.44235 16.2448 0.4288C16.2181 0.41375 16.1915 0.398347 16.1648 0.382922C16.0781 0.332752 15.991 0.28236 15.8992 0.2432C15.584 0.112 15.2448 0.0463999 14.9008 0.0223999C14.8693 0.0203877 14.838 0.0161262 14.8067 0.0118548C14.7633 0.00593691 14.7198 0 14.6752 0H4.8C3.0336 0 1.6 1.4336 1.6 3.2V14.6695C0.654021 15.1188 0 16.083 0 17.2V24.4067C0 25.5237 0.654021 26.4879 1.6 26.9372V28.8C1.6 30.5664 3.0336 32 4.8 32H24C25.7664 32 27.2 30.5664 27.2 28.8ZM24 29.6H4.8C4.3584 29.6 4 29.24 4 28.8V27.2067H24.8V28.8C24.8 29.24 24.4416 29.6 24 29.6ZM24.8 12.8V14.4H4V3.2C4 2.76 4.3584 2.4 4.8 2.4H14.4V9.6C14.4 11.3664 15.8336 12.8 17.6 12.8H24.8ZM23.0048 10.4H17.6C17.1584 10.4 16.8 10.04 16.8 9.6V4.1936L23.0048 10.4ZM2.8 16.8H26C26.2209 16.8 26.4 16.9791 26.4 17.2V24.4067C26.4 24.6276 26.2209 24.8067 26 24.8067H2.8C2.57909 24.8067 2.4 24.6276 2.4 24.4067V17.2C2.4 16.9791 2.57909 16.8 2.8 16.8Z" fill="#328CE0"/>
</svg>
