<svg width="12" height="12" viewBox="0 0 12 12" fill="none" xmlns="http://www.w3.org/2000/svg">
<path d="M7.25 3.5C7.94036 3.5 8.5 2.94036 8.5 2.25C8.5 1.55964 7.94036 1 7.25 1C6.55964 1 6 1.55964 6 2.25C6 2.94036 6.55964 3.5 7.25 3.5Z" stroke="#0D101B" stroke-linecap="round" stroke-linejoin="round"/>
<path d="M1 2.25H6" stroke="#0D101B" stroke-linecap="round" stroke-linejoin="round"/>
<path d="M8.5 2.25H11" stroke="#0D101B" stroke-linecap="round" stroke-linejoin="round"/>
<path d="M3.5 7.25C4.19036 7.25 4.75 6.69036 4.75 6C4.75 5.30964 4.19036 4.75 3.5 4.75C2.80964 4.75 2.25 5.30964 2.25 6C2.25 6.69036 2.80964 7.25 3.5 7.25Z" stroke="#0D101B" stroke-linecap="round" stroke-linejoin="round"/>
<path d="M1 6H2.25" stroke="#0D101B" stroke-linecap="round" stroke-linejoin="round"/>
<path d="M4.75 6H11" stroke="#0D101B" stroke-linecap="round" stroke-linejoin="round"/>
<path d="M9.125 11C9.81535 11 10.375 10.4404 10.375 9.75C10.375 9.05964 9.81535 8.5 9.125 8.5C8.43464 8.5 7.875 9.05964 7.875 9.75C7.875 10.4404 8.43464 11 9.125 11Z" stroke="#0D101B" stroke-linecap="round" stroke-linejoin="round"/>
<path d="M1 9.75H7.875" stroke="#0D101B" stroke-linecap="round" stroke-linejoin="round"/>
<path d="M10.375 9.75H11" stroke="#0D101B" stroke-linecap="round" stroke-linejoin="round"/>
</svg>
