<svg width="64" height="64" viewBox="0 0 64 64" fill="none" xmlns="http://www.w3.org/2000/svg">
<path d="M51.9995 55.9995H6.6666C2.99197 55.9995 0 53.0075 0 49.3329V46.6663C0 41.5196 4.18663 37.333 9.33325 37.333H36.933C37.669 37.333 38.2663 37.9303 38.2663 38.6663C38.2663 39.4023 37.669 39.9996 36.933 39.9996H9.33325C5.65861 39.9996 2.66664 42.9916 2.66664 46.6663V49.3329C2.66664 51.5382 4.46129 53.3329 6.6666 53.3329H51.9995C54.2048 53.3329 55.9995 51.5382 55.9995 49.3329V46.6663C55.9995 44.9969 55.3781 43.405 54.2475 42.1836C53.7462 41.6423 53.7808 40.7996 54.3222 40.2983C54.8582 39.797 55.7061 39.829 56.2075 40.373C57.7915 42.0903 58.6661 44.3249 58.6661 46.6663V49.3329C58.6661 53.0075 55.6741 55.9995 51.9995 55.9995Z" fill="#0C74D4"/>
<path d="M5.33328 63.9994C2.39198 63.9994 0 61.6074 0 58.6661V49.3329C0 48.5969 0.597328 47.9996 1.33332 47.9996C2.06931 47.9996 2.66664 48.5969 2.66664 49.3329V58.6661C2.66664 60.1355 3.86396 61.3328 5.33328 61.3328C6.8026 61.3328 7.99992 60.1355 7.99992 58.6661V54.6662C7.99992 53.9302 8.59725 53.3329 9.33325 53.3329C10.0692 53.3329 10.6666 53.9302 10.6666 54.6662V58.6661C10.6666 61.6074 8.27459 63.9994 5.33328 63.9994Z" fill="#0C74D4"/>
<path d="M53.3333 63.9994C50.392 63.9994 48 61.6074 48 58.6661V54.6662C48 53.9302 48.5973 53.3329 49.3333 53.3329C50.0693 53.3329 50.6666 53.9302 50.6666 54.6662V58.6661C50.6666 60.1355 51.864 61.3328 53.3333 61.3328C54.8026 61.3328 55.9999 60.1355 55.9999 58.6661V49.3329C55.9999 48.5969 56.5973 47.9996 57.3332 47.9996C58.0692 47.9996 58.6666 48.5969 58.6666 49.3329V58.6661C58.6666 61.6074 56.2746 63.9994 53.3333 63.9994Z" fill="#0C74D4"/>
<path d="M6.66807 39.9997C6.4974 39.9997 6.32407 39.9677 6.15607 39.8957C5.47608 39.613 5.15608 38.8317 5.43875 38.1517L10.7454 25.4318C11.788 22.9438 14.196 21.3332 16.8813 21.3332H25.9212C26.6572 21.3332 27.2545 21.9305 27.2545 22.6665C27.2545 23.4025 26.6599 23.9998 25.9212 23.9998H16.8813C15.2973 23.9998 13.8227 24.9892 13.2067 26.4611L7.90005 39.181C7.68406 39.6903 7.18806 39.9997 6.66807 39.9997Z" fill="#0C74D4"/>
<path d="M17.3332 47.9996H9.33332C8.59733 47.9996 8 47.4023 8 46.6663C8 45.9303 8.59733 45.3329 9.33332 45.3329H17.3332C18.0692 45.3329 18.6666 45.9303 18.6666 46.6663C18.6666 47.4023 18.0692 47.9996 17.3332 47.9996Z" fill="#0C74D4"/>
<path d="M49.3332 47.9996H41.3333C40.5973 47.9996 40 47.4023 40 46.6663C40 45.9303 40.5973 45.3329 41.3333 45.3329H49.3332C50.0692 45.3329 50.6666 45.9303 50.6666 46.6663C50.6666 47.4023 50.0692 47.9996 49.3332 47.9996Z" fill="#0C74D4"/>
<path d="M47.9998 37.333C47.8238 37.333 47.6479 37.2984 47.4825 37.2264C46.8479 36.9624 32 30.5438 32 17.4292V6.28533C32 5.71467 32.3653 5.20534 32.9067 5.02134L47.5732 0.069389C47.8505 -0.0239435 48.1492 -0.0239435 48.4265 0.069389L63.093 5.02134C63.6344 5.20534 63.9997 5.71467 63.9997 6.28533V17.4292C63.9997 30.5438 49.1518 36.9624 48.5172 37.229C48.3518 37.2984 48.1758 37.333 47.9998 37.333ZM34.6666 7.24265V17.4292C34.6666 27.5225 45.4799 33.3171 47.9998 34.5331C50.5172 33.3144 61.3331 27.4985 61.3331 17.4292V7.24265L47.9998 2.74136L34.6666 7.24265Z" fill="#0C74D4"/>
<path d="M47.9999 23.4998C52.142 23.4998 55.4999 20.142 55.4999 15.9999C55.4999 11.8578 52.142 8.49994 47.9999 8.49994C43.8578 8.49994 40.5 11.8578 40.5 15.9999C40.5 20.142 43.8578 23.4998 47.9999 23.4998Z" stroke="#D1B10A" stroke-width="2" stroke-linecap="round" stroke-linejoin="round"/>
<path d="M50.3333 13.4999C50.1823 13.2381 49.963 13.0222 49.6988 12.8754C49.4346 12.7286 49.1354 12.6564 48.8333 12.6666H47.1667C46.7246 12.6666 46.3007 12.8422 45.9882 13.1547C45.6756 13.4673 45.5 13.8912 45.5 14.3332C45.5 14.7753 45.6756 15.1992 45.9882 15.5117C46.3007 15.8243 46.7246 15.9999 47.1667 15.9999H48.8333C49.2753 15.9999 49.6992 16.1755 50.0118 16.488C50.3244 16.8006 50.5 17.2245 50.5 17.6665C50.5 18.1086 50.3244 18.5325 50.0118 18.845C49.6992 19.1576 49.2753 19.3332 48.8333 19.3332H47.1667C46.8646 19.3434 46.5654 19.2712 46.3012 19.1244C46.037 18.9776 45.8176 18.7617 45.6667 18.4999" stroke="#D1B10A" stroke-width="2" stroke-linecap="round" stroke-linejoin="round"/>
<path d="M48 19.3331V20.9998M48 10.9999V12.6665V10.9999Z" stroke="#F6DF65" stroke-width="2" stroke-linecap="round" stroke-linejoin="round"/>
</svg>
