<svg width="64" height="64" viewBox="0 0 64 64" fill="none" xmlns="http://www.w3.org/2000/svg">
<g clip-path="url(#clip0)">
<path d="M48 37.3334C47.824 37.3334 47.648 37.2987 47.4827 37.2267C46.848 36.9627 32 30.5441 32 17.4294V6.28539C32 5.71472 32.3653 5.20539 32.9067 5.02139L47.5733 0.0693897C47.8507 -0.0239437 48.1493 -0.0239437 48.4267 0.0693897L63.0933 5.02139C63.6347 5.20539 64 5.71472 64 6.28539V17.4294C64 30.5441 49.152 36.9627 48.5173 37.2294C48.352 37.2987 48.176 37.3334 48 37.3334ZM34.6667 7.24272V17.4294C34.6667 27.5227 45.48 33.3174 48 34.5334C50.5173 33.3147 61.3333 27.4987 61.3333 17.4294V7.24272L48 2.74139L34.6667 7.24272Z" fill="#0C74D4"/>
<path d="M50.6673 64C47.726 64 45.334 61.608 45.334 58.6667C45.334 55.7253 47.726 53.3333 50.6673 53.3333C53.6086 53.3333 56.0006 55.7253 56.0006 58.6667C56.0006 61.608 53.6086 64 50.6673 64ZM50.6673 56C49.198 56 48.0007 57.1973 48.0007 58.6667C48.0007 60.136 49.198 61.3333 50.6673 61.3333C52.1366 61.3333 53.334 60.136 53.334 58.6667C53.334 57.1973 52.1366 56 50.6673 56Z" fill="#0C74D4"/>
<path d="M13.3333 64C10.392 64 8 61.608 8 58.6667C8 55.7253 10.392 53.3333 13.3333 53.3333C16.2747 53.3333 18.6667 55.7253 18.6667 58.6667C18.6667 61.608 16.2747 64 13.3333 64ZM13.3333 56C11.864 56 10.6667 57.1973 10.6667 58.6667C10.6667 60.136 11.864 61.3333 13.3333 61.3333C14.8027 61.3333 16 60.136 16 58.6667C16 57.1973 14.8027 56 13.3333 56Z" fill="#0C74D4"/>
<path d="M56.2992 61.3333H54.6965C53.9605 61.3333 53.3632 60.736 53.3632 60C53.3632 59.264 53.9605 58.6667 54.6965 58.6667H56.2992C58.1312 58.6667 59.7259 57.4267 60.1766 55.6507L61.2966 51.2507C61.4592 50.6107 61.1179 49.928 60.5232 49.696C42.6112 42.728 23.3952 43.984 3.4032 53.4427C2.78987 53.7333 2.50454 54.4907 2.76587 55.128L3.20054 56.1867C3.82187 57.6933 5.27254 58.6667 6.89921 58.6667H8.98987C9.72587 58.6667 10.3232 59.264 10.3232 60C10.3232 60.736 9.72854 61.3333 8.99254 61.3333H6.89921C4.18721 61.3333 1.76587 59.712 0.733871 57.2027L0.296538 56.144C-0.511463 54.1787 0.352538 51.9333 2.2592 51.032C22.9365 41.2533 42.8672 39.9626 61.4859 47.2133C63.3446 47.936 64.3739 49.952 63.8779 51.9067L62.7579 56.3067C62.0086 59.2667 59.3526 61.3333 56.2992 61.3333Z" fill="#0C74D4"/>
<path d="M46.9064 61.3333H17.0931C16.3571 61.3333 15.7598 60.736 15.7598 60C15.7598 59.264 16.3571 58.6666 17.0931 58.6666H46.9064C47.6424 58.6666 48.2398 59.264 48.2398 60C48.2398 60.736 47.6424 61.3333 46.9064 61.3333Z" fill="#0C74D4"/>
<path d="M38.8715 52.984C38.5968 52.984 38.3195 52.968 38.0422 52.9307L19.8315 50.6533C19.3888 50.5973 19.0022 50.3253 18.8048 49.928L17.4715 47.2613C17.1408 46.6027 17.4102 45.8027 18.0688 45.472C18.7275 45.144 19.5275 45.4107 19.8582 46.0693L20.8715 48.0987L38.3729 50.2853C39.8155 50.464 41.2475 49.8453 42.1035 48.6693L45.5862 43.8827C46.0182 43.2853 46.8528 43.1547 47.4475 43.5893C48.0448 44.0213 48.1755 44.856 47.7409 45.4507L44.2582 50.2373C42.9995 51.976 40.9888 52.984 38.8715 52.984Z" fill="#0C74D4"/>
<circle cx="48" cy="16" r="6" fill="#07AD6B"/>
</g>
<defs>
<clipPath id="clip0">
<rect width="64" height="64" fill="white"/>
</clipPath>
</defs>
</svg>
