<svg width="14" height="14" viewBox="0 0 14 14" fill="none" xmlns="http://www.w3.org/2000/svg">
<g clip-path="url(#clip0)">
<path d="M10.7337 0.600006H12.8671C13.1615 0.600006 13.4004 0.838939 13.4004 1.13334V3.26667C13.4004 3.56107 13.1615 3.80001 12.8671 3.80001H10.7337C10.4393 3.80001 10.2004 3.56107 10.2004 3.26667V1.13334C10.2004 0.838939 10.4393 0.600006 10.7337 0.600006Z" fill="white"/>
<path d="M10.7337 5.39999H12.8671C13.1615 5.39999 13.4004 5.63893 13.4004 5.93333V8.06666C13.4004 8.36106 13.1615 8.59999 12.8671 8.59999H10.7337C10.4393 8.59999 10.2004 8.36106 10.2004 8.06666V5.93333C10.2004 5.63893 10.4393 5.39999 10.7337 5.39999Z" fill="white"/>
<path d="M10.7337 10.2H12.8671C13.1615 10.2 13.4004 10.4389 13.4004 10.7333V12.8667C13.4004 13.1611 13.1615 13.4 12.8671 13.4H10.7337C10.4393 13.4 10.2004 13.1611 10.2004 12.8667V10.7333C10.2004 10.4389 10.4393 10.2 10.7337 10.2Z" fill="white"/>
<path d="M5.93368 0.600006H8.06701C8.36141 0.600006 8.60034 0.838939 8.60034 1.13334V3.26667C8.60034 3.56107 8.36141 3.80001 8.06701 3.80001H5.93368C5.63928 3.80001 5.40034 3.56107 5.40034 3.26667V1.13334C5.40034 0.838939 5.63928 0.600006 5.93368 0.600006Z" fill="white"/>
<path d="M5.93368 5.39999H8.06701C8.36141 5.39999 8.60034 5.63893 8.60034 5.93333V8.06666C8.60034 8.36106 8.36141 8.59999 8.06701 8.59999H5.93368C5.63928 8.59999 5.40034 8.36106 5.40034 8.06666V5.93333C5.40034 5.63893 5.63928 5.39999 5.93368 5.39999Z" fill="white"/>
<path d="M5.93368 10.2H8.06701C8.36141 10.2 8.60034 10.4389 8.60034 10.7333V12.8667C8.60034 13.1611 8.36141 13.4 8.06701 13.4H5.93368C5.63928 13.4 5.40034 13.1611 5.40034 12.8667V10.7333C5.40034 10.4389 5.63928 10.2 5.93368 10.2Z" fill="white"/>
<path d="M1.13375 0.600006H3.26708C3.56148 0.600006 3.80042 0.838939 3.80042 1.13334V3.26667C3.80042 3.56107 3.56148 3.80001 3.26708 3.80001H1.13375C0.839349 3.80001 0.600415 3.56107 0.600415 3.26667V1.13334C0.600415 0.838939 0.839349 0.600006 1.13375 0.600006Z" fill="white"/>
<path d="M1.13375 5.39999H3.26708C3.56148 5.39999 3.80042 5.63893 3.80042 5.93333V8.06666C3.80042 8.36106 3.56148 8.59999 3.26708 8.59999H1.13375C0.839349 8.59999 0.600415 8.36106 0.600415 8.06666V5.93333C0.600415 5.63893 0.839349 5.39999 1.13375 5.39999Z" fill="white"/>
<path d="M1.13375 10.2H3.26708C3.56148 10.2 3.80042 10.4389 3.80042 10.7333V12.8667C3.80042 13.1611 3.56148 13.4 3.26708 13.4H1.13375C0.839349 13.4 0.600415 13.1611 0.600415 12.8667V10.7333C0.600415 10.4389 0.839349 10.2 1.13375 10.2Z" fill="white"/>
</g>
<defs>
<clipPath id="clip0">
<rect width="12.8" height="12.8" fill="white" transform="matrix(-1 0 0 1 13.4004 0.600006)"/>
</clipPath>
</defs>
</svg>
