<svg width="421" height="250" viewBox="0 0 421 250" fill="none" xmlns="http://www.w3.org/2000/svg">
<g filter="url(#filter0_d)">
<mask id="mask0" mask-type="alpha" maskUnits="userSpaceOnUse" x="25" y="13" width="359" height="200">
<path d="M360.441 13H48.5594C35.5479 13 25 22.402 25 34V192C25 203.598 35.5479 213 48.5594 213H360.441C373.452 213 384 203.598 384 192V34C384 22.402 373.452 13 360.441 13Z" fill="white"/>
</mask>
<g mask="url(#mask0)">
<path d="M360.441 13H48.5594C35.5479 13 25 22.402 25 34V192C25 203.598 35.5479 213 48.5594 213H360.441C373.452 213 384 203.598 384 192V34C384 22.402 373.452 13 360.441 13Z" fill="url(#paint0_linear)"/>
<path style="mix-blend-mode:soft-light" opacity="0.5" fill-rule="evenodd" clip-rule="evenodd" d="M165.689 314.995L385.393 -28.7881L9.90497 205.174L165.689 314.995Z" fill="url(#paint1_linear)"/>
<path style="mix-blend-mode:soft-light" opacity="0.5" fill-rule="evenodd" clip-rule="evenodd" d="M225.4 227.843L412.592 73.6418C397.734 50.3783 382.852 31.3216 367.946 16.4716C353.039 1.62161 320.47 -17.6362 270.239 -41.3018L225.4 227.843Z" fill="url(#paint2_linear)"/>
<path style="mix-blend-mode:soft-light" opacity="0.5" fill-rule="evenodd" clip-rule="evenodd" d="M409.093 242.773L308.29 9.22906H28.417L409.093 242.773Z" fill="url(#paint3_linear)"/>
<path style="mix-blend-mode:multiply" opacity="0.5" fill-rule="evenodd" clip-rule="evenodd" d="M44.1709 221.121L384.226 25.6141V221.121H44.1709Z" fill="url(#paint4_linear)"/>
</g>
<path d="M65.141 83.8C66.5703 83.8 67.6903 84.1413 68.501 84.824C69.3117 85.5067 69.717 86.4453 69.717 87.64C69.717 88.8347 69.3117 89.7733 68.501 90.456C67.6903 91.128 66.5703 91.464 65.141 91.464H62.133V95H60.949V83.8H65.141ZM65.109 90.424C66.2183 90.424 67.0663 90.184 67.653 89.704C68.2397 89.2133 68.533 88.5253 68.533 87.64C68.533 86.7333 68.2397 86.04 67.653 85.56C67.0663 85.0693 66.2183 84.824 65.109 84.824H62.133V90.424H65.109ZM72.4974 83.128H73.6334V95H72.4974V83.128ZM80.0423 86.52C81.1409 86.52 81.9836 86.7973 82.5703 87.352C83.1569 87.896 83.4503 88.7067 83.4503 89.784V95H82.3623V93.688C82.1063 94.1253 81.7276 94.4667 81.2263 94.712C80.7356 94.9573 80.1489 95.08 79.4662 95.08C78.5276 95.08 77.7809 94.856 77.2262 94.408C76.6716 93.96 76.3942 93.368 76.3942 92.632C76.3942 91.9173 76.6502 91.3413 77.1622 90.904C77.6849 90.4667 78.5116 90.248 79.6423 90.248H82.3142V89.736C82.3142 89.0107 82.1116 88.4613 81.7063 88.088C81.3009 87.704 80.7089 87.512 79.9303 87.512C79.3969 87.512 78.8849 87.6027 78.3942 87.784C77.9036 87.9547 77.4822 88.1947 77.1302 88.504L76.6182 87.656C77.0449 87.2933 77.5569 87.016 78.1542 86.824C78.7516 86.6213 79.3809 86.52 80.0423 86.52ZM79.6423 94.184C80.2823 94.184 80.8316 94.04 81.2903 93.752C81.7489 93.4533 82.0903 93.0267 82.3142 92.472V91.096H79.6743C78.2342 91.096 77.5142 91.5973 77.5142 92.6C77.5142 93.0907 77.7009 93.48 78.0742 93.768C78.4476 94.0453 78.9702 94.184 79.6423 94.184ZM91.2718 94.488C91.0584 94.68 90.7918 94.8293 90.4718 94.936C90.1624 95.032 89.8371 95.08 89.4958 95.08C88.7064 95.08 88.0984 94.8667 87.6718 94.44C87.2451 94.0133 87.0318 93.4107 87.0318 92.632V87.544H85.5278V86.584H87.0318V84.744H88.1678V86.584H90.7278V87.544H88.1678V92.568C88.1678 93.0693 88.2904 93.4533 88.5358 93.72C88.7918 93.976 89.1544 94.104 89.6238 94.104C89.8584 94.104 90.0824 94.0667 90.2958 93.992C90.5198 93.9173 90.7118 93.8107 90.8718 93.672L91.2718 94.488ZM93.6437 86.584H94.7797V95H93.6437V86.584ZM94.2197 84.744C93.9851 84.744 93.7877 84.664 93.6277 84.504C93.4677 84.344 93.3877 84.152 93.3877 83.928C93.3877 83.7147 93.4677 83.528 93.6277 83.368C93.7877 83.208 93.9851 83.128 94.2197 83.128C94.4544 83.128 94.6517 83.208 94.8117 83.368C94.9717 83.5173 95.0517 83.6987 95.0517 83.912C95.0517 84.1467 94.9717 84.344 94.8117 84.504C94.6517 84.664 94.4544 84.744 94.2197 84.744ZM102.533 86.52C103.589 86.52 104.426 86.8293 105.045 87.448C105.674 88.056 105.989 88.9467 105.989 90.12V95H104.853V90.232C104.853 89.3573 104.634 88.6907 104.197 88.232C103.759 87.7733 103.135 87.544 102.325 87.544C101.418 87.544 100.698 87.816 100.165 88.36C99.642 88.8933 99.3806 89.6347 99.3806 90.584V95H98.2446V86.584H99.3326V88.136C99.642 87.624 100.069 87.2293 100.613 86.952C101.167 86.664 101.807 86.52 102.533 86.52ZM116.961 86.584V95H115.873V93.464C115.574 93.976 115.163 94.376 114.641 94.664C114.118 94.9413 113.521 95.08 112.849 95.08C111.75 95.08 110.881 94.776 110.241 94.168C109.611 93.5493 109.297 92.648 109.297 91.464V86.584H110.433V91.352C110.433 92.2373 110.651 92.9093 111.089 93.368C111.526 93.8267 112.15 94.056 112.961 94.056C113.846 94.056 114.545 93.7893 115.057 93.256C115.569 92.712 115.825 91.96 115.825 91V86.584H116.961ZM130.942 86.52C131.998 86.52 132.825 86.824 133.422 87.432C134.03 88.04 134.334 88.936 134.334 90.12V95H133.198V90.232C133.198 89.3573 132.985 88.6907 132.558 88.232C132.142 87.7733 131.55 87.544 130.782 87.544C129.908 87.544 129.22 87.816 128.718 88.36C128.217 88.8933 127.966 89.6347 127.966 90.584V95H126.83V90.232C126.83 89.3573 126.617 88.6907 126.19 88.232C125.774 87.7733 125.177 87.544 124.398 87.544C123.534 87.544 122.846 87.816 122.334 88.36C121.833 88.8933 121.582 89.6347 121.582 90.584V95H120.446V86.584H121.534V88.12C121.833 87.608 122.249 87.2133 122.782 86.936C123.316 86.6587 123.929 86.52 124.622 86.52C125.326 86.52 125.934 86.6693 126.446 86.968C126.969 87.2667 127.358 87.7093 127.614 88.296C127.924 87.7413 128.366 87.3093 128.942 87C129.529 86.68 130.196 86.52 130.942 86.52Z" fill="white"/>
<path d="M62.389 179.096C61.909 179.096 61.4663 178.984 61.061 178.76C60.6557 178.525 60.3357 178.205 60.101 177.8C59.877 177.395 59.765 176.941 59.765 176.44C59.765 175.939 59.877 175.491 60.101 175.096C60.3357 174.691 60.6503 174.376 61.045 174.152C61.4503 173.928 61.8983 173.816 62.389 173.816C62.8797 173.816 63.3277 173.928 63.733 174.152C64.1383 174.376 64.4583 174.691 64.693 175.096C64.9277 175.491 65.045 175.939 65.045 176.44C65.045 176.941 64.9277 177.395 64.693 177.8C64.4583 178.205 64.1383 178.525 63.733 178.76C63.3277 178.984 62.8797 179.096 62.389 179.096ZM74.3564 179.096C73.8764 179.096 73.4337 178.984 73.0284 178.76C72.623 178.525 72.303 178.205 72.0684 177.8C71.8444 177.395 71.7324 176.941 71.7324 176.44C71.7324 175.939 71.8444 175.491 72.0684 175.096C72.303 174.691 72.6177 174.376 73.0124 174.152C73.4177 173.928 73.8657 173.816 74.3564 173.816C74.847 173.816 75.295 173.928 75.7004 174.152C76.1057 174.376 76.4257 174.691 76.6604 175.096C76.895 175.491 77.0124 175.939 77.0124 176.44C77.0124 176.941 76.895 177.395 76.6604 177.8C76.4257 178.205 76.1057 178.525 75.7004 178.76C75.295 178.984 74.847 179.096 74.3564 179.096ZM86.3237 179.096C85.8437 179.096 85.4011 178.984 84.9957 178.76C84.5904 178.525 84.2704 178.205 84.0357 177.8C83.8117 177.395 83.6997 176.941 83.6997 176.44C83.6997 175.939 83.8117 175.491 84.0357 175.096C84.2704 174.691 84.5851 174.376 84.9797 174.152C85.3851 173.928 85.8331 173.816 86.3237 173.816C86.8144 173.816 87.2624 173.928 87.6677 174.152C88.0731 174.376 88.3931 174.691 88.6277 175.096C88.8624 175.491 88.9797 175.939 88.9797 176.44C88.9797 176.941 88.8624 177.395 88.6277 177.8C88.3931 178.205 88.0731 178.525 87.6677 178.76C87.2624 178.984 86.8144 179.096 86.3237 179.096ZM98.2911 179.096C97.8111 179.096 97.3685 178.984 96.9631 178.76C96.5578 178.525 96.2378 178.205 96.0031 177.8C95.7791 177.395 95.6671 176.941 95.6671 176.44C95.6671 175.939 95.7791 175.491 96.0031 175.096C96.2378 174.691 96.5525 174.376 96.9471 174.152C97.3525 173.928 97.8005 173.816 98.2911 173.816C98.7818 173.816 99.2298 173.928 99.6351 174.152C100.04 174.376 100.36 174.691 100.595 175.096C100.83 175.491 100.947 175.939 100.947 176.44C100.947 176.941 100.83 177.395 100.595 177.8C100.36 178.205 100.04 178.525 99.6351 178.76C99.2298 178.984 98.7818 179.096 98.2911 179.096Z" fill="white"/>
<path d="M121.3 182.128C119.988 182.128 118.985 181.637 118.292 180.656C117.609 179.675 117.268 178.245 117.268 176.368C117.268 174.491 117.609 173.061 118.292 172.08C118.985 171.088 119.988 170.592 121.3 170.592C122.612 170.592 123.609 171.083 124.292 172.064C124.985 173.045 125.332 174.475 125.332 176.352C125.332 178.24 124.985 179.675 124.292 180.656C123.609 181.637 122.612 182.128 121.3 182.128ZM121.3 180.8C122.121 180.8 122.724 180.443 123.108 179.728C123.492 179.013 123.684 177.888 123.684 176.352C123.684 174.827 123.492 173.712 123.108 173.008C122.724 172.293 122.121 171.936 121.3 171.936C120.479 171.936 119.876 172.293 119.492 173.008C119.108 173.712 118.916 174.827 118.916 176.352C118.916 177.877 119.108 179.003 119.492 179.728C119.876 180.443 120.479 180.8 121.3 180.8ZM136.366 180.64V182H128.974V180.768L132.862 176.512C133.363 175.968 133.726 175.472 133.95 175.024C134.174 174.576 134.286 174.133 134.286 173.696C134.286 173.12 134.12 172.683 133.79 172.384C133.459 172.085 132.984 171.936 132.366 171.936C131.31 171.936 130.264 172.347 129.23 173.168L128.654 171.952C129.102 171.536 129.667 171.205 130.35 170.96C131.032 170.715 131.72 170.592 132.414 170.592C133.491 170.592 134.344 170.864 134.974 171.408C135.603 171.941 135.918 172.667 135.918 173.584C135.918 174.235 135.774 174.853 135.486 175.44C135.208 176.027 134.739 176.683 134.078 177.408L131.054 180.64H136.366ZM147.448 180.64V182H140.856V180.64H143.32V172.688L141.352 173.888L140.648 172.656L143.784 170.72H144.968V180.64H147.448ZM158.753 180.64V182H151.361V180.768L155.249 176.512C155.751 175.968 156.113 175.472 156.337 175.024C156.561 174.576 156.673 174.133 156.673 173.696C156.673 173.12 156.508 172.683 156.177 172.384C155.847 172.085 155.372 171.936 154.753 171.936C153.697 171.936 152.652 172.347 151.617 173.168L151.041 171.952C151.489 171.536 152.055 171.205 152.737 170.96C153.42 170.715 154.108 170.592 154.801 170.592C155.879 170.592 156.732 170.864 157.361 171.408C157.991 171.941 158.305 172.667 158.305 173.584C158.305 174.235 158.161 174.853 157.873 175.44C157.596 176.027 157.127 176.683 156.465 177.408L153.441 180.64H158.753Z" fill="white"/>
<path fill-rule="evenodd" clip-rule="evenodd" d="M110.397 46.0109L109.559 50.9905C107.045 49.5672 101.323 49.2304 101.323 51.8514C101.323 52.8929 102.618 53.6091 104.178 54.4724C106.544 55.7817 109.522 57.4291 109.522 61.062C109.522 66.8665 103.473 69 99.4646 69C95.4559 69 92.8326 67.6901 92.8326 67.6901L93.7066 62.4848C96.1115 64.4688 103.4 65.0319 103.4 61.8863C103.4 60.5646 101.966 59.785 100.302 58.8811C98.0062 57.6336 95.2742 56.1491 95.2742 52.6756C95.2742 46.3099 102.198 45 105.113 45C107.81 45 110.397 46.0109 110.397 46.0109ZM124.605 68.6006H130L125.297 45.4143H120.573C118.392 45.4143 117.861 47.1422 117.861 47.1422L109.1 68.6006H115.223L116.448 65.1566H123.917L124.605 68.6006ZM118.141 60.399L121.228 51.7224L122.964 60.399H118.141ZM72.7942 61.3622L78.3952 45.4149H84.7181L75.371 68.6012H69.2497L64.1455 48.4583C60.8322 46.4128 58 45.8075 58 45.8075L58.1087 45.4149H67.3682C69.9161 45.4149 70.1551 47.5031 70.1551 47.5031L72.132 57.9294L72.1314 57.9281L72.7942 61.3622ZM83.3376 68.6006H89.2127L92.8851 45.4149H87.0095L83.3376 68.6006Z" fill="white"/>
</g>
<defs>
<filter id="filter0_d" x="-21" y="0" width="467" height="250" filterUnits="userSpaceOnUse" color-interpolation-filters="sRGB">
<feFlood flood-opacity="0" result="BackgroundImageFix"/>
<feColorMatrix in="SourceAlpha" type="matrix" values="0 0 0 0 0 0 0 0 0 0 0 0 0 0 0 0 0 0 127 0"/>
<feOffset dy="12"/>
<feGaussianBlur stdDeviation="12.5"/>
<feColorMatrix type="matrix" values="0 0 0 0 0.0604107 0 0 0 0 0.199302 0 0 0 0 0.419214 0 0 0 0.25 0"/>
<feBlend mode="normal" in2="BackgroundImageFix" result="effect1_dropShadow"/>
<feBlend mode="normal" in="SourceGraphic" in2="effect1_dropShadow" result="shape"/>
</filter>
<linearGradient id="paint0_linear" x1="384" y1="213" x2="260.091" y2="-61.9979" gradientUnits="userSpaceOnUse">
<stop stop-color="#1B40D1"/>
<stop offset="1" stop-color="#0B1A54"/>
</linearGradient>
<linearGradient id="paint1_linear" x1="-0.17536" y1="72.5889" x2="275.829" y2="321.223" gradientUnits="userSpaceOnUse">
<stop stop-color="#EEEEEE"/>
<stop offset="1" stop-color="#D8D8D8" stop-opacity="0"/>
</linearGradient>
<linearGradient id="paint2_linear" x1="220.374" y1="38.0656" x2="407.919" y2="145.647" gradientUnits="userSpaceOnUse">
<stop stop-color="#EEEEEE"/>
<stop offset="1" stop-color="#D8D8D8" stop-opacity="0"/>
</linearGradient>
<linearGradient id="paint3_linear" x1="18.1974" y1="78.0982" x2="198.757" y2="320.837" gradientUnits="userSpaceOnUse">
<stop stop-color="#EEEEEE"/>
<stop offset="1" stop-color="#D8D8D8" stop-opacity="0"/>
</linearGradient>
<linearGradient id="paint4_linear" x1="393.355" y1="83.2666" x2="245.282" y2="295.686" gradientUnits="userSpaceOnUse">
<stop stop-color="#EEEEEE"/>
<stop offset="1" stop-color="#D8D8D8" stop-opacity="0"/>
</linearGradient>
</defs>
</svg>
