<svg width="138" height="33" viewBox="0 0 138 33" fill="none" xmlns="http://www.w3.org/2000/svg">
<path d="M41.248 21H45.328C47.472 21 49.616 20.168 49.616 17.704C49.616 16.184 48.592 15.224 47.168 15.032V15C48.336 14.648 49.136 13.8 49.136 12.52C49.136 10.456 47.376 9.672 45.664 9.672H41.248V21ZM43.264 11.336H44.88C46.4 11.336 47.12 11.736 47.12 12.744C47.12 13.72 46.4 14.28 45.056 14.28H43.264V11.336ZM43.264 16.008H45.152C46.784 16.008 47.6 16.424 47.6 17.608C47.6 19.096 46.112 19.304 45.072 19.304H43.264V16.008ZM56.2794 21H58.0714V16.328C58.0714 14.792 57.3994 13.096 54.6474 13.096C53.4794 13.096 52.2634 13.512 51.3994 14.312L52.3914 15.48C52.8874 14.984 53.6714 14.6 54.4874 14.6C55.4474 14.6 56.2474 15.064 56.2474 16.008V16.2C53.8474 16.2 50.9674 16.52 50.9674 18.808C50.9674 20.6 52.6154 21.192 53.8474 21.192C54.9354 21.192 55.8474 20.696 56.2314 20.024H56.2794V21ZM56.2474 17.768C56.2474 18.984 55.5434 19.736 54.2314 19.736C53.5754 19.736 52.8874 19.512 52.8874 18.776C52.8874 17.64 54.5994 17.496 55.8154 17.496H56.2474V17.768ZM60.3083 21H62.2283V16.776C62.2283 15.752 62.8043 14.696 64.0203 14.696C65.2523 14.696 65.4603 15.832 65.4603 16.744V21H67.3802V16.2C67.3802 14.632 66.5483 13.096 64.5483 13.096C63.4123 13.096 62.5003 13.784 62.1643 14.552H62.1323V13.32H60.3083V21ZM69.6528 21H71.5728V17.064H71.6208L74.6608 21H77.2048L73.6688 16.792L76.9968 13.32H74.5328L71.6208 16.552H71.5728V8.904H69.6528V21ZM82.5483 14.856V18.44C82.5483 19.912 83.0123 21.16 85.0443 21.16C85.4763 21.16 85.9883 21.08 86.3243 20.952L86.2603 19.448C86.0363 19.56 85.7003 19.608 85.4443 19.608C84.5963 19.608 84.4363 19.112 84.4363 18.424V14.856H86.3563V13.32H84.4363V11.096H82.5483V13.32H81.2043V14.856H82.5483ZM87.7458 21H89.6658V16.888C89.6658 16.328 90.0018 14.824 91.7298 14.824C91.9058 14.824 92.0658 14.84 92.3218 14.904V13.144C92.1938 13.112 92.0018 13.096 91.8578 13.096C90.8498 13.096 90.0338 13.72 89.6178 14.6H89.5858V13.32H87.7458V21ZM98.1388 21H99.9308V16.328C99.9308 14.792 99.2588 13.096 96.5068 13.096C95.3388 13.096 94.1228 13.512 93.2588 14.312L94.2508 15.48C94.7468 14.984 95.5308 14.6 96.3468 14.6C97.3068 14.6 98.1068 15.064 98.1068 16.008V16.2C95.7068 16.2 92.8268 16.52 92.8268 18.808C92.8268 20.6 94.4748 21.192 95.7068 21.192C96.7948 21.192 97.7068 20.696 98.0908 20.024H98.1388V21ZM98.1068 17.768C98.1068 18.984 97.4028 19.736 96.0908 19.736C95.4348 19.736 94.7468 19.512 94.7468 18.776C94.7468 17.64 96.4588 17.496 97.6748 17.496H98.1068V17.768ZM102.168 21H104.088V16.776C104.088 15.752 104.664 14.696 105.88 14.696C107.112 14.696 107.32 15.832 107.32 16.744V21H109.24V16.2C109.24 14.632 108.408 13.096 106.408 13.096C105.272 13.096 104.36 13.784 104.024 14.552H103.992V13.32H102.168V21ZM116.936 14.264C116.312 13.48 115.16 13.096 114.056 13.096C112.536 13.096 111 13.832 111 15.544C111 16.984 112.136 17.448 113.272 17.72C114.44 17.992 115.032 18.184 115.032 18.824C115.032 19.512 114.36 19.736 113.8 19.736C112.968 19.736 112.248 19.32 111.832 18.776L110.568 19.96C111.304 20.776 112.536 21.224 113.72 21.224C115.4 21.224 116.92 20.536 116.92 18.664C116.92 17.16 115.576 16.648 114.44 16.376C113.368 16.12 112.776 15.96 112.776 15.368C112.776 14.76 113.4 14.536 114.008 14.536C114.712 14.536 115.352 14.92 115.688 15.368L116.936 14.264ZM118.894 21H120.814V14.856H122.59V13.32H120.814V12.072C120.814 11.304 121.006 10.344 122.11 10.344C122.382 10.344 122.638 10.392 122.846 10.456L122.974 8.824C122.686 8.744 122.414 8.712 121.998 8.712C119.614 8.712 118.894 10.344 118.894 12.184V13.32H117.438V14.856H118.894V21ZM125.249 16.392C125.329 15.32 126.241 14.536 127.377 14.536C128.625 14.536 129.185 15.4 129.185 16.392H125.249ZM131.105 17.256C131.105 14.488 129.537 13.096 127.393 13.096C125.073 13.096 123.329 14.728 123.329 17.208C123.329 19.704 125.089 21.224 127.457 21.224C128.913 21.224 130.001 20.712 130.753 19.688L129.473 18.664C129.041 19.272 128.401 19.656 127.441 19.656C126.321 19.656 125.329 18.856 125.249 17.768H131.089C131.105 17.592 131.105 17.432 131.105 17.256ZM132.965 21H134.885V16.888C134.885 16.328 135.221 14.824 136.949 14.824C137.125 14.824 137.285 14.84 137.541 14.904V13.144C137.413 13.112 137.221 13.096 137.077 13.096C136.069 13.096 135.253 13.72 134.837 14.6H134.805V13.32H132.965V21Z" fill="#4F4F4F"/>
<path d="M11.6137 0.672852L0.75 5.90354V8.62482H23.25V5.8891L11.6137 0.672852ZM21.75 7.12482H2.25V6.8461L11.6363 2.32679L21.75 6.86054V7.12482Z" fill="black"/>
<path d="M2.25 19.125H21.75V20.625H2.25V19.125Z" fill="black"/>
<path d="M0.75 21.75H23.25V23.25H0.75V21.75Z" fill="black"/>
<path d="M2.625 10.125H4.125V17.625H2.625V10.125Z" fill="black"/>
<path d="M19.875 10.125H21.375V17.625H19.875V10.125Z" fill="black"/>
<path d="M15.375 10.125H16.875V17.625H15.375V10.125Z" fill="black"/>
<path d="M7.125 10.125H8.625V17.625H7.125V10.125Z" fill="black"/>
<path d="M11.25 10.125H12.75V17.625H11.25V10.125Z" fill="black"/>
</svg>
