<svg width="133" height="34" viewBox="0 0 133 34" fill="none" xmlns="http://www.w3.org/2000/svg">
<path d="M56.248 22H60.264C63.224 22 66.52 20.304 66.52 16.336C66.52 12.08 63.224 10.672 60.264 10.672H56.248V22ZM58.264 20.24V12.4H59.944C62.024 12.4 64.36 13.088 64.36 16.336C64.36 19.392 62.024 20.24 59.944 20.24H58.264ZM69.8428 17.392C69.9228 16.32 70.8348 15.536 71.9708 15.536C73.2188 15.536 73.7788 16.4 73.7788 17.392H69.8428ZM75.6988 18.256C75.6988 15.488 74.1308 14.096 71.9868 14.096C69.6668 14.096 67.9228 15.728 67.9228 18.208C67.9228 20.704 69.6828 22.224 72.0508 22.224C73.5068 22.224 74.5948 21.712 75.3468 20.688L74.0668 19.664C73.6348 20.272 72.9948 20.656 72.0348 20.656C70.9148 20.656 69.9228 19.856 69.8428 18.768H75.6828C75.6988 18.592 75.6988 18.432 75.6988 18.256ZM77.5903 9.904V22H79.4143V20.848H79.4463C79.9743 21.728 81.0143 22.224 82.0863 22.224C84.4223 22.224 85.8623 20.368 85.8623 18.128C85.8623 15.856 84.3263 14.096 82.1343 14.096C80.7263 14.096 79.9583 14.8 79.5583 15.296H79.5103V9.904H77.5903ZM83.9103 18.128C83.9103 19.328 83.1903 20.624 81.7023 20.624C80.2943 20.624 79.4463 19.36 79.4463 18.16C79.4463 16.96 80.2943 15.664 81.7023 15.664C83.1903 15.664 83.9103 16.928 83.9103 18.128ZM87.7465 22H89.6665V14.32H87.7465V22ZM87.4745 11.712C87.4745 12.32 87.9865 12.864 88.6905 12.864C89.3945 12.864 89.9385 12.368 89.9385 11.712C89.9385 11.056 89.3945 10.56 88.6905 10.56C87.9865 10.56 87.4745 11.104 87.4745 11.712ZM92.2358 15.856V19.44C92.2358 20.912 92.6998 22.16 94.7318 22.16C95.1638 22.16 95.6758 22.08 96.0118 21.952L95.9478 20.448C95.7238 20.56 95.3878 20.608 95.1318 20.608C94.2838 20.608 94.1238 20.112 94.1238 19.424V15.856H96.0438V14.32H94.1238V12.096H92.2358V14.32H90.8918V15.856H92.2358ZM107.993 15.296C107.385 14.544 106.217 14.096 105.097 14.096C102.841 14.096 100.985 15.664 100.985 18.16C100.985 20.72 102.873 22.224 105.145 22.224C106.281 22.224 107.337 21.84 107.977 21.152L106.777 19.936C106.409 20.384 105.753 20.624 105.161 20.624C103.705 20.624 102.985 19.36 102.985 18.16C102.985 16.96 103.689 15.696 105.097 15.696C105.721 15.696 106.377 16.016 106.681 16.448L107.993 15.296ZM114.014 22H115.806V17.328C115.806 15.792 115.134 14.096 112.382 14.096C111.214 14.096 109.998 14.512 109.134 15.312L110.126 16.48C110.622 15.984 111.406 15.6 112.222 15.6C113.182 15.6 113.982 16.064 113.982 17.008V17.2C111.582 17.2 108.702 17.52 108.702 19.808C108.702 21.6 110.35 22.192 111.582 22.192C112.67 22.192 113.582 21.696 113.966 21.024H114.014V22ZM113.982 18.768C113.982 19.984 113.278 20.736 111.966 20.736C111.31 20.736 110.622 20.512 110.622 19.776C110.622 18.64 112.334 18.496 113.55 18.496H113.982V18.768ZM118.043 22H119.963V17.888C119.963 17.328 120.299 15.824 122.027 15.824C122.203 15.824 122.363 15.84 122.619 15.904V14.144C122.491 14.112 122.299 14.096 122.155 14.096C121.147 14.096 120.331 14.72 119.915 15.6H119.883V14.32H118.043V22ZM131.398 9.904H129.478V15.296H129.43C129.03 14.8 128.262 14.096 126.854 14.096C124.662 14.096 123.126 15.856 123.126 18.128C123.126 20.368 124.566 22.224 126.902 22.224C127.974 22.224 129.014 21.728 129.542 20.848H129.574V22H131.398V9.904ZM125.078 18.128C125.078 16.928 125.798 15.664 127.286 15.664C128.694 15.664 129.542 16.96 129.542 18.16C129.542 19.36 128.694 20.624 127.286 20.624C125.798 20.624 125.078 19.328 125.078 18.128Z" fill="#4F4F4F"/>
<g clipPath="url(#clip0)">
<path fill-rule="evenodd" clip-rule="evenodd" d="M27.3838 6.13588L11.5231 14.6469C11.1726 14.835 10.9111 15.1546 10.7962 15.5355C10.6814 15.9164 10.7225 16.3273 10.9106 16.6779L16.5846 27.2517C16.7727 27.6022 17.0924 27.8637 17.4733 27.9785C17.8542 28.0934 18.2651 28.0523 18.6156 27.8642L34.4763 19.3532C34.8269 19.165 35.0884 18.8454 35.2032 18.4645C35.3181 18.0836 35.2769 17.6727 35.0888 17.3222L29.4148 6.74836C29.2267 6.39781 28.9071 6.13635 28.5262 6.02149C28.1453 5.90662 27.7344 5.94777 27.3838 6.13588ZM10.8139 13.3252C10.1128 13.7014 9.58985 14.3407 9.36013 15.1024C9.13041 15.8642 9.2127 16.686 9.58891 17.3871L15.2629 27.9609C15.6391 28.662 16.2784 29.1849 17.0402 29.4147C17.802 29.6444 18.6238 29.5621 19.3249 29.1859L35.1856 20.6749C35.8867 20.2987 36.4096 19.6594 36.6393 18.8976C36.8691 18.1358 36.7868 17.314 36.4106 16.6129L30.7366 6.0391C30.3603 5.33802 29.721 4.81509 28.9593 4.58537C28.1975 4.35565 27.3757 4.43794 26.6746 4.81415L10.8139 13.3252Z" fill="black"/>
<path d="M25.192 11.5679C25.098 11.3926 25.0774 11.1871 25.1348 10.9967C25.1923 10.8063 25.323 10.6464 25.4983 10.5524L28.1417 9.13388C28.317 9.03983 28.5224 9.01926 28.7129 9.07669C28.9033 9.13412 29.0631 9.26485 29.1572 9.44012L29.8665 10.7619C29.9605 10.9371 29.9811 11.1426 29.9236 11.333C29.8662 11.5235 29.7355 11.6833 29.5602 11.7773L26.9168 13.1958C26.7415 13.2899 26.536 13.3105 26.3456 13.253C26.1551 13.1956 25.9953 13.0649 25.9013 12.8896L25.192 11.5679ZM14.4571 23.2864L32.9613 13.3569L34.3798 16.0004L15.8756 25.9299L14.4571 23.2864Z" fill="black"/>
</g>
<path fill-rule="evenodd" clip-rule="evenodd" d="M0 12C0 11.2044 0.316071 10.4413 0.87868 9.87868C1.44129 9.31607 2.20435 9 3 9H21C21.7956 9 22.5587 9.31607 23.1213 9.87868C23.6839 10.4413 24 11.2044 24 12V19.5H0V12ZM17.25 13.5C17.0511 13.5 16.8603 13.579 16.7197 13.7197C16.579 13.8603 16.5 14.0511 16.5 14.25V15.75C16.5 15.9489 16.579 16.1397 16.7197 16.2803C16.8603 16.421 17.0511 16.5 17.25 16.5H20.25C20.4489 16.5 20.6397 16.421 20.7803 16.2803C20.921 16.1397 21 15.9489 21 15.75V14.25C21 14.0511 20.921 13.8603 20.7803 13.7197C20.6397 13.579 20.4489 13.5 20.25 13.5H17.25Z" fill="black"/>
<path d="M0 22.5V24C0 24.7956 0.316071 25.5587 0.87868 26.1213C1.44129 26.6839 2.20435 27 3 27H21C21.7956 27 22.5587 26.6839 23.1213 26.1213C23.6839 25.5587 24 24.7956 24 24V22.5H0Z" fill="black"/>
<rect x="10" y="19.5" width="14" height="3" fill="#F5F5FB"/>
<defs>
<clipPath id="clip0">
<rect width="24" height="24" fill="white" transform="translate(6.75195 12.1001) rotate(-28.2184)"/>
</clipPath>
</defs>
</svg>
