<svg width="24" height="14" viewBox="0 0 24 14" fill="none" xmlns="http://www.w3.org/2000/svg">
<path d="M11.9639 13.0107C15.7534 9.76261 21.0767 6.60472 24 5.46788C23.5489 5.17915 22.8451 4.76412 22.0511 4.31299C18.2797 5.5581 13.8767 8.319 9.94287 11.4408C10.6105 11.9461 11.3143 12.4694 11.9639 13.0107Z" fill="#E31837"/>
<path d="M10.2317 4.18663C9.67225 3.91595 9.05871 3.66332 8.58954 3.44678C7.16398 4.15054 5.30534 5.2152 2.95947 6.89339C3.46474 7.16407 4.00609 7.48888 4.58353 7.81369C6.38804 6.47836 8.2106 5.2152 10.2317 4.18663Z" fill="#012169"/>
<path d="M13.6063 2.63478C12.9206 2.25583 10.5386 1.37162 8.8965 0.992676C8.40928 1.17313 7.72357 1.4438 7.25439 1.6423C7.84988 1.80471 10.0694 2.40019 11.9642 3.35659C12.4514 3.122 13.1371 2.83328 13.6063 2.63478Z" fill="#E31837"/>
<path d="M5.53985 2.3999C3.42857 3.37434 1.20902 4.70968 0 5.48562C0.433083 5.68411 0.866161 5.84652 1.46165 6.13524C4.13233 4.33073 6.22556 3.22998 7.05563 2.86908C6.46015 2.65253 5.90075 2.50817 5.53985 2.3999Z" fill="#012169"/>
<path d="M15.1941 2.07519C15.6813 1.91278 16.2407 1.76842 16.7279 1.62406C15.3204 1.02857 13.552 0.396992 11.964 0C11.7114 0.0721804 10.9535 0.270677 10.4302 0.433083C10.9715 0.595489 12.758 1.01053 15.1941 2.07519ZM6.29785 8.86015C6.8753 9.20301 7.48882 9.67218 8.08431 10.0692C12.0362 7.0015 15.9339 4.63759 20.2106 3.30226C19.6151 2.99549 19.0918 2.72481 18.4242 2.4C15.8618 3.04962 11.4768 4.8 6.29785 8.86015Z" fill="#E31837"/>
</svg>
