<svg width="14" height="14" viewBox="0 0 14 14" fill="none" xmlns="http://www.w3.org/2000/svg">
<path d="M6.33325 6.31999C6.33325 6.14318 6.40349 5.97361 6.52851 5.84858C6.65354 5.72356 6.82311 5.65332 6.99992 5.65332C7.17673 5.65332 7.3463 5.72356 7.47132 5.84858C7.59635 5.97361 7.66659 6.14318 7.66659 6.31999V10.32C7.66659 10.4968 7.59635 10.6664 7.47132 10.7914C7.3463 10.9164 7.17673 10.9867 6.99992 10.9867C6.82311 10.9867 6.65354 10.9164 6.52851 10.7914C6.40349 10.6664 6.33325 10.4968 6.33325 10.32V6.31999Z" fill="#828282"/>
<path d="M6.99992 3.03418C6.82311 3.03418 6.65354 3.10442 6.52851 3.22944C6.40349 3.35447 6.33325 3.52404 6.33325 3.70085C6.33325 3.87766 6.40349 4.04723 6.52851 4.17225C6.65354 4.29727 6.82311 4.36751 6.99992 4.36751C7.17673 4.36751 7.3463 4.29727 7.47132 4.17225C7.59635 4.04723 7.66659 3.87766 7.66659 3.70085C7.66659 3.52404 7.59635 3.35447 7.47132 3.22944C7.3463 3.10442 7.17673 3.03418 6.99992 3.03418Z" fill="#828282"/>
<path fill-rule="evenodd" clip-rule="evenodd" d="M6.99992 0.333496C3.31792 0.333496 0.333252 3.31816 0.333252 7.00016C0.333252 10.6822 3.31792 13.6668 6.99992 13.6668C10.6819 13.6668 13.6666 10.6822 13.6666 7.00016C13.6666 3.31816 10.6819 0.333496 6.99992 0.333496ZM1.66659 7.00016C1.66659 8.41465 2.22849 9.77121 3.22868 10.7714C4.22888 11.7716 5.58543 12.3335 6.99992 12.3335C8.41441 12.3335 9.77096 11.7716 10.7712 10.7714C11.7713 9.77121 12.3333 8.41465 12.3333 7.00016C12.3333 5.58567 11.7713 4.22912 10.7712 3.22893C9.77096 2.22873 8.41441 1.66683 6.99992 1.66683C5.58543 1.66683 4.22888 2.22873 3.22868 3.22893C2.22849 4.22912 1.66659 5.58567 1.66659 7.00016Z" fill="#828282"/>
</svg>
