<svg width="86" height="42" viewBox="0 0 86 42" fill="none" xmlns="http://www.w3.org/2000/svg">
<path d="M81.8597 16.7975C79.4521 15.5403 76.9253 14.5201 74.3498 13.7653C73.6835 13.5705 72.985 13.9519 72.7897 14.6182C72.5944 15.2845 72.9763 15.983 73.6426 16.1783C76.0607 16.887 78.4338 17.8451 80.696 19.0264C80.9463 19.157 81.18 19.3092 81.3994 19.4764C80.0267 19.4902 78.6768 19.5479 77.6302 19.7503C75.2905 20.2031 74.7993 21.3929 74.7993 22.3111C74.7993 24.8947 78.2787 27.1612 82.2452 27.1612C82.6041 27.1612 82.9586 27.1464 83.3094 27.1229V28.3013H76.8035C75.2866 26.0962 72.747 24.6468 69.8742 24.6468C67.0015 24.6468 64.4618 26.0962 62.9451 28.3013H26.851C25.3342 26.0962 22.7945 24.6468 19.9218 24.6468C17.049 24.6468 14.5094 26.0962 12.9927 28.3013H2.51453V25.3059H4.20753C4.90183 25.3059 5.46471 24.7432 5.46471 24.0487V23.1H8.34985C10.0551 23.1 11.4425 21.7127 11.4425 20.0075V18.9253C11.4425 18.2868 11.2487 17.6731 10.8823 17.1503L8.3227 13.4986H11.3634C11.793 13.4986 12.1931 13.279 12.424 12.9166C13.9926 10.4531 16.3428 8.19636 19.4092 6.20918C21.3273 4.96608 23.4011 4.03191 25.5747 3.41187C25.192 3.63162 24.8149 3.85976 24.4454 4.09929C22.0449 5.65535 20.0175 7.39193 18.4197 9.2606C17.7561 10.0369 17.5988 11.0979 18.0092 12.0299C18.4167 12.9552 19.2984 13.5511 20.3105 13.5853C20.3105 13.5853 60.7526 14.9516 60.7647 14.9518C60.7768 14.9518 60.7888 14.9508 60.8011 14.9504C60.8354 14.9496 60.8696 14.9482 60.9032 14.9447L60.9073 14.9446C63.2635 14.6866 65.6942 14.7122 68.1324 15.0208C68.822 15.1088 69.4503 14.6202 69.5375 13.9314C69.6246 13.2427 69.1368 12.6136 68.4479 12.5264C66.0132 12.2182 63.5819 12.1716 61.2122 12.3873C59.2288 10.5362 57.2887 8.75069 55.4393 7.07412C51.0076 3.05885 45.2823 0.67155 39.3182 0.352059L33.4661 0.038603C27.9317 -0.25675 22.5976 1.1471 18.0415 4.09946C14.908 6.13006 12.4374 8.44377 10.6882 10.9844C6.50699 11.0026 6.13504 10.9457 5.69335 11.0267C4.14232 11.2672 2.95018 12.6082 2.95018 14.2263V21.8284C2.95018 21.8332 2.94951 21.8381 2.94951 21.843C2.94951 21.8478 2.95018 21.8527 2.95018 21.8575V22.7917H1.7634C0.791018 22.7917 0 23.5821 0 24.5534V32.2459C0 33.0837 0.596239 33.8101 1.41391 33.9727L12.1026 36.1321C13.334 39.2477 16.3735 41.4586 19.9216 41.4586C23.2541 41.4586 26.1398 39.5093 27.4985 36.6913H32.1354C32.8297 36.6913 33.3925 36.1285 33.3925 35.4341C33.3925 34.7396 32.8297 34.1769 32.1354 34.1769H28.2502C28.2996 33.809 28.3274 33.4343 28.3274 33.053C28.3274 32.2784 28.22 31.5288 28.0229 30.816H61.773C61.5758 31.5288 61.4684 32.2784 61.4684 33.053C61.4684 33.4343 61.4964 33.809 61.5457 34.1769H38.0022C37.3079 34.1769 36.745 34.7396 36.745 35.4341C36.745 36.1285 37.3079 36.6913 38.0022 36.6913H62.2973C63.656 39.5095 66.5417 41.4586 69.8741 41.4586C73.2066 41.4586 76.0922 39.5093 77.451 36.6913H81.2812C83.786 36.6913 85.8238 34.6535 85.8238 32.1487V23.33C85.8236 20.5767 84.3046 18.0739 81.8597 16.7975ZM20.3103 11.0161C20.2818 10.9516 20.3138 10.9144 20.3308 10.8943C23.8616 6.76485 29.3773 3.40902 35.7227 2.677L38.345 2.81747C38.7629 4.36548 39.3278 8.0926 38.3379 11.6782L20.3955 11.0719C20.3666 11.0709 20.334 11.0699 20.3103 11.0161ZM57.4501 12.3241L40.9061 11.7651C41.6639 8.52524 41.417 5.18231 40.9737 3.02901C45.7097 3.65073 50.1921 5.71217 53.751 8.93675C54.9496 10.0235 56.1872 11.1569 57.4501 12.3241ZM8.92816 18.9251V20.0073C8.92816 20.3261 8.66884 20.5854 8.34985 20.5854H5.46471V14.226C5.46471 14.112 5.49337 14.0055 5.54014 13.9093L8.82339 18.5934C8.89178 18.691 8.92816 18.8058 8.92816 18.9251ZM2.51453 31.6295V30.8157H11.8207C11.582 31.6791 11.4843 32.5543 11.5262 33.4501L2.51453 31.6295ZM19.9218 38.9438C16.6734 38.9438 14.0305 36.3009 14.0305 33.0525C14.0305 29.8041 16.6734 27.1612 19.9218 27.1612C23.1703 27.1612 25.8133 29.8041 25.8133 33.0525C25.8133 36.3009 23.1703 38.9438 19.9218 38.9438ZM82.245 24.6466C79.4035 24.6466 77.5407 23.1903 77.333 22.4417C77.8535 22.1397 79.5034 21.9868 82.245 21.9868C82.5422 21.9868 82.8374 21.9973 83.1291 22.0165C83.2471 22.4374 83.3093 22.8782 83.3093 23.3295V24.6046C82.961 24.6324 82.6054 24.6466 82.245 24.6466ZM69.8741 38.9438C66.6257 38.9438 63.9827 36.3009 63.9827 33.0525C63.9827 29.8041 66.6257 27.1612 69.8741 27.1612C73.1226 27.1612 75.7655 29.8041 75.7655 33.0525C75.7655 36.3009 73.1226 38.9438 69.8741 38.9438ZM81.281 34.1764H78.2024C78.2519 33.8085 78.2797 33.4338 78.2797 33.0525C78.2797 32.2779 78.1723 31.5283 77.9752 30.8155H83.3093V32.1481C83.3093 33.2665 82.3994 34.1764 81.281 34.1764Z" fill="#1F2A53" fill-opacity="0.75"/>
<path d="M19.9212 28.9417C17.6546 28.9417 15.8105 30.7857 15.8105 33.0521C15.8105 35.3187 17.6546 37.1628 19.9212 37.1628C22.1878 37.1628 24.0318 35.3187 24.0318 33.0521C24.0318 30.7857 22.1878 28.9417 19.9212 28.9417ZM19.9212 34.6486C19.041 34.6486 18.3249 33.9325 18.3249 33.0523C18.3249 32.1721 19.041 31.4562 19.9212 31.4562C20.8014 31.4562 21.5175 32.1721 21.5175 33.0523C21.5175 33.9325 20.8014 34.6486 19.9212 34.6486Z" fill="#1F2A53" fill-opacity="0.75"/>
<path d="M69.8733 28.9417C67.6067 28.9417 65.7627 30.7857 65.7627 33.0521C65.7627 35.3187 67.6067 37.1628 69.8733 37.1628C72.14 37.1628 73.984 35.3187 73.984 33.0521C73.984 30.7857 72.14 28.9417 69.8733 28.9417ZM69.8733 34.6486C68.9931 34.6486 68.2771 33.9325 68.2771 33.0523C68.2771 32.1721 68.9931 31.4562 69.8733 31.4562C70.7535 31.4562 71.4696 32.1721 71.4696 33.0523C71.4696 33.9325 70.7535 34.6486 69.8733 34.6486Z" fill="#1F2A53" fill-opacity="0.75"/>
<path d="M42.9115 16.1504C42.2172 16.1504 41.6543 16.7131 41.6543 17.4076C41.6543 18.102 42.2172 18.6647 42.9115 18.6647H43.7831C44.4774 18.6647 45.0403 18.102 45.0403 17.4076C45.0403 16.7131 44.4774 16.1504 43.7831 16.1504H42.9115Z" fill="#1F2A53" fill-opacity="0.75"/>
<path d="M24.1224 16.1504C23.4281 16.1504 22.8652 16.7131 22.8652 17.4076C22.8652 18.102 23.4281 18.6647 24.1224 18.6647H24.9941C25.6884 18.6647 26.2512 18.102 26.2512 17.4076C26.2512 16.7131 25.6884 16.1504 24.9941 16.1504H24.1224Z" fill="#1F2A53" fill-opacity="0.75"/>
</svg>
