<svg width="78" height="38" viewBox="0 0 78 38" fill="none" xmlns="http://www.w3.org/2000/svg">
<path d="M73.9617 15.1768C71.7864 14.0409 69.5034 13.1192 67.1764 12.4372C66.5744 12.2612 65.9433 12.6058 65.7668 13.2078C65.5904 13.8098 65.9354 14.4409 66.5374 14.6174C68.7222 15.2577 70.8663 16.1234 72.9103 17.1907C73.1365 17.3087 73.3476 17.4462 73.5458 17.5973C72.3056 17.6097 71.0859 17.6618 70.1403 17.8448C68.0263 18.2539 67.5826 19.3289 67.5826 20.1585C67.5826 22.4928 70.7263 24.5406 74.31 24.5406C74.6343 24.5406 74.9546 24.5273 75.2716 24.5061V25.5708H69.3933C68.0228 23.5784 65.7282 22.2688 63.1326 22.2688C60.5371 22.2688 58.2424 23.5784 56.8721 25.5708H24.2604C22.8899 23.5784 20.5953 22.2688 17.9997 22.2688C15.4041 22.2688 13.1095 23.5784 11.7391 25.5708H2.27192V22.8643H3.80158C4.42889 22.8643 4.93746 22.3559 4.93746 21.7285V20.8712H7.54424C9.08496 20.8712 10.3385 19.6178 10.3385 18.0771V17.0994C10.3385 16.5225 10.1634 15.968 9.83237 15.4956L7.51971 12.1963H10.267C10.6552 12.1963 11.0167 11.9979 11.2253 11.6704C12.6425 9.44455 14.766 7.40556 17.5365 5.6101C19.2696 4.48694 21.1434 3.6429 23.1072 3.08268C22.7615 3.28124 22.4207 3.48736 22.0869 3.70379C19.918 5.10971 18.0862 6.67874 16.6425 8.36712C16.0429 9.06849 15.9009 10.0272 16.2716 10.8693C16.6398 11.7053 17.4364 12.2437 18.3509 12.2746C18.3509 12.2746 54.8911 13.509 54.902 13.5092C54.9129 13.5092 54.9238 13.5083 54.9349 13.508C54.9659 13.5072 54.9968 13.506 55.0271 13.5028L55.0309 13.5027C57.1597 13.2696 59.3559 13.2928 61.5589 13.5716C62.182 13.6511 62.7496 13.2096 62.8284 12.5873C62.9071 11.965 62.4664 11.3966 61.8439 11.3178C59.6441 11.0393 57.4475 10.9972 55.3064 11.1921C53.5143 9.51967 51.7614 7.90641 50.0904 6.39159C46.0863 2.76373 40.9134 0.606758 35.5247 0.318092L30.2373 0.0348785C25.2368 -0.231979 20.4173 1.03643 16.3009 3.70394C13.4696 5.53862 11.2374 7.6291 9.65699 9.92465C5.87919 9.94101 5.54312 9.88966 5.14404 9.96281C3.74267 10.1801 2.66554 11.3918 2.66554 12.8537V19.7223C2.66554 19.7267 2.66494 19.7311 2.66494 19.7355C2.66494 19.7399 2.66554 19.7443 2.66554 19.7487V20.5927H1.59327C0.714699 20.5927 0 21.3068 0 22.1845V29.1347C0 29.8917 0.538712 30.5481 1.27749 30.695L10.9349 32.646C12.0475 35.461 14.7938 37.4586 17.9995 37.4586C21.0105 37.4586 23.6178 35.6974 24.8454 33.1512H29.0349C29.6622 33.1512 30.1708 32.6428 30.1708 32.0153C30.1708 31.3879 29.6622 30.8794 29.0349 30.8794H25.5245C25.5692 30.547 25.5944 30.2085 25.5944 29.864C25.5944 29.1641 25.4973 28.4868 25.3192 27.8429H55.813C55.6349 28.4868 55.5378 29.1641 55.5378 29.864C55.5378 30.2085 55.5631 30.547 55.6076 30.8794H34.3357C33.7084 30.8794 33.1998 31.3879 33.1998 32.0153C33.1998 32.6428 33.7084 33.1512 34.3357 33.1512H56.2867C57.5144 35.6976 60.1216 37.4586 63.1325 37.4586C66.1435 37.4586 68.7507 35.6974 69.9784 33.1512H73.439C75.7022 33.1512 77.5434 31.31 77.5434 29.0469V21.079C77.5432 18.5914 76.1708 16.3301 73.9617 15.1768ZM18.3507 9.95327C18.325 9.89496 18.3539 9.86134 18.3692 9.84317C21.5594 6.11216 26.5429 3.08011 32.2761 2.41872L34.6454 2.54564C35.023 3.94429 35.5334 7.31181 34.639 10.5515L18.4277 10.0037C18.4016 10.0028 18.3721 10.0019 18.3507 9.95327ZM51.9072 11.135L36.9594 10.63C37.6441 7.70271 37.421 4.68231 37.0205 2.73677C41.2996 3.2985 45.3495 5.16105 48.565 8.07452C49.648 9.05638 50.7662 10.0805 51.9072 11.135ZM8.06675 17.0992V18.077C8.06675 18.365 7.83246 18.5993 7.54424 18.5993H4.93746V12.8534C4.93746 12.7504 4.96336 12.6543 5.00562 12.5673L7.97209 16.7995C8.03389 16.8876 8.06675 16.9914 8.06675 17.0992ZM2.27192 28.5778V27.8425H10.6802C10.4645 28.6227 10.3762 29.4134 10.4141 30.2228L2.27192 28.5778ZM17.9997 35.1864C15.0647 35.1864 12.6768 32.7985 12.6768 29.8635C12.6768 26.9285 15.0647 24.5406 17.9997 24.5406C20.9348 24.5406 23.3227 26.9285 23.3227 29.8635C23.3227 32.7985 20.9348 35.1864 17.9997 35.1864ZM74.3099 22.2687C71.7425 22.2687 70.0594 20.9529 69.8718 20.2765C70.342 20.0036 71.8328 19.8655 74.3099 19.8655C74.5784 19.8655 74.8451 19.875 75.1086 19.8923C75.2153 20.2726 75.2715 20.6709 75.2715 21.0786V22.2307C74.9567 22.2558 74.6355 22.2687 74.3099 22.2687ZM63.1325 35.1864C60.1975 35.1864 57.8096 32.7985 57.8096 29.8635C57.8096 26.9285 60.1975 24.5406 63.1325 24.5406C66.0676 24.5406 68.4555 26.9285 68.4555 29.8635C68.4555 32.7985 66.0676 35.1864 63.1325 35.1864ZM73.4389 30.879H70.6573C70.702 30.5466 70.7272 30.2081 70.7272 29.8635C70.7272 29.1637 70.6301 28.4864 70.452 27.8424H75.2715V29.0464C75.2715 30.0569 74.4494 30.879 73.4389 30.879Z" fill="#1F2A53" fill-opacity="0.75"/>
<path d="M17.9997 26.1494C15.9518 26.1494 14.2856 27.8155 14.2856 29.8633C14.2856 31.9112 15.9518 33.5773 17.9997 33.5773C20.0476 33.5773 21.7137 31.9112 21.7137 29.8633C21.7137 27.8155 20.0476 26.1494 17.9997 26.1494ZM17.9997 31.3057C17.2044 31.3057 16.5574 30.6587 16.5574 29.8635C16.5574 29.0682 17.2044 28.4213 17.9997 28.4213C18.795 28.4213 19.442 29.0682 19.442 29.8635C19.442 30.6587 18.795 31.3057 17.9997 31.3057Z" fill="#1F2A53" fill-opacity="0.75"/>
<path d="M63.132 26.1494C61.0841 26.1494 59.418 27.8155 59.418 29.8633C59.418 31.9112 61.0841 33.5773 63.132 33.5773C65.1799 33.5773 66.8461 31.9112 66.8461 29.8633C66.8461 27.8155 65.1799 26.1494 63.132 26.1494ZM63.132 31.3057C62.3367 31.3057 61.6897 30.6587 61.6897 29.8635C61.6897 29.0682 62.3367 28.4213 63.132 28.4213C63.9273 28.4213 64.5743 29.0682 64.5743 29.8635C64.5743 30.6587 63.9273 31.3057 63.132 31.3057Z" fill="#1F2A53" fill-opacity="0.75"/>
<path d="M38.7716 14.5923C38.1443 14.5923 37.6357 15.1007 37.6357 15.7282C37.6357 16.3556 38.1443 16.8641 38.7716 16.8641H39.5592C40.1865 16.8641 40.6951 16.3556 40.6951 15.7282C40.6951 15.1007 40.1865 14.5923 39.5592 14.5923H38.7716Z" fill="#1F2A53" fill-opacity="0.75"/>
<path d="M21.7946 14.5923C21.1673 14.5923 20.6587 15.1007 20.6587 15.7282C20.6587 16.3556 21.1673 16.8641 21.7946 16.8641H22.5821C23.2094 16.8641 23.718 16.3556 23.718 15.7282C23.718 15.1007 23.2094 14.5923 22.5821 14.5923H21.7946Z" fill="#1F2A53" fill-opacity="0.75"/>
</svg>
