<svg width="12" height="12" viewBox="0 0 12 12" fill="none" xmlns="http://www.w3.org/2000/svg">
<path d="M12 3.82031V3.1875C12 2.46263 11.4124 1.875 10.6875 1.875H1.3125C0.587625 1.875 0 2.46263 0 3.1875V3.82031C0 3.88502 0.0524766 3.9375 0.117188 3.9375H11.8828C11.9475 3.9375 12 3.88502 12 3.82031Z" fill="#0D101B"/>
<path d="M0 4.80469V8.8125C0 9.53737 0.587625 10.125 1.3125 10.125H10.6875C11.4124 10.125 12 9.53737 12 8.8125V4.80469C12 4.73998 11.9475 4.6875 11.8828 4.6875H0.117188C0.0524766 4.6875 0 4.73998 0 4.80469ZM3 7.875C3 8.08209 2.83209 8.25 2.625 8.25H2.25C2.04291 8.25 1.875 8.08209 1.875 7.875V7.5C1.875 7.29291 2.04291 7.125 2.25 7.125H2.625C2.83209 7.125 3 7.29291 3 7.5V7.875Z" fill="#0D101B"/>
</svg>
