<svg width="10" height="12" viewBox="0 0 10 12" fill="none" xmlns="http://www.w3.org/2000/svg">
<path d="M8.375 4.49999H8V2.99999C8 1.34549 6.6545 -7.62939e-06 5 -7.62939e-06C3.3455 -7.62939e-06 2 1.34549 2 2.99999V4.49999H1.625C1.005 4.49999 0.5 5.00449 0.5 5.62499V10.875C0.5 11.4955 1.005 12 1.625 12H8.375C8.995 12 9.5 11.4955 9.5 10.875V5.62499C9.5 5.00449 8.995 4.49999 8.375 4.49999ZM3 2.99999C3 1.89699 3.897 0.999992 5 0.999992C6.103 0.999992 7 1.89699 7 2.99999V4.49999H3V2.99999ZM5.5 8.36099V9.49999C5.5 9.77599 5.2765 9.99999 5 9.99999C4.7235 9.99999 4.5 9.77599 4.5 9.49999V8.36099C4.2025 8.18749 4 7.86849 4 7.49999C4 6.94849 4.4485 6.49999 5 6.49999C5.5515 6.49999 6 6.94849 6 7.49999C6 7.86849 5.7975 8.18749 5.5 8.36099Z" fill="#0D101B"/>
</svg>
