<svg width="12" height="12" viewBox="0 0 12 12" fill="none" xmlns="http://www.w3.org/2000/svg">
<g clipPath="url(#clip0)">
<path d="M5.91376 5.78043C6.70789 5.78043 7.39554 5.49561 7.9574 4.93367C8.51926 4.37181 8.80408 3.68434 8.80408 2.89013C8.80408 2.09618 8.51926 1.40862 7.95731 0.846585C7.39536 0.284819 6.70779 0 5.91376 0C5.11954 0 4.43207 0.284819 3.87021 0.846676C3.30835 1.40853 3.02344 2.09609 3.02344 2.89013C3.02344 3.68434 3.30835 4.3719 3.8703 4.93376C4.43225 5.49552 5.11981 5.78043 5.91376 5.78043Z" fill="#0D101B"/>
<path d="M10.9718 9.22739C10.9556 8.99356 10.9228 8.7385 10.8745 8.46915C10.8258 8.19779 10.7631 7.94126 10.688 7.70679C10.6105 7.46445 10.505 7.22514 10.3747 6.9958C10.2393 6.75776 10.0804 6.55049 9.90207 6.37993C9.71558 6.20149 9.48724 6.05803 9.22321 5.95338C8.96008 5.84929 8.66849 5.79655 8.35657 5.79655C8.23407 5.79655 8.1156 5.84682 7.88681 5.99577C7.746 6.0876 7.5813 6.1938 7.39746 6.31126C7.24026 6.41142 7.02731 6.50526 6.76428 6.59022C6.50766 6.67326 6.2471 6.71537 5.98993 6.71537C5.73276 6.71537 5.47229 6.67326 5.21539 6.59022C4.95264 6.50535 4.73969 6.41151 4.58267 6.31135C4.40057 6.19499 4.23578 6.08879 4.09286 5.99568C3.86435 5.84673 3.74579 5.79646 3.62329 5.79646C3.31128 5.79646 3.01978 5.84929 2.75674 5.95348C2.49289 6.05794 2.26447 6.2014 2.07779 6.38002C1.89954 6.55067 1.74051 6.75785 1.60538 6.9958C1.4751 7.22514 1.36963 7.46436 1.29199 7.70688C1.21701 7.94135 1.1543 8.19779 1.10559 8.46915C1.05734 8.73813 1.02457 8.99329 1.00836 9.22766C0.992432 9.45727 0.984375 9.69558 0.984375 9.93627C0.984375 10.5627 1.1835 11.0698 1.57617 11.4438C1.96399 11.8128 2.47714 12 3.10117 12H8.87924C9.50327 12 10.0162 11.8129 10.4041 11.4438C10.7969 11.0701 10.996 10.5629 10.996 9.93618C10.9959 9.69439 10.9878 9.4559 10.9718 9.22739Z" fill="#0D101B"/>
</g>
<defs>
<clipPath id="clip0">
<rect width="12" height="12" fill="white"/>
</clipPath>
</defs>
</svg>
