<svg width="14" height="10" viewBox="0 0 14 10" fill="none" xmlns="http://www.w3.org/2000/svg">
<path d="M12.9611 9.66495H4.40198C4.04922 9.66495 3.76331 9.37904 3.76331 9.02628C3.76331 8.67352 4.04922 8.3876 4.40198 8.3876H12.9609C13.3136 8.3876 13.5995 8.67352 13.5995 9.02628C13.5995 9.37904 13.3138 9.66495 12.9611 9.66495Z" fill="#0D101B" fill-opacity="0.25"/>
<path d="M12.9611 5.65598H4.40198C4.04922 5.65598 3.76331 5.37007 3.76331 5.01731C3.76331 4.66454 4.04922 4.37863 4.40198 4.37863H12.9609C13.3136 4.37863 13.5995 4.66454 13.5995 5.01731C13.5997 5.37007 13.3138 5.65598 12.9611 5.65598Z" fill="#0D101B" fill-opacity="0.25"/>
<path d="M12.9611 1.64704H4.40198C4.04922 1.64704 3.76331 1.36113 3.76331 1.00836C3.76331 0.655603 4.04922 0.36969 4.40198 0.36969H12.9609C13.3136 0.36969 13.5995 0.655603 13.5995 1.00836C13.5995 1.36113 13.3138 1.64704 12.9611 1.64704Z" fill="#0D101B" fill-opacity="0.25"/>
<path d="M1.65754 1.91549C2.13126 1.91549 2.51528 1.53147 2.51528 1.05775C2.51528 0.584035 2.13126 0.200012 1.65754 0.200012C1.18383 0.200012 0.799805 0.584035 0.799805 1.05775C0.799805 1.53147 1.18383 1.91549 1.65754 1.91549Z" fill="#0D101B" fill-opacity="0.25"/>
<path d="M1.65779 5.87506C2.13151 5.87506 2.51553 5.49103 2.51553 5.01732C2.51553 4.5436 2.13151 4.15958 1.65779 4.15958C1.18407 4.15958 0.800049 4.5436 0.800049 5.01732C0.800049 5.49103 1.18407 5.87506 1.65779 5.87506Z" fill="#0D101B" fill-opacity="0.25"/>
<path d="M1.65779 9.83459C2.13151 9.83459 2.51553 9.45057 2.51553 8.97685C2.51553 8.50313 2.13151 8.11911 1.65779 8.11911C1.18407 8.11911 0.800049 8.50313 0.800049 8.97685C0.800049 9.45057 1.18407 9.83459 1.65779 9.83459Z" fill="#0D101B" fill-opacity="0.25"/>
</svg>
