<svg width="82" height="82" viewBox="0 0 82 82" fill="none" xmlns="http://www.w3.org/2000/svg">
<g clip-path="url(#clip0)">
<path d="M32.1917 67.8858C29.209 67.8858 26.3766 66.4644 24.5965 64.0113L17.6812 54.5061L21.8051 53.8467C33.6438 51.9436 46.0087 52.7123 58.5513 56.1256L61.3256 56.8807L58.9442 62.8393C58.483 63.9942 57.4307 64.8073 56.1938 64.9611L33.3637 67.814C32.9707 67.8618 32.5778 67.8858 32.1917 67.8858Z" fill="#CFD8DC"/>
<path d="M78.6338 63.7516C72.8016 60.9328 67.0206 58.6915 61.2874 56.9661L58.9402 62.8393C58.4789 63.9942 57.4266 64.8073 56.1897 64.9611L33.3596 67.814C32.9667 67.8652 32.5772 67.8857 32.1877 67.8857C29.2049 67.8857 26.3725 66.4644 24.5924 64.0112L17.7557 54.612C13.0372 55.5994 8.37349 56.99 3.77465 58.8145C0.996904 59.9147 -0.54743 62.9521 0.18032 65.8767L2.20982 74.0426C2.87607 76.7178 5.26432 78.5833 8.01474 78.5833H74.6329C77.0861 78.5833 79.2625 77.1107 80.1816 74.8352L81.5722 71.3844C82.7441 68.4632 81.456 65.108 78.6338 63.7516Z" fill="#1F2A53" fill-opacity="0.75"/>
<path d="M17.0833 82C13.3147 82 10.25 78.9352 10.25 75.1667C10.25 71.3981 13.3147 68.3333 17.0833 68.3333C20.8519 68.3333 23.9167 71.3981 23.9167 75.1667C23.9167 78.9352 20.8519 82 17.0833 82Z" fill="#90A4AE"/>
<path d="M64.8328 82C61.0643 82 57.9995 78.9352 57.9995 75.1667C57.9995 71.3981 61.0643 68.3333 64.8328 68.3333C68.6014 68.3333 71.6662 71.3981 71.6662 75.1667C71.6662 78.9352 68.6014 82 64.8328 82Z" fill="#90A4AE"/>
<path d="M65 79.75C62.3806 79.75 60.25 77.6194 60.25 75C60.25 72.3806 62.3806 70.25 65 70.25C67.6194 70.25 69.75 72.3806 69.75 75C69.75 77.6194 67.6194 79.75 65 79.75Z" fill="#90A4AE"/>
<path d="M65 79.75C62.3806 79.75 60.25 77.6194 60.25 75C60.25 72.3806 62.3806 70.25 65 70.25C67.6194 70.25 69.75 72.3806 69.75 75C69.75 77.6194 67.6194 79.75 65 79.75Z" stroke="white" stroke-width="0.5"/>
<path d="M65 79.75C62.3806 79.75 60.25 77.6194 60.25 75C60.25 72.3806 62.3806 70.25 65 70.25C67.6194 70.25 69.75 72.3806 69.75 75C69.75 77.6194 67.6194 79.75 65 79.75Z" stroke="white" stroke-width="0.5"/>
<path d="M34.662 52.8285C30.3194 52.8285 26.0281 53.1667 21.8051 53.8467L17.6812 54.5061L17.7597 54.612L24.5965 64.0112C26.3766 66.4644 29.2124 67.8857 32.1917 67.8857C32.5778 67.8857 32.9707 67.8618 33.3637 67.814L39.5034 67.0452V52.9686C37.8805 52.8763 36.2678 52.8285 34.662 52.8285Z" fill="#B4BCC0"/>
<path d="M17.7605 54.612C13.0421 55.5994 8.37837 56.99 3.77954 58.8145C1.00179 59.9147 -0.542547 62.9521 0.185203 65.8767L2.2147 74.0426C2.87754 76.7178 5.26579 78.5833 8.0162 78.5833H11.1698C10.5855 77.5788 10.2507 76.4103 10.2507 75.1667C10.2507 71.3981 13.3155 68.3333 17.084 68.3333C20.8526 68.3333 23.9174 71.3981 23.9174 75.1667C23.9174 76.4103 23.5825 77.5788 23.0017 78.5833H39.5042V67.0452L33.3645 67.814C32.9715 67.8652 32.582 67.8857 32.1925 67.8857C29.2098 67.8857 26.3774 66.4644 24.5973 64.0112L17.7605 54.612Z" fill="#1F2A53"/>
<path d="M17.0833 68.3333C13.3147 68.3333 10.25 71.3981 10.25 75.1667C10.25 76.4103 10.5848 77.5788 11.1657 78.5833C12.3512 80.6231 14.5584 82 17.0833 82C19.6082 82 21.8154 80.6231 23.001 78.5833C23.5818 77.5788 23.9167 76.4103 23.9167 75.1667C23.9167 71.3981 20.8519 68.3333 17.0833 68.3333Z" fill="#7D8F97"/>
<path d="M64.9168 0C55.4971 0 47.8335 7.76267 47.8335 17.2986C47.8335 30.463 62.6208 43.2652 63.2495 43.8051C64.213 44.6251 65.6207 44.6251 66.5876 43.8051C67.2128 43.2618 82.0002 30.4596 82.0002 17.2952C82.0002 7.75925 74.3366 0 64.9168 0V0Z" fill="#F44336"/>
<path d="M64.9168 23.9167C61.1482 23.9167 58.0835 20.8553 58.0835 17.0833C58.0835 13.3147 61.1482 10.25 64.9168 10.25C68.6888 10.25 71.7502 13.3113 71.7502 17.0833C71.7502 20.8553 68.6888 23.9167 64.9168 23.9167Z" fill="white"/>
<path d="M64.9168 0C55.4971 0 47.8335 7.76267 47.8335 17.2986C47.8335 30.463 62.6208 43.2652 63.2495 43.8051C63.7312 44.2117 64.3223 44.4167 64.9168 44.4167V23.9167C61.1482 23.9167 58.0835 20.8553 58.0835 17.0833C58.0835 13.3147 61.1482 10.25 64.9168 10.25V0Z" fill="#D43A2F"/>
<path d="M64.9168 10.25C61.1482 10.25 58.0835 13.3113 58.0835 17.0833C58.0835 20.8553 61.1482 23.9167 64.9168 23.9167V10.25Z" fill="#DEDEDE"/>
<path d="M17 79.75C14.3806 79.75 12.25 77.6194 12.25 75C12.25 72.3806 14.3806 70.25 17 70.25C19.6194 70.25 21.75 72.3806 21.75 75C21.75 77.6194 19.6194 79.75 17 79.75Z" fill="#90A4AE"/>
<path d="M17 79.75C14.3806 79.75 12.25 77.6194 12.25 75C12.25 72.3806 14.3806 70.25 17 70.25C19.6194 70.25 21.75 72.3806 21.75 75C21.75 77.6194 19.6194 79.75 17 79.75Z" stroke="white" stroke-width="0.5"/>
<path d="M17 79.75C14.3806 79.75 12.25 77.6194 12.25 75C12.25 72.3806 14.3806 70.25 17 70.25C19.6194 70.25 21.75 72.3806 21.75 75C21.75 77.6194 19.6194 79.75 17 79.75Z" stroke="white" stroke-width="0.5"/>
</g>
<defs>
<clipPath id="clip0">
<rect width="82" height="82" fill="white"/>
</clipPath>
</defs>
</svg>
