<svg width="24" height="18" viewBox="0 0 24 18" fill="none" xmlns="http://www.w3.org/2000/svg">
<g clipPath="url(#clip0)">
<path d="M4.2095 17.9107V16.7194C4.2095 16.2626 3.93145 15.9648 3.45485 15.9648C3.2166 15.9648 2.95845 16.0443 2.77972 16.3024C2.64078 16.084 2.44224 15.9648 2.14438 15.9648C1.94575 15.9648 1.7473 16.0244 1.58837 16.2428V16.0046H1.17139V17.9107H1.58837V16.8583C1.58837 16.5209 1.76711 16.3619 2.04516 16.3619C2.32302 16.3619 2.46214 16.5407 2.46214 16.8583V17.9107H2.87913V16.8583C2.87913 16.5209 3.07758 16.3619 3.33573 16.3619C3.61378 16.3619 3.75271 16.5407 3.75271 16.8583V17.9107H4.2095ZM10.3848 16.0046H9.70972V15.4287H9.29273V16.0046H8.91546V16.3817H9.29264V17.2555C9.29264 17.6924 9.47138 17.9505 9.94797 17.9505C10.1267 17.9505 10.3252 17.8909 10.4643 17.8115L10.3451 17.4541C10.2259 17.5335 10.087 17.5534 9.98768 17.5534C9.78913 17.5534 9.70972 17.4342 9.70972 17.2356V16.3817H10.3848V16.0046ZM13.9193 15.9648C13.681 15.9648 13.5222 16.084 13.4229 16.2428V16.0046H13.0059V17.9107H13.4229V16.8385C13.4229 16.5209 13.5618 16.3421 13.82 16.3421C13.8994 16.3421 13.9987 16.362 14.0781 16.3818L14.1972 15.9847C14.1178 15.9648 13.9987 15.9648 13.9193 15.9648V15.9648ZM8.57789 16.1634C8.37926 16.0244 8.1013 15.9648 7.80344 15.9648C7.32693 15.9648 7.00927 16.2031 7.00927 16.5804C7.00927 16.8981 7.24752 17.0768 7.6645 17.1364L7.86304 17.1563C8.08149 17.1959 8.20061 17.2555 8.20061 17.3548C8.20061 17.4938 8.04178 17.5931 7.76373 17.5931C7.48577 17.5931 7.26733 17.4938 7.1283 17.3945L6.92976 17.7122C7.1482 17.871 7.44606 17.9505 7.74383 17.9505C8.29984 17.9505 8.6176 17.6924 8.6176 17.3349C8.6176 16.9974 8.35945 16.8186 7.96227 16.7591L7.76373 16.7392C7.585 16.7193 7.44606 16.6797 7.44606 16.5606C7.44606 16.4215 7.58499 16.3421 7.80344 16.3421C8.04178 16.3421 8.28003 16.4413 8.39916 16.501L8.57789 16.1634ZM19.6578 15.9648C19.4195 15.9648 19.2607 16.084 19.1613 16.2428V16.0046H18.7444V17.9107H19.1613V16.8385C19.1613 16.5209 19.3004 16.3421 19.5584 16.3421C19.6379 16.3421 19.7373 16.362 19.8167 16.3818L19.9358 15.9847C19.8564 15.9648 19.7373 15.9648 19.6578 15.9648ZM14.3363 16.9576C14.3363 17.5335 14.7333 17.9505 15.349 17.9505C15.6269 17.9505 15.8255 17.8909 16.024 17.7321L15.8255 17.3945C15.6666 17.5137 15.5078 17.5732 15.3291 17.5732C14.9915 17.5732 14.7532 17.3349 14.7532 16.9576C14.7532 16.6003 14.9915 16.3619 15.3291 16.3421C15.5078 16.3421 15.6666 16.4016 15.8255 16.5209L16.024 16.1833C15.8255 16.0244 15.6269 15.9648 15.349 15.9648C14.7333 15.9648 14.3363 16.3818 14.3363 16.9576ZM18.1884 16.9576V16.0046H17.7715V16.2428C17.6324 16.0642 17.4339 15.9648 17.1757 15.9648C16.6396 15.9648 16.2226 16.3818 16.2226 16.9576C16.2226 17.5335 16.6396 17.9505 17.1757 17.9505C17.4537 17.9505 17.6523 17.8512 17.7715 17.6725V17.9107H18.1884V16.9576ZM16.6594 16.9576C16.6594 16.6201 16.8779 16.3421 17.2353 16.3421C17.5728 16.3421 17.8112 16.6003 17.8112 16.9576C17.8112 17.2952 17.5728 17.5732 17.2353 17.5732C16.8779 17.5533 16.6594 17.2952 16.6594 16.9576ZM11.6755 15.9648C11.1195 15.9648 10.7223 16.3619 10.7223 16.9576C10.7223 17.5534 11.1194 17.9505 11.6953 17.9505C11.9733 17.9505 12.2513 17.871 12.4698 17.6924L12.2711 17.3945C12.1123 17.5137 11.9138 17.5931 11.7152 17.5931C11.4571 17.5931 11.1989 17.474 11.1393 17.1363H12.5492V16.9775C12.5691 16.3619 12.2116 15.9648 11.6754 15.9648H11.6755ZM11.6755 16.3222C11.9336 16.3222 12.1124 16.4811 12.152 16.779H11.1592C11.1989 16.5209 11.3777 16.3222 11.6755 16.3222ZM22.0207 16.9576V15.25H21.6037V16.2428C21.4647 16.0642 21.2662 15.9648 21.008 15.9648C20.4719 15.9648 20.0549 16.3818 20.0549 16.9576C20.0549 17.5335 20.4719 17.9505 21.008 17.9505C21.2861 17.9505 21.4846 17.8512 21.6037 17.6725V17.9107H22.0207V16.9576ZM20.4918 16.9576C20.4918 16.6201 20.7102 16.3421 21.0676 16.3421C21.4052 16.3421 21.6434 16.6003 21.6434 16.9576C21.6434 17.2952 21.4052 17.5732 21.0676 17.5732C20.7102 17.5533 20.4918 17.2952 20.4918 16.9576ZM6.55248 16.9576V16.0046H6.1355V16.2428C5.99647 16.0642 5.79793 15.9648 5.53978 15.9648C5.00367 15.9648 4.58668 16.3818 4.58668 16.9576C4.58668 17.5335 5.00367 17.9505 5.53978 17.9505C5.81783 17.9505 6.01637 17.8512 6.1355 17.6725V17.9107H6.55248V16.9576ZM5.00367 16.9576C5.00367 16.6201 5.22211 16.3421 5.57949 16.3421C5.91706 16.3421 6.1554 16.6003 6.1554 16.9576C6.1554 17.2952 5.91706 17.5732 5.57949 17.5732C5.22211 17.5533 5.00367 17.2952 5.00367 16.9576Z" fill="black"/>
<path d="M8.43896 1.52881H14.6937V12.7676H8.43896V1.52881Z" fill="#FF5F00"/>
<path d="M8.83619 7.14835C8.83619 4.86488 9.90841 2.83948 11.5565 1.52891C10.3453 0.575819 8.81638 0 7.14844 0C3.19685 0 0 3.19685 0 7.14835C0 11.0998 3.19685 14.2967 7.14835 14.2967C8.81629 14.2967 10.3452 13.7209 11.5565 12.7677C9.90841 11.477 8.83619 9.43182 8.83619 7.14835Z" fill="#EB001B"/>
<path d="M23.1329 7.14835C23.1329 11.0998 19.936 14.2967 15.9845 14.2967C14.3166 14.2967 12.7877 13.7209 11.5764 12.7677C13.2444 11.4572 14.2968 9.43182 14.2968 7.14835C14.2968 4.86488 13.2245 2.83948 11.5764 1.52891C12.7876 0.575819 14.3166 0 15.9845 0C19.936 0 23.133 3.21675 23.133 7.14835H23.1329Z" fill="#F79E1B"/>
</g>
<defs>
<clipPath id="clip0">
<rect width="23.1558" height="18" fill="white"/>
</clipPath>
</defs>
</svg>
