<svg width="82" height="82" viewBox="0 0 82 82" fill="none" xmlns="http://www.w3.org/2000/svg">
<g clipPath="url(#clip0)">
<path d="M42.9644 47.4609L30.0323 42.0523C29.2397 41.7277 28.3377 41.8132 27.6236 42.2847C26.9061 42.7596 26.479 43.5591 26.479 44.4167V64.0625C26.479 65.1217 27.1282 66.0715 28.1156 66.4507C28.4163 66.5669 28.7306 66.625 29.0415 66.625C29.7488 66.625 30.4423 66.3312 30.9378 65.7845L43.8732 51.5472C44.4336 50.9322 44.6591 50.0815 44.478 49.2683C44.2969 48.4586 43.7332 47.7821 42.9644 47.4609Z" fill="#D80739"/>
<path d="M81.18 0.684509C80.4625 0.018259 79.4239 -0.179908 78.5082 0.175426L1.63318 30.0713C0.645763 30.4539 -0.00340325 31.4072 1.34219e-05 32.4698C0.00343009 33.5323 0.65943 34.4788 1.65026 34.8546L62.2961 57.9171C62.5899 58.0264 62.9008 58.0845 63.2083 58.0845C63.5944 58.0845 63.9805 57.9991 64.3358 57.8248C64.9748 57.5105 65.4531 56.9502 65.6615 56.2737L81.8907 3.31534C82.1743 2.37576 81.9009 1.35418 81.18 0.684509Z" fill="#FE7596"/>
<path d="M26.479 44.4167L64.9165 17.0833L36.1584 48.9711L26.479 44.4167Z" fill="#D80739"/>
<path d="M28.1395 67.8345C27.4938 67.8345 26.8344 67.65 26.2535 67.2639C24.6819 66.2218 24.2514 64.1001 25.2969 62.5284C26.2604 61.0729 26.8173 60.0103 26.8549 59.9352C27.7227 58.261 29.7727 57.605 31.4503 58.4626C33.1279 59.3202 33.7907 61.377 32.9365 63.0546C32.9365 63.0546 32.2429 64.4178 30.9924 66.3038C30.333 67.2981 29.2499 67.8345 28.1395 67.8345Z" fill="#D80739"/>
<path d="M14.521 77.7292C12.4266 77.7292 10.626 77.4832 9.02359 76.9775C7.223 76.4104 6.22192 74.4902 6.78909 72.693C7.35625 70.889 9.27984 69.8948 11.0736 70.4585C12.4847 70.9027 14.5415 71.2819 16.7555 70.479C18.5253 69.8469 20.4865 70.7524 21.1323 72.529C21.7746 74.3023 20.8589 76.2634 19.0823 76.9058C17.5755 77.4524 16.038 77.7292 14.521 77.7292Z" fill="#D80739"/>
<path d="M3.51575 65.7743C1.73225 65.7743 0.228917 64.3905 0.109333 62.5797C0.0375833 61.4419 0 60.229 0 58.9375C0 57.0481 1.52725 55.5208 3.41667 55.5208C5.30608 55.5208 6.83333 57.0481 6.83333 58.9375C6.83333 60.0684 6.86408 61.1378 6.929 62.1355C7.052 64.0181 5.62383 65.6444 3.74125 65.7674C3.66608 65.7708 3.59433 65.7743 3.51575 65.7743Z" fill="#D80739"/>
</g>
<defs>
<clipPath id="clip0">
<rect width="82" height="82" fill="white"/>
</clipPath>
</defs>
</svg>
