<svg width="114" height="104" viewBox="0 0 114 104" fill="none" xmlns="http://www.w3.org/2000/svg">
<path d="M11.7266 84.0459C11.7266 61.3708 0 45.7995 0 34.8733C0 23.9472 6.27079 1 56.4534 1C106.636 1 114 31.8705 114 43.8883C114.003 100.165 11.7266 124.204 11.7266 84.0459Z" fill="#E6F7FA"/>
<path d="M111 3L20 38L51.5264 49.856L51.3444 50V73L66.6567 56.332L67.1542 55.736L91.7889 65L111 3Z" fill="#F3F3F1"/>
<path d="M39.2111 38L108.399 11.388L111 3L20 38L51.5264 49.856L51.3444 50V73L66.6567 56.332L67.1542 55.736L91.7889 65L93.7949 58.528L39.2111 38Z" fill="#D5DBE1"/>
<path d="M43.111 20.7373C40.5381 20.7373 38.4443 18.6435 38.4443 16.0707C38.4443 13.4978 40.5381 11.404 43.111 11.404C45.6839 11.404 47.7777 13.4978 47.7777 16.0707C47.7777 18.6435 45.6839 20.7373 43.111 20.7373ZM43.111 14.5151C42.2554 14.5151 41.5554 15.2151 41.5554 16.0707C41.5554 16.9262 42.2554 17.6262 43.111 17.6262C43.9666 17.6262 44.6666 16.9262 44.6666 16.0707C44.6666 15.2151 43.9666 14.5151 43.111 14.5151Z" fill="#A4AFC1"/>
<path d="M81.9658 82.8223L84.1657 80.6224L88.5655 85.0222L86.3656 87.2221L81.9658 82.8223Z" fill="#A4AFC1"/>
<path d="M94.6113 95.4743L96.8112 93.2744L101.211 97.6742L99.0111 99.874L94.6113 95.4743Z" fill="#A4AFC1"/>
<path d="M81.4141 97.6741L85.8138 93.2744L88.0137 95.4742L83.6139 99.874L81.4141 97.6741Z" fill="#A4AFC1"/>
<path d="M94.0615 85.0255L98.4613 80.6258L100.661 82.8257L96.2614 87.2254L94.0615 85.0255Z" fill="#A4AFC1"/>
<path d="M91.7699 69C91.4062 69 91.0384 68.931 90.6908 68.8011L18.9521 41.4039C17.78 40.9575 17.0041 39.8291 17 38.5709C16.996 37.3126 17.7598 36.1762 18.936 35.7216L109.872 0.20673C110.951 -0.215389 112.18 0.0200222 113.033 0.811496C113.882 1.60703 114.209 2.82062 113.865 3.9368L94.6678 66.8488C94.4212 67.6525 93.8554 68.3181 93.1037 68.6915C92.6833 68.8985 92.2266 69 91.7699 69ZM28.4782 38.5262L89.8219 61.9539L106.235 8.158L28.4782 38.5262Z" fill="#1F2A53"/>
<path d="M51.053 77C50.6826 77 50.3081 76.9314 49.9498 76.7942C48.7734 76.3464 48 75.2207 48 73.974V50.775C48 49.8511 48.4233 48.9837 49.1479 48.4067L109.19 1L113 5.73663L54.106 52.2315V66.1429L64.2052 55.1284L68.7196 59.1953L53.3081 76.0075C52.7219 76.653 51.8956 77 51.053 77Z" fill="#1F2A53"/>
<path d="M43.4602 78.3955L39.5713 75.8133C40.486 74.4382 41.0086 73.4302 41.0366 73.3804L45.19 75.5115C45.19 75.5084 44.5708 76.7187 43.4602 78.3955Z" fill="#1F2A53"/>
<path d="M24.7865 87.928C21.8527 87.1316 19.703 85.3645 18.3994 82.6703L22.6056 80.6418C23.3181 82.1258 24.3696 82.9814 26.0092 83.4294L24.7865 87.928ZM32.5861 87.8814L31.1456 83.4387C32.6359 82.9596 34.1821 81.9578 35.7376 80.4707L38.9639 83.8431C36.895 85.8218 34.7483 87.1814 32.5861 87.8814Z" fill="#1F2A53"/>
<path d="M16.7665 75.3777C16.7012 74.3604 16.667 73.2684 16.667 72.1111H21.3337C21.3337 73.1595 21.3617 74.1457 21.4208 75.0729L16.7665 75.3777Z" fill="#1F2A53"/>
</svg>
