<svg width="64" height="64" viewBox="0 0 64 64" fill="none" xmlns="http://www.w3.org/2000/svg">
<g clipPath="url(#clip0)">
<path d="M25.9583 44.0833H18.7083C18.0413 44.0833 17.5 43.542 17.5 42.875C17.5 42.208 18.0413 41.6667 18.7083 41.6667H25.9583C26.6229 41.6667 27.1667 41.1253 27.1667 40.4583V35.306C27.1667 33.4838 25.6853 32 23.8631 32C21.7533 32 19.7693 30.8762 18.6793 29.0686L14.2472 21.6784C13.5947 20.5909 12.4033 19.9167 11.1369 19.9167H4.20833C3.54133 19.9167 3 19.3753 3 18.7083C3 18.0413 3.54133 17.5 4.20833 17.5H11.1369C13.2467 17.5 15.2332 18.6237 16.3207 20.4314L20.7528 27.8216C21.4053 28.9091 22.5968 29.5833 23.8631 29.5833C27.0168 29.5833 29.5833 32.1498 29.5833 35.306V40.4583C29.5833 42.4569 27.9569 44.0833 25.9583 44.0833Z" fill="#0C74D4"/>
<path d="M45.291 44.0833H38.041C36.0424 44.0833 34.416 42.4569 34.416 40.4583V35.306C34.416 32.1498 36.9825 29.5833 40.1363 29.5833C41.4002 29.5833 42.594 28.9091 43.2465 27.8216L47.6787 20.4338C48.7662 18.6237 50.7527 17.5 52.8624 17.5H59.791C60.458 17.5 60.9993 18.0413 60.9993 18.7083C60.9993 19.3753 60.458 19.9167 59.791 19.9167H52.8624C51.5985 19.9167 50.4047 20.5909 49.7522 21.6784L45.32 29.0662C44.2325 30.8762 42.246 32 40.1363 32C38.3141 32 36.8327 33.4838 36.8327 35.306V40.4583C36.8327 41.1253 37.3764 41.6667 38.041 41.6667H45.291C45.958 41.6667 46.4993 42.208 46.4993 42.875C46.4993 43.542 45.958 44.0833 45.291 44.0833Z" fill="#0C74D4"/>
<path d="M13.8757 48.9167C10.5431 48.9167 7.83398 46.2052 7.83398 42.875C7.83398 39.5449 10.5431 36.8334 13.8757 36.8334C17.2082 36.8334 19.9173 39.5449 19.9173 42.875C19.9173 46.2052 17.2082 48.9167 13.8757 48.9167ZM13.8757 39.25C11.8771 39.25 10.2507 40.8765 10.2507 42.875C10.2507 44.8736 11.8771 46.5 13.8757 46.5C15.8742 46.5 17.5007 44.8736 17.5007 42.875C17.5007 40.8765 15.8742 39.25 13.8757 39.25Z" fill="#0C74D4"/>
<path d="M50.1256 48.9167C46.7931 48.9167 44.084 46.2052 44.084 42.875C44.084 39.5449 46.7931 36.8334 50.1256 36.8334C53.4582 36.8334 56.1673 39.5449 56.1673 42.875C56.1673 46.2052 53.4582 48.9167 50.1256 48.9167ZM50.1256 39.25C48.1271 39.25 46.5006 40.8765 46.5006 42.875C46.5006 44.8736 48.1271 46.5 50.1256 46.5C52.1242 46.5 53.7506 44.8736 53.7506 42.875C53.7506 40.8765 52.1242 39.25 50.1256 39.25Z" fill="#0C74D4"/>
<path d="M59.7917 44.0834H54.9583C54.2913 44.0834 53.75 43.542 53.75 42.875C53.75 42.208 54.2913 41.6667 54.9583 41.6667H59.7917C60.4587 41.6667 61 42.208 61 42.875C61 43.542 60.4587 44.0834 59.7917 44.0834Z" fill="#0C74D4"/>
<path d="M9.04167 44.0834H4.20833C3.54133 44.0834 3 43.542 3 42.875C3 42.208 3.54133 41.6667 4.20833 41.6667H9.04167C9.70867 41.6667 10.25 42.208 10.25 42.875C10.25 43.542 9.70867 44.0834 9.04167 44.0834Z" fill="#0C74D4"/>
<path d="M11.4583 32H4.20833C3.54133 32 3 31.4586 3 30.7916C3 30.1246 3.54133 29.5833 4.20833 29.5833H11.4583C12.1253 29.5833 12.6667 30.1246 12.6667 30.7916C12.6667 31.4586 12.1253 32 11.4583 32Z" fill="#0C74D4"/>
<path d="M59.7923 32H52.5423C51.8753 32 51.334 31.4586 51.334 30.7916C51.334 30.1246 51.8753 29.5833 52.5423 29.5833H59.7923C60.4593 29.5833 61.0007 30.1246 61.0007 30.7916C61.0007 31.4586 60.4593 32 59.7923 32Z" fill="#0C74D4"/>
<path d="M31.9993 22.3333C31.3323 22.3333 30.791 21.792 30.791 21.125V16.2916C30.791 15.6246 31.3323 15.0833 31.9993 15.0833C32.6663 15.0833 33.2077 15.6246 33.2077 16.2916V21.125C33.2077 21.792 32.6663 22.3333 31.9993 22.3333Z" fill="#1F2A53"/>
<path d="M38.041 24.75C37.7316 24.75 37.4223 24.6316 37.1855 24.3972C36.7142 23.9259 36.7142 23.1598 37.1855 22.6886L39.6021 20.2719C40.0734 19.8006 40.8395 19.8006 41.3107 20.2719C41.782 20.7431 41.782 21.5092 41.3107 21.9805L38.8941 24.3972C38.6596 24.6316 38.3503 24.75 38.041 24.75Z" fill="#1F2A53"/>
<path d="M25.9576 24.75C25.6483 24.75 25.339 24.6316 25.1021 24.3972L22.6855 21.9805C22.2142 21.5092 22.2142 20.7431 22.6855 20.2719C23.1567 19.8006 23.9228 19.8006 24.3941 20.2719L26.8107 22.6886C27.282 23.1598 27.282 23.9259 26.8107 24.3972C26.5763 24.6316 26.267 24.75 25.9576 24.75Z" fill="#1F2A53"/>
<line x1="10.2929" y1="53.5477" x2="54.2929" y2="9.54771" stroke="#0C74D4" stroke-width="2"/>
</g>
<circle cx="32" cy="32" r="31" stroke="#0C74D4" stroke-width="2"/>
<defs>
<clipPath id="clip0">
<rect width="58" height="58" fill="white" transform="translate(3 3)"/>
</clipPath>
</defs>
</svg>
