<svg width="18" height="18" viewBox="0 0 18 18" fill="none" xmlns="http://www.w3.org/2000/svg">
<path d="M10.8868 15C10.8868 16.6569 9.54355 18 7.88667 18C6.2298 18 4.88672 16.6569 4.88672 15C4.88672 13.3432 6.2298 11.9999 7.88667 11.9999C9.54355 11.9999 10.8868 13.3432 10.8868 15Z" fill="#0C74D4"/>
<path d="M13.1427 8.94083C10.6002 8.57773 8.63676 6.39145 8.63676 3.75006C8.63676 2.99997 8.79716 2.28833 9.08144 1.64247C8.69746 1.55252 8.29852 1.50006 7.88667 1.50006C4.99178 1.50006 2.63672 3.85498 2.63672 6.75002V8.84099C2.63672 10.3252 1.98647 11.7263 0.845673 12.6907C0.553986 12.9397 0.386719 13.3035 0.386719 13.6875C0.386719 14.4113 0.975449 15.0001 1.69917 15.0001H14.0742C14.798 15.0001 15.3868 14.4113 15.3868 13.6875C15.3868 13.3035 15.2195 12.9397 14.9203 12.684C13.8132 11.7473 13.1712 10.3875 13.1427 8.94083Z" fill="#328CE0"/>
<path d="M17.6378 3.75005C17.6378 5.82111 15.9588 7.49995 13.8877 7.49995C11.8167 7.49995 10.1377 5.82111 10.1377 3.75005C10.1377 1.67899 11.8167 0 13.8877 0C15.9588 0 17.6378 1.67899 17.6378 3.75005Z" fill="#D80739"/>
</svg>
