<svg width="64" height="64" viewBox="0 0 64 64" fill="none" xmlns="http://www.w3.org/2000/svg">
<path d="M10.6331 56.8665C10.4008 56.6339 10.0783 56.5002 9.74951 56.5002C9.42076 56.5002 9.09826 56.6339 8.86576 56.8665C8.63326 57.0991 8.49951 57.4215 8.49951 57.7502C8.49951 58.079 8.63314 58.4015 8.86576 58.6339C9.09826 58.8664 9.42076 59.0002 9.74951 59.0002C10.0783 59.0002 10.4008 58.8665 10.6331 58.6339C10.8656 58.4015 10.9995 58.079 10.9995 57.7502C10.9995 57.4215 10.8658 57.099 10.6331 56.8665Z" fill="#1F2A53" fill-opacity="0.75"/>
<path d="M58.6894 22.8672C58.4569 22.6346 58.1357 22.501 57.8057 22.501C57.4769 22.501 57.1544 22.6346 56.9219 22.8672C56.6895 23.0997 56.5557 23.4222 56.5557 23.751C56.5557 24.0797 56.6894 24.4022 56.9219 24.6346C57.1544 24.8671 57.4769 25.001 57.8057 25.001C58.1357 25.001 58.4569 24.8672 58.6894 24.6346C58.923 24.4022 59.0568 24.0797 59.0568 23.751C59.0568 23.4222 58.923 23.0997 58.6894 22.8672Z" fill="#1F2A53" fill-opacity="0.75"/>
<path d="M63.6329 0.366129C63.3984 0.131751 63.0804 0 62.7487 0L31.9992 0.00162502C31.3089 0.00162502 30.7493 0.56138 30.7493 1.25164V4.8263L18.9006 8.0012C18.2337 8.17995 17.8379 8.86534 18.0167 9.53209L24.1576 32.4501L18.8452 37.7625C18.1691 36.7752 17.0338 36.126 15.7497 36.126H3.74991C1.68214 36.126 0 37.8082 0 39.8759V60.2506C0 62.3184 1.68214 64.0006 3.74991 64.0006H15.7498C17.5064 64.0006 18.9842 62.7861 19.3892 61.1531L20.8755 62.4492C22.0228 63.4497 23.4929 64.0007 25.0152 64.0007H62.749C63.4392 64.0007 63.999 63.441 63.999 62.7507V1.25001C63.9987 0.918509 63.8672 0.600506 63.6329 0.366129ZM16.9995 60.2507C16.9995 60.9398 16.4388 61.5007 15.7495 61.5007H3.74979C3.06053 61.5007 2.49977 60.94 2.49977 60.2507V39.876C2.49977 39.1868 3.06053 38.626 3.74979 38.626H8.49971V53.0255C8.49971 53.7158 9.05946 54.2755 9.74972 54.2755C10.44 54.2755 10.9997 53.7158 10.9997 53.0255V38.626H15.7497C16.4389 38.626 16.9997 39.1868 16.9997 39.876V60.2507H16.9995ZM20.7549 10.0925L30.7493 7.41445V12.0464L29.9115 12.2709C29.5912 12.3567 29.3183 12.5661 29.1525 12.8532C28.9868 13.1404 28.9418 13.4815 29.0277 13.8018C29.508 15.5944 28.4404 17.4435 26.6478 17.9239C26.3271 18.0099 26.0538 18.2197 25.8881 18.5074C25.7225 18.7951 25.6779 19.1368 25.7645 19.4573L30.6369 37.4997H28.1281L26.8353 32.4417C26.7941 32.2807 26.7221 32.1323 26.6258 32.0033L20.7549 10.0925ZM30.7493 17.7788V28.3265L28.4694 19.8846C29.4218 19.3928 30.2012 18.6571 30.7493 17.7788ZM48.7075 61.5006H25.015C24.0969 61.5006 23.2102 61.1683 22.5182 60.565L19.4996 57.9323V40.6438L24.9569 35.1865L25.9466 39.059C26.0881 39.6124 26.5865 39.9994 27.1576 39.9994L51.7334 40.0009C52.6984 40.0009 53.4834 40.7859 53.4834 41.7509C53.4834 42.7159 52.6984 43.5009 51.7334 43.5009H39.1408C38.4505 43.5009 37.8907 44.0607 37.8907 44.7509C37.8907 45.4412 38.4505 46.0009 39.1408 46.0009H55.6459C56.6109 46.0009 57.3959 46.7859 57.3959 47.751C57.3959 48.716 56.6109 49.501 55.6459 49.501H39.1408C38.4505 49.501 37.8907 50.0607 37.8907 50.751C37.8907 51.4412 38.4505 52.001 39.1408 52.001H52.9713C53.9363 52.001 54.7213 52.786 54.7213 53.751C54.7213 54.716 53.9363 55.501 52.9713 55.501H39.1408C38.4505 55.501 37.8907 56.0608 37.8907 56.751C37.8907 57.4413 38.4505 58.0011 39.1408 58.0011H48.7075C49.6725 58.0011 50.4575 58.7861 50.4575 59.7511C50.4574 60.7156 49.6724 61.5006 48.7075 61.5006ZM61.499 61.5006H61.4988H52.5789C52.8213 60.9665 52.9574 60.3743 52.9574 59.7506C52.9574 59.1268 52.8213 58.5347 52.5789 58.0006H52.9713C55.3147 58.0006 57.2212 56.094 57.2212 53.7506C57.2212 53.0671 57.0581 52.4213 56.7701 51.8485C58.5696 51.3542 59.8957 49.7049 59.8957 47.7507C59.8957 46.8027 59.5835 45.9263 59.0568 45.2188V29.3762C59.0568 28.6859 58.4971 28.1261 57.8068 28.1261C57.1166 28.1261 56.5568 28.6859 56.5568 29.3762V43.6003C56.263 43.5359 55.9584 43.5009 55.6457 43.5009H55.6047C55.847 42.9668 55.9832 42.3747 55.9832 41.7509C55.9832 39.4074 54.0766 37.501 51.7332 37.501H49.7239C51.8575 36.586 53.356 34.4652 53.356 32.0003C53.356 28.7017 50.6725 26.018 47.3738 26.018C44.0753 26.018 41.3917 28.7017 41.3917 32.0003C41.3917 34.4652 42.8903 36.586 45.0238 37.501H38.1909V13.733C40.4239 13.2464 42.1859 11.4845 42.6724 9.25134H52.0751C52.5616 11.4845 54.3237 13.2464 56.5567 13.733V17.6193C56.5567 18.3096 57.1164 18.8693 57.8067 18.8693C58.4969 18.8693 59.0567 18.3096 59.0567 17.6193V12.617C59.0567 11.9267 58.4969 11.367 57.8067 11.367C55.9508 11.367 54.4412 9.8571 54.4412 8.00133C54.4412 7.31107 53.8814 6.75132 53.1911 6.75132H41.5565C40.8663 6.75132 40.3065 7.31107 40.3065 8.00133C40.3065 9.85722 38.7968 11.367 36.941 11.367C36.2507 11.367 35.691 11.9267 35.691 12.617V37.5009H33.2494V2.5014L61.499 2.50002V61.5006ZM47.3741 35.4826C45.4539 35.4826 43.8919 33.9205 43.8919 32.0004C43.8919 30.0804 45.4541 28.5182 47.3741 28.5182C49.2941 28.5182 50.8562 30.0803 50.8562 32.0003C50.8562 33.9203 49.2942 35.4826 47.3741 35.4826Z" fill="#1F2A53" fill-opacity="0.75"/>
</svg>
