<svg width="9" height="10" viewBox="0 0 9 10" fill="none" xmlns="http://www.w3.org/2000/svg">
<g clipPath="url(#clip0)">
<path d="M5.17398 7.88306H0.675797C0.302734 7.88306 0 8.21939 0 8.63396V9.99936H5.84976V8.63396C5.84976 8.21939 5.54705 7.88306 5.17398 7.88306Z" fill="#D80739"/>
<path d="M8.87916 7.98891L4.77308 3.42658L5.56617 2.54694C5.69694 2.67507 5.89803 2.6688 6.02177 2.53131C6.15115 2.38602 6.15115 2.1532 6.02177 2.0079L4.31185 0.109538C4.18248 -0.03576 3.97155 -0.03576 3.84219 0.109538C3.71142 0.253291 3.71142 0.487656 3.84219 0.631388L3.82813 0.615763L1.65695 3.02659L1.67101 3.04376C1.54164 2.89847 1.33071 2.89847 1.20135 3.04376C1.07058 3.18752 1.07058 3.42188 1.20135 3.56563L2.90987 5.46554C3.04064 5.60929 3.25157 5.60929 3.38095 5.46554C3.51032 5.32024 3.51032 5.08744 3.38095 4.94216L3.39501 4.95775L4.1881 4.0781L8.29277 8.63887C8.45448 8.81855 8.71745 8.81855 8.87916 8.63887C9.04087 8.45919 9.04087 8.16857 8.87916 7.98891Z" fill="#D80739"/>
</g>
<defs>
<clipPath id="clip0">
<rect width="9" height="10" fill="white"/>
</clipPath>
</defs>
</svg>
