<svg width="7" height="9" viewBox="0 0 7 9" fill="none" xmlns="http://www.w3.org/2000/svg">
<path d="M3.49994 0C1.70266 0 0.240479 1.46218 0.240479 3.25944C0.240479 5.48989 3.15737 8.76433 3.28156 8.90263C3.39821 9.03255 3.60187 9.03233 3.71831 8.90263C3.8425 8.76433 6.7594 5.48989 6.7594 3.25944C6.75936 1.46218 5.2972 0 3.49994 0ZM3.49994 4.89936C2.59568 4.89936 1.86004 4.1637 1.86004 3.25944C1.86004 2.35519 2.5957 1.61954 3.49994 1.61954C4.40417 1.61954 5.13982 2.35521 5.13982 3.25946C5.13982 4.16371 4.40417 4.89936 3.49994 4.89936Z" fill="#D80739"/>
</svg>
