<svg width="64" height="64" viewBox="0 0 64 64" fill="none" xmlns="http://www.w3.org/2000/svg">
<g clipPath="url(#clip0)">
<path d="M56.7881 7.20672C47.2342 -2.37363 31.7228 -2.39524 22.1425 7.15866C12.8984 16.3771 12.5073 31.2249 21.253 40.9174L19.3821 42.7882C17.8706 41.2765 15.4197 41.2762 13.908 42.7878C13.9079 42.7879 13.9077 42.7881 13.9075 42.7882L1.13396 55.5618C-0.377744 57.0734 -0.378067 59.5242 1.13347 61.0359C1.13364 61.0361 1.1338 61.0362 1.13396 61.0364L2.95839 62.8608C4.46993 64.3719 6.92013 64.3719 8.43167 62.8608L21.2053 50.0872C22.717 48.5757 22.7173 46.1249 21.2057 44.6132C21.2056 44.613 21.2054 44.6128 21.2053 44.6127L23.0761 42.7418C33.1144 51.8135 48.6059 51.0298 57.6775 40.9917C66.44 31.2956 66.0486 16.4284 56.7881 7.20672ZM19.3821 48.2615L6.60853 61.0351C6.10469 61.5388 5.28795 61.5388 4.78411 61.0351L2.95968 59.2094C2.4568 58.7057 2.4568 57.8899 2.95968 57.3863L15.7333 44.6127C16.2436 44.1248 17.0474 44.1248 17.5577 44.6127L19.3821 46.4384C19.885 46.9421 19.885 47.7578 19.3821 48.2615ZM54.9649 40.0516C46.3989 48.6173 32.5107 48.6172 23.945 40.0511C15.3792 31.4851 15.3794 17.5969 23.9454 9.03115C32.5113 0.465592 46.3991 0.465592 54.9649 9.03115C63.5169 17.603 63.5169 31.4798 54.9649 40.0516Z" fill="#1F2A53" fill-opacity="0.75"/>
<path d="M53.1394 10.8547L51.3149 12.6792C57.8541 19.2343 57.8541 29.8454 51.3149 36.4006L53.1394 38.225C60.6867 30.6625 60.6867 18.4173 53.1394 10.8547Z" fill="#1F2A53" fill-opacity="0.75"/>
</g>
<defs>
<clipPath id="clip0">
<rect width="64" height="64" fill="white"/>
</clipPath>
</defs>
</svg>
