<svg width="14" height="4" viewBox="0 0 14 4" fill="none" xmlns="http://www.w3.org/2000/svg">
<path d="M2.00001 0.333008C1.08334 0.333008 0.333344 1.08301 0.333344 1.99967C0.333344 2.91634 1.08334 3.66634 2.00001 3.66634C2.91668 3.66634 3.66668 2.91634 3.66668 1.99967C3.66668 1.08301 2.91668 0.333008 2.00001 0.333008ZM12 0.333008C11.0833 0.333008 10.3333 1.08301 10.3333 1.99967C10.3333 2.91634 11.0833 3.66634 12 3.66634C12.9167 3.66634 13.6667 2.91634 13.6667 1.99967C13.6667 1.08301 12.9167 0.333008 12 0.333008ZM7.00001 0.333008C6.08334 0.333008 5.33334 1.08301 5.33334 1.99967C5.33334 2.91634 6.08334 3.66634 7.00001 3.66634C7.91668 3.66634 8.66668 2.91634 8.66668 1.99967C8.66668 1.08301 7.91668 0.333008 7.00001 0.333008Z" fill="#C2CFE0"/>
</svg>
