<svg width="133" height="112" viewBox="0 0 133 112" fill="none" xmlns="http://www.w3.org/2000/svg">
<path d="M53.5114 93.1393C56.4633 93.1393 58.8653 90.7373 58.8653 87.7853V80.0638C58.8653 77.1125 56.4633 74.7104 53.5114 74.7104C50.5614 74.7104 48.1587 77.1125 48.1587 80.0638V87.7853C48.1587 90.7373 50.5594 93.1393 53.5114 93.1393Z" fill="#D80739"/>
<path d="M113.893 83.9242C113.893 78.8442 109.759 74.7104 104.678 74.7104H103.187V93.1393H104.678C109.759 93.1393 113.893 89.0049 113.893 83.9242Z" fill="#D80739"/>
<path d="M0.0683594 59.6335V108.215C0.0683594 110.303 1.76625 112 3.85331 112H129.147C131.234 112 132.932 110.303 132.932 108.215V59.6335C132.932 57.5465 131.234 55.8492 129.147 55.8492H3.85331C1.76625 55.8492 0.0683594 57.5465 0.0683594 59.6335ZM95.117 70.6766C95.117 68.449 96.9229 66.6425 99.1512 66.6425H104.678C114.207 66.6425 121.961 74.3946 121.961 83.924C121.961 93.454 114.207 101.207 104.678 101.207H99.1512C96.9229 101.207 95.117 99.4008 95.117 97.1732V70.6766ZM70.4953 70.6766C70.4953 68.449 72.3012 66.6425 74.5295 66.6425C76.7571 66.6425 78.5637 68.449 78.5637 70.6766V93.139H88.5656C90.7938 93.139 92.5997 94.9449 92.5997 97.1732C92.5997 99.4008 90.7938 101.207 88.5656 101.207H74.5295C72.3012 101.207 70.4953 99.4008 70.4953 97.1732V70.6766ZM40.0908 80.0635C40.0908 72.6628 46.1112 66.6425 53.5118 66.6425C60.9132 66.6425 66.9342 72.6628 66.9342 80.0635V87.785C66.9342 95.1864 60.9132 101.207 53.5118 101.207C46.1125 101.207 40.0908 95.1864 40.0908 87.785V80.0635ZM27.2242 87.9588H21.6977C15.8205 87.9588 11.0392 83.1775 11.0392 77.3003C11.0392 71.4224 15.8205 66.6425 21.6977 66.6425H33.8491C36.0768 66.6425 37.8833 68.449 37.8833 70.6766C37.8833 72.9049 36.0768 74.7102 33.8491 74.7102H21.6977C20.2699 74.7102 19.1083 75.8718 19.1083 77.3003C19.1083 78.7281 20.2699 79.8898 21.6977 79.8898H27.2242C33.102 79.8898 37.8833 84.6717 37.8833 90.5483C37.8833 96.4261 33.102 101.207 27.2242 101.207H15.0741C12.8458 101.207 11.0392 99.4008 11.0392 97.1732C11.0392 94.9449 12.8458 93.139 15.0741 93.139H27.2242C28.6526 93.139 29.8149 91.9767 29.8149 90.5483C29.8149 89.1204 28.6526 87.9588 27.2242 87.9588Z" fill="#D80739"/>
<path d="M78.4233 23.9279L102.277 47.7803H113.687L83.7103 17.8027C82.4393 20.2302 80.6223 22.3244 78.4233 23.9279Z" fill="#1F2A53"/>
<path d="M33.7852 47.7803L57.6382 23.9279C55.4399 22.3244 53.6229 20.2301 52.3519 17.8027L22.375 47.7803H33.7852Z" fill="#1F2A53"/>
<path d="M68.0307 19.2449C73.3365 19.2449 77.6531 14.9283 77.6531 9.62246C77.6531 4.31728 73.3365 0 68.0307 0C62.7242 0 58.4082 4.31728 58.4082 9.62246C58.4082 14.9283 62.7242 19.2449 68.0307 19.2449Z" fill="#1F2A53"/>
</svg>
