<svg width="12" height="9" viewBox="0 0 12 9" fill="none" xmlns="http://www.w3.org/2000/svg">
<path d="M9.62228 1.69954C9.47201 1.54928 9.23613 1.52713 9.06046 1.64682C8.39871 2.09788 5.07947 4.36603 4.72274 4.72273C4.20544 5.24006 4.20544 6.08177 4.72274 6.5991C4.9814 6.85773 5.32119 6.98707 5.66093 6.98707C6.00067 6.98707 6.34044 6.85773 6.59912 6.5991C6.95582 6.24237 9.22394 2.92314 9.67502 2.26139C9.79468 2.08574 9.77254 1.84984 9.62228 1.69954ZM5.97363 5.97364C5.80121 6.14609 5.52062 6.14609 5.34821 5.97364C5.17577 5.80122 5.17575 5.52072 5.34812 5.34828C5.48672 5.21132 6.42911 4.53922 7.58858 3.73327C6.78265 4.89273 6.11055 5.83508 5.97363 5.97364Z" fill="#D80739"/>
<path d="M2.0395 7.71794L1.49353 7.98427C1.09404 7.2713 0.884517 6.47552 0.884517 5.66091C0.884517 5.06406 0.994573 4.49241 1.19542 3.96522L1.82102 4.26529C1.88272 4.29488 1.94784 4.3089 2.01199 4.3089C2.1768 4.3089 2.33501 4.21636 2.41106 4.05781C2.51667 3.83759 2.4238 3.5734 2.20355 3.46777L1.58589 3.1715C2.35359 1.91947 3.68184 1.04656 5.21867 0.904816V1.56999C5.21867 1.81425 5.41667 2.01225 5.66093 2.01225C5.90519 2.01225 6.10319 1.81425 6.10319 1.56999V0.904485C6.63009 0.952447 7.13993 1.08663 7.62391 1.3051C7.84648 1.40561 8.10845 1.30656 8.20896 1.084C8.30946 0.861364 8.21046 0.599437 7.98783 0.498934C7.25443 0.167881 6.47154 0 5.66091 0C4.14883 0 2.72725 0.588823 1.65803 1.65803C0.588845 2.72725 0 4.14882 0 5.66091C0 6.77827 0.33165 7.86499 0.959104 8.80348C1.04362 8.92986 1.18335 8.99998 1.32704 8.99998C1.39236 8.99998 1.45852 8.98549 1.52068 8.95518L2.42731 8.51292C2.64685 8.40583 2.738 8.14107 2.63091 7.92153C2.52381 7.70202 2.25903 7.61089 2.0395 7.71794Z" fill="#D80739"/>
<path d="M10.8228 3.334C10.7224 3.11139 10.4605 3.01233 10.2378 3.11288C10.0152 3.21338 9.91618 3.47531 10.0167 3.69792C10.2958 4.31615 10.4373 4.9766 10.4373 5.6609C10.4373 6.47674 10.2271 7.2738 9.82642 7.98758L9.25641 7.71614C9.03593 7.61115 8.77201 7.70475 8.66697 7.92531C8.56196 8.14582 8.65561 8.40974 8.87614 8.51475L9.80488 8.95701C9.86598 8.98609 9.93075 9 9.99479 9C10.1385 9 10.2783 8.92979 10.3627 8.8035C10.9902 7.86498 11.3218 6.77827 11.3218 5.6609C11.3218 4.85026 11.1539 4.06738 10.8228 3.334Z" fill="#D80739"/>
</svg>
