<svg width="21" height="20" viewBox="0 0 21 20" fill="none" xmlns="http://www.w3.org/2000/svg">
<path d="M20.5033 7.55686C20.3717 7.13427 20.0125 6.83508 19.5892 6.79511L13.8158 6.24816L11.5341 0.673859C11.3656 0.264321 10.9823 0 10.5557 0C10.129 0 9.74557 0.264321 9.57818 0.673859L7.2965 6.24816L1.52218 6.79511C1.0989 6.83587 0.740463 7.13507 0.608015 7.55686C0.476329 7.97946 0.597944 8.44298 0.918078 8.73596L5.28231 12.7293L3.99552 18.6434C3.90137 19.0782 4.06312 19.5279 4.40888 19.7887C4.59474 19.9296 4.8131 20 5.03222 20C5.22051 20 5.40896 19.9478 5.57727 19.8427L10.5557 16.7364L15.5332 19.8427C15.8983 20.0704 16.3575 20.0495 16.7025 19.7887C17.0482 19.5279 17.21 19.0782 17.1158 18.6434L15.829 12.7293L20.1933 8.73596C20.5133 8.44298 20.635 7.98041 20.5033 7.55686Z" fill="white"/>
<path d="M19.4949 7.79065L19.4952 7.79068C19.4983 7.79098 19.5052 7.79222 19.5155 7.80078C19.5261 7.80958 19.5399 7.82631 19.5486 7.85437L20.5033 7.55686L19.5484 7.85375C19.5683 7.91756 19.5446 7.97391 19.5182 7.99824C19.5181 7.9983 19.518 7.99836 19.518 7.99842L15.154 11.9915L14.7296 12.3798L14.8519 12.9419L16.1385 18.855C16.1534 18.9238 16.1228 18.9734 16.1003 18.9904L16.0994 18.991C16.0934 18.9955 16.089 18.9975 16.0863 18.9985C16.0854 18.9988 16.0845 18.9991 16.0837 18.9993C16.0821 18.9997 16.0807 18.9999 16.0795 18.9999C16.0777 19 16.0757 18.9999 16.0734 18.9993C16.0713 18.9987 16.0676 18.9975 16.0623 18.9941L11.0851 15.8881L10.5557 15.5577L10.0263 15.888L5.04791 18.9943L5.04763 18.9945C5.04283 18.9975 5.03947 18.9987 5.03755 18.9992C5.03552 18.9998 5.0338 19 5.03222 19C5.02989 19 5.02772 18.9997 5.02543 18.9989C5.02335 18.9982 5.01919 18.9965 5.01307 18.9919L5.01108 18.9904C4.98859 18.9734 4.95804 18.9239 4.97283 18.8552C4.97284 18.8551 4.97286 18.855 4.97287 18.855L6.25945 12.9419L6.38174 12.3798L5.95737 11.9915L1.59321 7.99826C1.58109 7.98717 1.56805 7.96852 1.56077 7.94085C1.55356 7.91341 1.55387 7.88353 1.56242 7.8554C1.57147 7.82726 1.58551 7.81025 1.59638 7.80119C1.60682 7.79248 1.61407 7.79092 1.61781 7.79053C1.61789 7.79052 1.61797 7.79051 1.61804 7.79051L7.3908 7.2437L7.99288 7.18667L8.22197 6.62697L10.5037 1.05267L10.5038 1.05221C10.5145 1.02616 10.5284 1.01282 10.5373 1.00668C10.5458 1.00079 10.5515 1 10.5557 1C10.5598 1 10.5655 1.00074 10.5743 1.00683C10.5835 1.01317 10.598 1.02698 10.6091 1.05386C10.6092 1.054 10.6092 1.05414 10.6093 1.05427L12.8903 6.62697L13.1194 7.18666L13.7215 7.2437L19.4949 7.79065Z" stroke="#1F2A53" stroke-opacity="0.25" stroke-width="2"/>
</svg>
