<svg width="238" height="483" viewBox="0 0 238 483" fill="none" xmlns="http://www.w3.org/2000/svg">
<path fill-rule="evenodd" clip-rule="evenodd" d="M30.0034 0C13.4349 0 0.00341797 13.4314 0.00341797 30V453C0.00341797 469.569 13.4349 483 30.0034 483H207.077C223.645 483 237.077 469.569 237.077 453V30C237.077 13.4314 223.645 0 207.077 0H30.0034ZM32.9219 4.9187C17.4579 4.9187 4.92188 17.4548 4.92188 32.9187V450.082C4.92188 465.546 17.4579 478.082 32.9219 478.082H204.158C219.622 478.082 232.158 465.546 232.158 450.082V32.9187C232.158 17.4548 219.622 4.9187 204.158 4.9187H32.9219Z" fill="#1F2A53" fill-opacity="0.75"/>
</svg>
