<svg width="16" height="16" viewBox="0 0 16 16" fill="none" xmlns="http://www.w3.org/2000/svg">
<circle cx="8" cy="8" r="8" fill="#1F2A53" fill-opacity="0.75"/>
<path d="M13 5.04977C12.55 5.27027 12.109 5.35982 11.65 5.49527C11.1455 4.92602 10.3976 4.89452 9.679 5.16362C8.96035 5.43272 8.48965 6.09062 8.5 6.84527V7.29527C7.03975 7.33262 5.73925 6.66752 4.9 5.49527C4.9 5.49527 3.0181 8.84012 6.7 10.4453C5.8576 11.0064 5.01745 11.3849 4 11.3453C5.4886 12.1566 7.11085 12.4356 8.5153 12.0279C10.1263 11.5599 11.4502 10.3526 11.9582 8.54402C12.1098 7.99397 12.1851 7.42571 12.1819 6.85517C12.181 6.74312 12.8614 5.60777 13 5.04932V5.04977Z" stroke="white" stroke-width="0.8" stroke-linecap="round" stroke-linejoin="round"/>
</svg>
