<svg width="15" height="21" viewBox="0 0 15 21" fill="none" xmlns="http://www.w3.org/2000/svg">
<path d="M14.2498 2.5C14.664 2.50012 15 2.16443 15 1.75022C15 1.33601 14.6644 1.00012 14.2502 1L1.25022 0.996239C0.836003 0.996119 0.5 1.33181 0.5 1.74602C0.5 2.16023 0.83557 2.49612 1.24978 2.49624L14.2498 2.5ZM7.64823 20.9882L7.75 20.9951C8.1297 20.9951 8.44349 20.7129 8.49315 20.3468L8.5 20.2451L8.499 6.56006L12.2208 10.2804C12.4871 10.5466 12.9038 10.5708 13.1974 10.3529L13.2815 10.2803C13.5477 10.014 13.5719 9.59732 13.354 9.30373L13.2814 9.21962L8.28372 4.223C8.01757 3.95691 7.60119 3.93261 7.3076 4.15017L7.22348 4.2227L2.22003 9.21931C1.92694 9.512 1.92661 9.98688 2.21931 10.28C2.48539 10.5464 2.90204 10.5709 3.1958 10.3533L3.27997 10.2807L6.999 6.56706L7 20.2451C7 20.6248 7.28215 20.9385 7.64823 20.9882L7.75 20.9951L7.64823 20.9882Z" fill="#328CE0"/>
</svg>
