<svg width="20" height="20" viewBox="0 0 20 20" fill="none" xmlns="http://www.w3.org/2000/svg">
<path d="M10 20C4.47715 20 0 15.5228 0 10C0 4.47715 4.47715 0 10 0C15.5228 0 20 4.47715 20 10C20 15.5228 15.5228 20 10 20Z" fill="#1F2A53" fill-opacity="0.1"/>
<path d="M2.72347 15.8475C3.15847 15.5038 3.68847 15.2563 4.26347 15.1363L7.00472 14.5862C7.29222 14.5312 7.49972 14.2738 7.49972 13.9738V13.345C7.32347 13.0975 7.15722 12.7687 6.98347 12.425C6.84847 12.1587 6.64472 11.7575 6.54347 11.6537C5.98847 11.0962 5.45222 10.47 5.28597 9.6625C5.13097 8.905 5.28347 8.5075 5.46222 8.1875C5.46222 7.38875 5.48722 6.38875 5.67597 5.66125C5.69847 4.67625 5.87722 4.1225 6.32722 3.6375C6.64472 3.29375 7.11222 3.21375 7.48847 3.15C7.63597 3.125 7.83972 3.09 7.91472 3.05C8.58097 2.69 9.23972 2.51375 10.026 2.5C11.6722 2.5675 13.696 3.615 14.3735 5.4825C14.5835 6.05125 14.5622 6.985 14.5447 7.735L14.561 8.18625C14.7222 8.50125 14.881 8.90125 14.7247 9.66125C14.5597 10.47 14.0235 11.0975 13.4585 11.6625C13.366 11.7575 13.1572 12.1625 13.0197 12.43C12.8435 12.7725 12.676 13.1 12.4997 13.3463V13.975C12.4997 14.2738 12.7085 14.5312 12.9972 14.5875L15.741 15.1375C16.3122 15.2587 16.8422 15.5038 17.276 15.8475C17.411 15.9563 17.496 16.115 17.5097 16.2875C17.5235 16.46 17.466 16.6287 17.3497 16.7575C15.4822 18.8175 12.8035 20 9.99972 20C7.19597 20 4.51597 18.8188 2.64972 16.7575C2.53347 16.6287 2.47472 16.4588 2.48972 16.2863C2.50347 16.1138 2.58847 15.955 2.72347 15.8475Z" fill="#1F2A53" fill-opacity="0.35"/>
</svg>
