<svg width="18" height="18" viewBox="0 0 18 18" fill="none" xmlns="http://www.w3.org/2000/svg">
<path d="M1 16.9782L2.46604 13.6018C1.34444 12.0097 0.842438 10.0629 1.05424 8.12694C1.26604 6.19094 2.17708 4.39878 3.6164 3.08679C5.05572 1.7748 6.92436 1.03317 8.87164 1.00109C10.8189 0.968999 12.711 1.64866 14.1928 2.91251C15.6745 4.17637 16.6441 5.93754 16.9196 7.86551C17.1951 9.79348 16.7575 11.7557 15.6889 13.384C14.6204 15.0122 12.9944 16.1945 11.116 16.7091C9.23768 17.2236 7.23612 17.0349 5.48697 16.1785L1 16.9782" stroke="#1F2A53" stroke-opacity="0.75" stroke-width="1.5" stroke-linecap="round" stroke-linejoin="round"/>
<path d="M6.33105 7.20483C6.33105 7.32266 6.37786 7.43566 6.46117 7.51897C6.54449 7.60228 6.65749 7.64909 6.77531 7.64909C6.89313 7.64909 7.00613 7.60228 7.08945 7.51897C7.17276 7.43566 7.21956 7.32266 7.21956 7.20483V6.31633C7.21956 6.1985 7.17276 6.0855 7.08945 6.00219C7.00613 5.91888 6.89313 5.87207 6.77531 5.87207C6.65749 5.87207 6.54449 5.91888 6.46117 6.00219C6.37786 6.0855 6.33105 6.1985 6.33105 6.31633V7.20483ZM6.33105 7.20483C6.33105 8.38307 6.79911 9.51305 7.63225 10.3462C8.46539 11.1793 9.59537 11.6474 10.7736 11.6474H11.6621C11.7799 11.6474 11.8929 11.6006 11.9762 11.5173C12.0596 11.4339 12.1064 11.321 12.1064 11.2031C12.1064 11.0853 12.0596 10.9723 11.9762 10.889C11.8929 10.8057 11.7799 10.7589 11.6621 10.7589H10.7736C10.6558 10.7589 10.5428 10.8057 10.4595 10.889C10.3762 10.9723 10.3293 11.0853 10.3293 11.2031C10.3293 11.321 10.3762 11.4339 10.4595 11.5173C10.5428 11.6006 10.6558 11.6474 10.7736 11.6474" stroke="#1F2A53" stroke-opacity="0.75" stroke-width="1.5" stroke-linecap="round" stroke-linejoin="round"/>
</svg>
