<svg width="32" height="32" viewBox="0 0 32 32" fill="none" xmlns="http://www.w3.org/2000/svg">
<g clip-path="url(#clip0)">
<path d="M17.3906 27.1307H0.695152V31.3046H17.3906V27.1307Z" fill="#F7D0D9"/>
<path d="M15.9996 13.2177L10.4345 18.7829L4.86933 13.2177L13.2171 4.86996L18.7822 10.4351L15.9996 13.2177Z" fill="#F7D0D9"/>
<path d="M2.98682 11.3347C3.25855 11.0627 3.69843 11.0627 3.97016 11.3347L4.86961 12.2342L12.234 4.87014L11.3346 3.97069C11.0625 3.69861 11.0625 3.25908 11.3346 2.987L14.1171 0.204423C14.3889 -0.0676528 14.8287 -0.0676528 15.1005 0.204423L23.4482 8.55216C23.7203 8.82424 23.7203 9.26377 23.4482 9.53585L20.6656 12.3184C20.5301 12.454 20.3521 12.5222 20.1738 12.5222C19.9958 12.5222 19.8178 12.454 19.6823 12.3184L18.7825 11.419L16.9836 13.2179L31.7959 28.0302C32.068 28.3023 32.068 28.7418 31.7959 29.0139L29.0134 31.7965C28.8778 31.932 28.6998 32.0003 28.5215 32.0003C28.3435 32.0003 28.1655 31.932 28.03 31.7965L13.2173 16.9841L11.4184 18.783L12.3179 19.6825C12.59 19.9546 12.59 20.3941 12.3179 20.6662L9.53532 23.4488C9.39979 23.5843 9.2218 23.6526 9.04347 23.6526C8.86549 23.6526 8.6875 23.5843 8.55197 23.4488L0.204237 15.101C-0.0678368 14.8289 -0.0678368 14.3894 0.204237 14.1173L2.98682 11.3347ZM20.1738 10.8429L21.973 9.04401L14.6086 1.67995L12.8097 3.47885L20.1738 10.8429ZM28.5215 30.321L30.3208 28.5221L15.9999 14.2016L14.201 16.0005L28.5215 30.321ZM17.7992 10.4353L13.2173 5.85382L5.85329 13.2179L10.4348 17.7994L17.7992 10.4353ZM9.04347 21.9732L10.8427 20.1743L3.47832 12.8103L1.67942 14.6092L9.04347 21.9732Z" fill="#D80739"/>
<path d="M0.695797 26.4352H17.3913C17.7761 26.4352 18.0869 26.7459 18.0869 27.1308V31.3047C18.0869 31.6895 17.7761 32.0003 17.3913 32.0003H0.695797C0.311291 32.0003 0.000152588 31.6895 0.000152588 31.3047V27.1308C0.000152588 26.7459 0.311291 26.4352 0.695797 26.4352ZM1.39144 30.609H16.6956V27.8264H1.39144V30.609Z" fill="#D80739"/>
</g>
<defs>
<clipPath id="clip0">
<rect width="32" height="32" fill="white" transform="matrix(-1 0 0 1 32 0)"/>
</clipPath>
</defs>
</svg>
