<svg width="32" height="32" viewBox="0 0 32 32" fill="none" xmlns="http://www.w3.org/2000/svg">
<g clip-path="url(#clip0)">
<path d="M17.3911 27.1306H0.695641V31.3045H17.3911V27.1306Z" fill="#E5EBED"/>
<path d="M16.0001 13.2176L10.435 18.7828L4.86982 13.2176L13.2176 4.86987L18.7827 10.435L16.0001 13.2176Z" fill="#E5EBED"/>
<path d="M2.98682 11.3346C3.25855 11.0625 3.69843 11.0625 3.97016 11.3346L4.86961 12.2341L12.234 4.87001L11.3346 3.97057C11.0625 3.69849 11.0625 3.25896 11.3346 2.98688L14.1171 0.204301C14.3889 -0.0677749 14.8287 -0.0677749 15.1005 0.204301L23.4482 8.55204C23.7203 8.82412 23.7203 9.26365 23.4482 9.53573L20.6656 12.3183C20.5301 12.4538 20.3521 12.5221 20.1738 12.5221C19.9958 12.5221 19.8178 12.4538 19.6823 12.3183L18.7825 11.4189L16.9836 13.2178L31.7959 28.0301C32.068 28.3022 32.068 28.7417 31.7959 29.0138L29.0134 31.7964C28.8778 31.9319 28.6998 32.0002 28.5215 32.0002C28.3435 32.0002 28.1655 31.9319 28.03 31.7964L13.2173 16.984L11.4184 18.7829L12.3179 19.6824C12.59 19.9544 12.59 20.394 12.3179 20.666L9.53532 23.4486C9.39979 23.5842 9.2218 23.6524 9.04347 23.6524C8.86549 23.6524 8.6875 23.5842 8.55197 23.4486L0.204237 15.1009C-0.0678368 14.8288 -0.0678368 14.3893 0.204237 14.1172L2.98682 11.3346ZM20.1738 10.8428L21.973 9.04389L14.6086 1.67983L12.8097 3.47872L20.1738 10.8428ZM28.5215 30.3208L30.3208 28.5219L15.9999 14.2014L14.201 16.0003L28.5215 30.3208ZM17.7992 10.4352L13.2173 5.8537L5.85329 13.2178L10.4348 17.7992L17.7992 10.4352ZM9.04347 21.9731L10.8427 20.1742L3.47832 12.8102L1.67942 14.609L9.04347 21.9731Z" fill="#7F8791"/>
<path d="M0.695797 26.4351H17.3913C17.7761 26.4351 18.0869 26.7459 18.0869 27.1307V31.3046C18.0869 31.6894 17.7761 32.0002 17.3913 32.0002H0.695797C0.311291 32.0002 0.000152588 31.6894 0.000152588 31.3046V27.1307C0.000152588 26.7459 0.311291 26.4351 0.695797 26.4351ZM1.39144 30.6089H16.6956V27.8263H1.39144V30.6089Z" fill="#7F8791"/>
</g>
<defs>
<clipPath id="clip0">
<rect width="32" height="32" fill="white" transform="matrix(-1 0 0 1 32 0)"/>
</clipPath>
</defs>
</svg>
