<svg width="32" height="32" viewBox="0 0 32 32" fill="none" xmlns="http://www.w3.org/2000/svg">
<path d="M25.3337 6.12646C27.1011 6.12646 28.5337 7.55913 28.5337 9.32647L28.5324 19.4232C28.5324 21.0764 27.1117 22.5405 25.3337 22.5405H3.7337C1.96636 22.5405 0.533691 21.1078 0.533691 19.3405V9.32647C0.533691 7.55913 1.96636 6.12646 3.7337 6.12646H25.3337Z" fill="#FDF3F5"/>
<path d="M31.0554 29.0457L29.1812 30.9199C28.9601 31.141 28.597 31.1253 28.3958 30.8859L25.7648 27.7556C25.5636 27.5162 25.2005 27.5004 24.9794 27.7216L24.1285 28.5725C23.843 28.858 23.3561 28.7347 23.2403 28.3479C21.616 22.9214 21.5516 22.706 21.2839 21.8122C21.1621 21.4055 21.5413 21.0264 21.948 21.1481C26.8729 22.6222 25.815 22.3055 28.4837 23.1046C28.8703 23.2204 28.9938 23.7073 28.7085 23.9928L27.8571 24.8444C27.6361 25.0656 27.6518 25.4286 27.8912 25.6298L31.0214 28.2603C31.2608 28.4615 31.2765 28.8245 31.0554 29.0457Z" fill="#FDF3F5"/>
<path d="M25.3797 8.79038C23.2973 8.78938 19.7457 8.79125 13.6459 8.79225C8.08317 8.79318 3.19996 13.2037 3.19823 19.3931C3.1977 21.1251 0.533691 21.2354 0.533691 19.3402V9.32618C0.533691 7.55885 1.96636 6.12618 3.7337 6.12618C3.8819 6.12618 25.3603 6.12498 25.4531 6.12838C27.1802 6.19178 27.1079 8.79125 25.3797 8.79038Z" fill="#F7D0D9"/>
<path d="M24.8259 26.9619C24.9554 27.3941 24.8377 27.863 24.5189 28.1823C24.4139 28.2876 24.2857 28.4159 24.1291 28.5725C23.8438 28.8578 23.3565 28.7345 23.2404 28.3478C21.6164 22.9218 21.5518 22.7058 21.2844 21.8124C21.1624 21.4058 21.5418 21.0264 21.9484 21.1484C22.1642 21.213 22.3687 21.2742 22.5626 21.3321C22.9625 21.4517 23.2742 21.7659 23.39 22.167C23.5665 22.7783 23.9631 24.0831 24.8259 26.9619Z" fill="#F7D0D9"/>
<path d="M10.271 25.5071C10.4793 25.7154 10.4793 26.053 10.271 26.2613L9.61109 26.9212C9.50689 27.0254 9.37049 27.0774 9.23395 27.0774C8.76309 27.0774 8.51982 26.504 8.85682 26.167L9.51675 25.507C9.72509 25.2988 10.0627 25.2988 10.271 25.5071ZM18.3667 22.0068H3.73334C2.26294 22.0068 1.06667 20.8105 1.06667 19.3401V9.32638C1.06667 7.85598 2.26294 6.65971 3.73334 6.65971H25.3334C26.8038 6.65971 28.0001 7.85598 28.0001 9.32638V16.2143C28.0001 16.5089 28.2389 16.7477 28.5334 16.7477C28.8279 16.7477 29.0667 16.5089 29.0667 16.2143V9.32638C29.0667 7.26785 27.392 5.59304 25.3334 5.59304H3.73334C1.67474 5.59304 0 7.26785 0 9.32638V19.3402C0 21.3987 1.67474 23.0735 3.73334 23.0735H18.3667C18.6612 23.0735 18.9 22.8347 18.9 22.5402C18.9 22.2457 18.6612 22.0068 18.3667 22.0068ZM9.51675 3.15937C9.62095 3.2635 9.75735 3.31557 9.89389 3.31557C10.3648 3.31557 10.608 2.7421 10.271 2.4051L9.61109 1.74517C9.40275 1.5369 9.06515 1.5369 8.85682 1.74517C8.64855 1.95344 8.64855 2.2911 8.85682 2.49937L9.51675 3.15937ZM14.5334 2.1355C14.8279 2.1355 15.0667 1.8967 15.0667 1.60217V0.668832C15.0667 0.374299 14.8279 0.135498 14.5334 0.135498C14.2388 0.135498 14 0.374299 14 0.668832V1.60217C14 1.89677 14.2388 2.1355 14.5334 2.1355ZM19.55 3.15937L20.2099 2.49944C20.4182 2.29117 20.4182 1.9535 20.2099 1.74523C20.0016 1.53697 19.664 1.53697 19.4556 1.74523L18.7957 2.40517C18.5874 2.61344 18.5874 2.9511 18.7957 3.15937C19.004 3.3677 19.3416 3.36764 19.55 3.15937ZM14.5334 26.531C14.2388 26.531 14 26.7698 14 27.0643V27.9976C14 28.2922 14.2388 28.531 14.5334 28.531C14.8279 28.531 15.0667 28.2922 15.0667 27.9976V27.0643C15.0667 26.7698 14.8279 26.531 14.5334 26.531ZM31.8098 28.2258L28.2343 25.2212L29.7173 23.7382C30.0026 23.4528 29.879 22.9657 29.4931 22.8501L21.1529 20.3534C20.7467 20.2318 20.3675 20.6115 20.489 21.0173L22.9858 29.3574C23.1012 29.743 23.5882 29.867 23.8738 29.5815L25.7681 27.6872C25.9764 27.479 25.9764 27.1413 25.7681 26.933C25.5598 26.7248 25.2222 26.7248 25.0139 26.933L23.7514 28.1955L21.7945 21.6589L28.3311 23.6158L27.0686 24.8783C26.8477 25.0992 26.8633 25.4626 27.1027 25.6637L30.6782 28.6682L28.8039 30.5426L27.7684 29.3104C27.5789 29.0848 27.2425 29.0557 27.017 29.2451C26.7915 29.4346 26.7623 29.771 26.9517 29.9965L28.3614 31.6741C28.5626 31.9135 28.9258 31.9291 29.1469 31.7081L31.8438 29.0112C32.0648 28.7902 32.0492 28.4268 31.8098 28.2258ZM9.60549 14.3333C10.0773 14.7385 10.377 15.3388 10.377 16.0081C10.377 16.3027 10.1382 16.5415 9.84369 16.5415C9.54915 16.5415 9.31035 16.3027 9.31035 16.0081C9.31035 15.3787 8.79822 14.8666 8.16882 14.8666H6.35728V17.1497H8.16882C8.46335 17.1497 8.70215 17.3885 8.70215 17.683C8.70215 17.9775 8.46335 18.2163 8.16882 18.2163H5.82395C5.52941 18.2163 5.29061 17.9775 5.29061 17.683C5.29061 16.9748 5.29061 11.6937 5.29061 10.9835C5.29061 10.6889 5.52941 10.4501 5.82395 10.4501H8.16882C10.2036 10.4501 11.1611 12.997 9.60549 14.3333ZM9.31035 12.6584C9.31035 12.0289 8.79822 11.5169 8.16882 11.5169H6.35728V13.7999H8.16882C8.79828 13.7999 9.31035 13.2878 9.31035 12.6584ZM12.5236 10.4501C12.229 10.4501 11.9902 10.6889 11.9902 10.9835V15.6731C11.9902 17.0755 13.1311 18.2163 14.5334 18.2163C15.9356 18.2163 17.0765 17.0755 17.0765 15.6731V10.9835C17.0765 10.6889 16.8377 10.4501 16.5432 10.4501C16.2486 10.4501 16.0098 10.6889 16.0098 10.9835V15.6731C16.0098 16.4873 15.3474 17.1497 14.5334 17.1497C13.7193 17.1497 13.0569 16.4873 13.0569 15.6731V10.9835C13.0569 10.6889 12.8181 10.4501 12.5236 10.4501ZM28.5334 18.1309C28.2389 18.1309 28.0001 18.3697 28.0001 18.6643V19.3401C28.0001 19.6347 28.2389 19.8735 28.5334 19.8735C28.8279 19.8735 29.0667 19.6347 29.0667 19.3401V18.6643C29.0667 18.3697 28.8279 18.1309 28.5334 18.1309ZM21.2328 18.2154C21.5274 18.2154 21.7662 17.9766 21.7662 17.6821V14.4811L23.7001 11.2579C23.8516 11.0053 23.7697 10.6777 23.5172 10.5262C23.2644 10.3745 22.937 10.4566 22.7854 10.7091L21.2328 13.2967L19.6804 10.7091C19.5289 10.4565 19.2013 10.3747 18.9486 10.5262C18.696 10.6777 18.6141 11.0053 18.7656 11.2579L20.6995 14.4811V17.6821C20.6995 17.9766 20.9383 18.2154 21.2328 18.2154Z" fill="#D80739"/>
</svg>
