<svg width="32" height="32" viewBox="0 0 32 32" fill="none" xmlns="http://www.w3.org/2000/svg">
<path d="M25.3342 6.12637C27.1016 6.12637 28.5342 7.55904 28.5342 9.32638L28.5329 19.4231C28.5329 21.0763 27.1122 22.5404 25.3342 22.5404H3.73419C1.96685 22.5404 0.53418 21.1077 0.53418 19.3404V9.32638C0.53418 7.55904 1.96685 6.12637 3.73419 6.12637H25.3342Z" fill="#F8FAFB"/>
<path d="M31.0554 29.0456L29.1812 30.9198C28.9601 31.1409 28.597 31.1252 28.3958 30.8858L25.7648 27.7555C25.5636 27.5161 25.2005 27.5004 24.9794 27.7215L24.1285 28.5724C23.843 28.8579 23.3561 28.7346 23.2403 28.3478C21.616 22.9213 21.5516 22.7059 21.2839 21.8121C21.1621 21.4054 21.5413 21.0263 21.948 21.148C26.8729 22.6221 25.815 22.3054 28.4837 23.1045C28.8703 23.2203 28.9938 23.7072 28.7085 23.9927L27.8571 24.8444C27.6361 25.0655 27.6518 25.4286 27.8912 25.6298L31.0214 28.2602C31.2608 28.4614 31.2765 28.8244 31.0554 29.0456Z" fill="#F8FAFB"/>
<path d="M25.3802 8.79045C23.2978 8.78945 19.7462 8.79131 13.6464 8.79231C8.08366 8.79325 3.20045 13.2037 3.19872 19.3931C3.19818 21.1251 0.53418 21.2355 0.53418 19.3403V9.32625C0.53418 7.55891 1.96685 6.12624 3.73419 6.12624C3.88239 6.12624 25.3608 6.12504 25.4536 6.12844C27.1807 6.19184 27.1084 8.79131 25.3802 8.79045Z" fill="#E5EBED"/>
<path d="M24.8254 26.962C24.9549 27.3942 24.8372 27.8631 24.5184 28.1824C24.4134 28.2877 24.2852 28.416 24.1286 28.5726C23.8433 28.8579 23.356 28.7346 23.24 28.3479C21.6159 22.9219 21.5513 22.7059 21.2839 21.8125C21.1619 21.4059 21.5413 21.0265 21.948 21.1485C22.1638 21.2131 22.3682 21.2743 22.5621 21.3322C22.962 21.4518 23.2738 21.766 23.3896 22.1671C23.566 22.7784 23.9626 24.0831 24.8254 26.962Z" fill="#E5EBED"/>
<path d="M10.271 25.507C10.4793 25.7153 10.4793 26.0529 10.271 26.2612L9.61109 26.9211C9.50689 27.0253 9.37049 27.0773 9.23395 27.0773C8.76309 27.0773 8.51982 26.5039 8.85682 26.1669L9.51675 25.5069C9.72509 25.2987 10.0627 25.2987 10.271 25.507ZM18.3667 22.0067H3.73334C2.26294 22.0067 1.06667 20.8104 1.06667 19.34V9.32629C1.06667 7.85589 2.26294 6.65962 3.73334 6.65962H25.3334C26.8038 6.65962 28.0001 7.85589 28.0001 9.32629V16.2142C28.0001 16.5088 28.2389 16.7476 28.5334 16.7476C28.8279 16.7476 29.0667 16.5088 29.0667 16.2142V9.32629C29.0667 7.26776 27.392 5.59295 25.3334 5.59295H3.73334C1.67474 5.59295 0 7.26776 0 9.32629V19.3401C0 21.3987 1.67474 23.0735 3.73334 23.0735H18.3667C18.6612 23.0735 18.9 22.8347 18.9 22.5401C18.9 22.2456 18.6612 22.0067 18.3667 22.0067ZM9.51675 3.15928C9.62095 3.26341 9.75735 3.31548 9.89389 3.31548C10.3648 3.31548 10.608 2.74201 10.271 2.40501L9.61109 1.74508C9.40275 1.53681 9.06515 1.53681 8.85682 1.74508C8.64855 1.95334 8.64855 2.29101 8.85682 2.49928L9.51675 3.15928ZM14.5334 2.13541C14.8279 2.13541 15.0667 1.89661 15.0667 1.60208V0.668741C15.0667 0.374207 14.8279 0.135406 14.5334 0.135406C14.2388 0.135406 14 0.374207 14 0.668741V1.60208C14 1.89668 14.2388 2.13541 14.5334 2.13541ZM19.55 3.15928L20.2099 2.49934C20.4182 2.29108 20.4182 1.95341 20.2099 1.74514C20.0016 1.53688 19.664 1.53688 19.4556 1.74514L18.7957 2.40508C18.5874 2.61334 18.5874 2.95101 18.7957 3.15928C19.004 3.36761 19.3416 3.36755 19.55 3.15928ZM14.5334 26.5309C14.2388 26.5309 14 26.7697 14 27.0642V27.9975C14 28.2921 14.2388 28.5309 14.5334 28.5309C14.8279 28.5309 15.0667 28.2921 15.0667 27.9975V27.0642C15.0667 26.7697 14.8279 26.5309 14.5334 26.5309ZM31.8098 28.2257L28.2343 25.2211L29.7173 23.7381C30.0026 23.4527 29.879 22.9657 29.4931 22.8501L21.1529 20.3533C20.7467 20.2317 20.3675 20.6115 20.489 21.0172L22.9858 29.3573C23.1012 29.7429 23.5882 29.8669 23.8738 29.5814L25.7681 27.6871C25.9764 27.4789 25.9764 27.1412 25.7681 26.9329C25.5598 26.7247 25.2222 26.7247 25.0139 26.9329L23.7514 28.1954L21.7945 21.6589L28.3311 23.6157L27.0686 24.8782C26.8477 25.0991 26.8633 25.4625 27.1027 25.6636L30.6782 28.6681L28.8039 30.5425L27.7684 29.3103C27.5789 29.0847 27.2425 29.0556 27.017 29.245C26.7915 29.4345 26.7623 29.7709 26.9517 29.9964L28.3614 31.674C28.5626 31.9134 28.9258 31.929 29.1469 31.708L31.8438 29.0111C32.0648 28.7901 32.0492 28.4267 31.8098 28.2257ZM9.60549 14.3332C10.0773 14.7384 10.377 15.3387 10.377 16.008C10.377 16.3026 10.1382 16.5414 9.84369 16.5414C9.54915 16.5414 9.31035 16.3026 9.31035 16.008C9.31035 15.3786 8.79822 14.8665 8.16882 14.8665H6.35728V17.1496H8.16882C8.46335 17.1496 8.70215 17.3884 8.70215 17.6829C8.70215 17.9774 8.46335 18.2162 8.16882 18.2162H5.82395C5.52941 18.2162 5.29061 17.9774 5.29061 17.6829C5.29061 16.9747 5.29061 11.6936 5.29061 10.9834C5.29061 10.6888 5.52941 10.45 5.82395 10.45H8.16882C10.2036 10.45 11.1611 12.9969 9.60549 14.3332ZM9.31035 12.6583C9.31035 12.0288 8.79822 11.5168 8.16882 11.5168H6.35728V13.7998H8.16882C8.79828 13.7998 9.31035 13.2877 9.31035 12.6583ZM12.5236 10.45C12.229 10.45 11.9902 10.6888 11.9902 10.9834V15.673C11.9902 17.0754 13.1311 18.2162 14.5334 18.2162C15.9356 18.2162 17.0765 17.0754 17.0765 15.673V10.9834C17.0765 10.6888 16.8377 10.45 16.5432 10.45C16.2486 10.45 16.0098 10.6888 16.0098 10.9834V15.673C16.0098 16.4872 15.3474 17.1496 14.5334 17.1496C13.7193 17.1496 13.0569 16.4872 13.0569 15.673V10.9834C13.0569 10.6888 12.8181 10.45 12.5236 10.45ZM28.5334 18.1308C28.2389 18.1308 28.0001 18.3696 28.0001 18.6642V19.34C28.0001 19.6346 28.2389 19.8734 28.5334 19.8734C28.8279 19.8734 29.0667 19.6346 29.0667 19.34V18.6642C29.0667 18.3696 28.8279 18.1308 28.5334 18.1308ZM21.2328 18.2153C21.5274 18.2153 21.7662 17.9765 21.7662 17.682V14.481L23.7001 11.2578C23.8516 11.0052 23.7697 10.6776 23.5172 10.5261C23.2644 10.3744 22.937 10.4565 22.7854 10.709L21.2328 13.2966L19.6804 10.709C19.5289 10.4564 19.2013 10.3746 18.9486 10.5261C18.696 10.6776 18.6141 11.0052 18.7656 11.2578L20.6995 14.481V17.682C20.6995 17.9765 20.9383 18.2153 21.2328 18.2153Z" fill="#7F8791"/>
</svg>
