<svg width="56" height="72" viewBox="0 0 56 72" fill="none" xmlns="http://www.w3.org/2000/svg">
<path d="M55.4219 18.9844L40.6562 14.7656L36.4375 0H6.90625C3.4113 0 0.578125 2.83317 0.578125 6.32812V65.6719C0.578125 69.1668 3.4113 72 6.90625 72H49.0938C52.5887 72 55.4219 69.1668 55.4219 65.6719V18.9844Z" fill="#4086F4"/>
<path d="M55.4219 18.9844V65.6719C55.4219 69.1668 52.5887 72 49.0938 72H28V0H36.4375L40.6562 14.7656L55.4219 18.9844Z" fill="#4175DF"/>
<path d="M55.4219 18.9844H40.6562C38.3359 18.9844 36.4375 17.0859 36.4375 14.7656V0C36.9859 0 37.5344 0.210938 37.9139 0.632953L54.7889 17.508C55.2109 17.8875 55.4219 18.4359 55.4219 18.9844Z" fill="#80AEF8"/>
<path d="M40.6562 33.8906H15.3438C14.1778 33.8906 13.2344 32.9472 13.2344 31.7812C13.2344 30.6153 14.1778 29.6719 15.3438 29.6719H40.6562C41.8222 29.6719 42.7656 30.6153 42.7656 31.7812C42.7656 32.9472 41.8222 33.8906 40.6562 33.8906Z" fill="#FFF5F5"/>
<path d="M40.6562 42.3281H15.3438C14.1778 42.3281 13.2344 41.3847 13.2344 40.2188C13.2344 39.0528 14.1778 38.1094 15.3438 38.1094H40.6562C41.8222 38.1094 42.7656 39.0528 42.7656 40.2188C42.7656 41.3847 41.8222 42.3281 40.6562 42.3281Z" fill="#FFF5F5"/>
<path d="M40.6562 50.7656H15.3438C14.1778 50.7656 13.2344 49.8222 13.2344 48.6562C13.2344 47.4903 14.1778 46.5469 15.3438 46.5469H40.6562C41.8222 46.5469 42.7656 47.4903 42.7656 48.6562C42.7656 49.8222 41.8222 50.7656 40.6562 50.7656Z" fill="#FFF5F5"/>
<path d="M32.2188 59.2031H15.3438C14.1778 59.2031 13.2344 58.2597 13.2344 57.0938C13.2344 55.9278 14.1778 54.9844 15.3438 54.9844H32.2188C33.3847 54.9844 34.3281 55.9278 34.3281 57.0938C34.3281 58.2597 33.3847 59.2031 32.2188 59.2031Z" fill="#FFF5F5"/>
<path d="M28 59.2031H32.2188C33.3847 59.2031 34.3281 58.2597 34.3281 57.0938C34.3281 55.9278 33.3847 54.9844 32.2188 54.9844H28V59.2031Z" fill="#E3E7EA"/>
<path d="M28 50.7656H40.6562C41.8222 50.7656 42.7656 49.8222 42.7656 48.6562C42.7656 47.4903 41.8222 46.5469 40.6562 46.5469H28V50.7656Z" fill="#E3E7EA"/>
<path d="M28 42.3281H40.6562C41.8222 42.3281 42.7656 41.3847 42.7656 40.2188C42.7656 39.0528 41.8222 38.1094 40.6562 38.1094H28V42.3281Z" fill="#E3E7EA"/>
<path d="M28 33.8906H40.6562C41.8222 33.8906 42.7656 32.9472 42.7656 31.7812C42.7656 30.6153 41.8222 29.6719 40.6562 29.6719H28V33.8906Z" fill="#E3E7EA"/>
</svg>
