<svg width="80" height="80" viewBox="0 0 80 80" fill="none" xmlns="http://www.w3.org/2000/svg">
<g clip-path="url(#clip0_2465_0)">
<path d="M75.1707 13.4404H70.3418L75.1707 25.5129H79.9996V18.2695C79.9996 15.6136 77.8266 13.4404 75.1707 13.4404Z" fill="#FF4D6B"/>
<path d="M70.3418 13.4404H30.3418V25.5129H75.1707V18.2695C75.1709 15.6136 72.9977 13.4404 70.3418 13.4404Z" fill="#FF738D"/>
<path d="M75.1707 61.7305L70.3418 73.803H75.1707C77.8266 73.803 79.9996 71.63 79.9996 68.9741V66.5595L75.1707 61.7305Z" fill="#FF738D"/>
<path d="M75.1711 68.9739V61.7305L0 66.5594V68.9739C0 71.6298 2.17297 73.8028 4.82891 73.8028H70.342C72.998 73.8028 75.1711 71.6298 75.1711 68.9739Z" fill="#FF91A5"/>
<path d="M75.1707 20.6846H70.3418L75.1707 66.5599H79.9996V25.5136C79.9996 22.8577 77.8266 20.6846 75.1707 20.6846Z" fill="#FF91A5"/>
<path d="M75.1711 25.513C75.1711 22.8571 72.9981 20.6841 70.3422 20.6841H44.8289L37.8495 10.2151C36.3764 8.00539 32.9978 6.19727 30.3419 6.19727H4.82891C2.17297 6.19711 0 8.37008 0 11.026V66.5593H75.1711V25.513Z" fill="#FFB3C1"/>
</g>
<defs>
<clipPath id="clip0_2465_0">
<rect width="80" height="80" fill="white"/>
</clipPath>
</defs>
</svg>
