<svg width="147" height="25" viewBox="0 0 147 25" fill="none" xmlns="http://www.w3.org/2000/svg">
<path d="M28.0045 10.496C28.3138 10.0693 28.7351 9.72267 29.2685 9.456C29.8125 9.17867 30.4151 9.04 31.0765 9.04C31.8551 9.04 32.5591 9.22667 33.1885 9.6C33.8178 9.97333 34.3138 10.5067 34.6765 11.2C35.0391 11.8827 35.2205 12.6667 35.2205 13.552C35.2205 14.4373 35.0391 15.232 34.6765 15.936C34.3138 16.6293 33.8125 17.1733 33.1725 17.568C32.5431 17.952 31.8445 18.144 31.0765 18.144C30.3938 18.144 29.7858 18.0107 29.2525 17.744C28.7298 17.4773 28.3138 17.136 28.0045 16.72V18H26.1805V6.16H28.0045V10.496ZM33.3645 13.552C33.3645 12.944 33.2365 12.4213 32.9805 11.984C32.7351 11.536 32.4045 11.2 31.9885 10.976C31.5831 10.7413 31.1458 10.624 30.6765 10.624C30.2178 10.624 29.7805 10.7413 29.3645 10.976C28.9591 11.2107 28.6285 11.552 28.3725 12C28.1271 12.448 28.0045 12.976 28.0045 13.584C28.0045 14.192 28.1271 14.7253 28.3725 15.184C28.6285 15.632 28.9591 15.9733 29.3645 16.208C29.7805 16.4427 30.2178 16.56 30.6765 16.56C31.1458 16.56 31.5831 16.4427 31.9885 16.208C32.4045 15.9627 32.7351 15.6107 32.9805 15.152C33.2365 14.6933 33.3645 14.16 33.3645 13.552ZM45.0082 9.184V18H43.1842V16.96C42.8962 17.3227 42.5176 17.6107 42.0482 17.824C41.5896 18.0267 41.0989 18.128 40.5762 18.128C39.8829 18.128 39.2589 17.984 38.7042 17.696C38.1602 17.408 37.7282 16.9813 37.4082 16.416C37.0989 15.8507 36.9442 15.168 36.9442 14.368V9.184H38.7522V14.096C38.7522 14.8853 38.9496 15.4933 39.3442 15.92C39.7389 16.336 40.2776 16.544 40.9602 16.544C41.6429 16.544 42.1816 16.336 42.5762 15.92C42.9816 15.4933 43.1842 14.8853 43.1842 14.096V9.184H45.0082ZM55.3508 9.184L49.9428 22.144H48.0548L49.8468 17.856L46.3748 9.184H48.4068L50.8868 15.904L53.4628 9.184H55.3508ZM58.5513 6.16V18H56.7273V6.16H58.5513ZM61.8741 8.016C61.5434 8.016 61.2661 7.904 61.0421 7.68C60.8181 7.456 60.7061 7.17867 60.7061 6.848C60.7061 6.51733 60.8181 6.24 61.0421 6.016C61.2661 5.792 61.5434 5.68 61.8741 5.68C62.1941 5.68 62.4661 5.792 62.6901 6.016C62.9141 6.24 63.0261 6.51733 63.0261 6.848C63.0261 7.17867 62.9141 7.456 62.6901 7.68C62.4661 7.904 62.1941 8.016 61.8741 8.016ZM62.7701 9.184V18H60.9461V9.184H62.7701ZM68.6528 13.6L72.7168 18H70.2528L66.9888 14.208V18H65.1648V6.16H66.9888V13.04L70.1888 9.184H72.7168L68.6528 13.6ZM82.1042 13.376C82.1042 13.7067 82.0829 14.0053 82.0402 14.272H75.3042C75.3576 14.976 75.6189 15.5413 76.0882 15.968C76.5576 16.3947 77.1336 16.608 77.8162 16.608C78.7976 16.608 79.4909 16.1973 79.8962 15.376H81.8642C81.5976 16.1867 81.1122 16.8533 80.4082 17.376C79.7149 17.888 78.8509 18.144 77.8162 18.144C76.9736 18.144 76.2162 17.9573 75.5442 17.584C74.8829 17.2 74.3602 16.6667 73.9762 15.984C73.6029 15.2907 73.4162 14.4907 73.4162 13.584C73.4162 12.6773 73.5976 11.8827 73.9602 11.2C74.3336 10.5067 74.8509 9.97333 75.5122 9.6C76.1842 9.22667 76.9522 9.04 77.8162 9.04C78.6482 9.04 79.3896 9.22133 80.0402 9.584C80.6909 9.94667 81.1976 10.4587 81.5602 11.12C81.9229 11.7707 82.1042 12.5227 82.1042 13.376ZM80.2002 12.8C80.1896 12.128 79.9496 11.5893 79.4802 11.184C79.0109 10.7787 78.4296 10.576 77.7362 10.576C77.1069 10.576 76.5682 10.7787 76.1202 11.184C75.6722 11.5787 75.4056 12.1173 75.3202 12.8H80.2002ZM83.2912 13.552C83.2912 12.6667 83.4726 11.8827 83.8352 11.2C84.2086 10.5173 84.7099 9.98933 85.3392 9.616C85.9792 9.232 86.6886 9.04 87.4672 9.04C88.0432 9.04 88.6086 9.168 89.1632 9.424C89.7286 9.66933 90.1766 10 90.5072 10.416V6.16H92.3472V18H90.5072V16.672C90.2086 17.0987 89.7926 17.4507 89.2592 17.728C88.7366 18.0053 88.1339 18.144 87.4512 18.144C86.6832 18.144 85.9792 17.952 85.3392 17.568C84.7099 17.1733 84.2086 16.6293 83.8352 15.936C83.4726 15.232 83.2912 14.4373 83.2912 13.552ZM90.5072 13.584C90.5072 12.976 90.3792 12.448 90.1232 12C89.8779 11.552 89.5526 11.2107 89.1472 10.976C88.7419 10.7413 88.3046 10.624 87.8352 10.624C87.3659 10.624 86.9286 10.7413 86.5232 10.976C86.1179 11.2 85.7872 11.536 85.5312 11.984C85.2859 12.4213 85.1632 12.944 85.1632 13.552C85.1632 14.16 85.2859 14.6933 85.5312 15.152C85.7872 15.6107 86.1179 15.9627 86.5232 16.208C86.9392 16.4427 87.3766 16.56 87.8352 16.56C88.3046 16.56 88.7419 16.4427 89.1472 16.208C89.5526 15.9733 89.8779 15.632 90.1232 15.184C90.3792 14.7253 90.5072 14.192 90.5072 13.584ZM102.823 13.376C102.823 13.7067 102.802 14.0053 102.759 14.272H96.023C96.0763 14.976 96.3376 15.5413 96.807 15.968C97.2763 16.3947 97.8523 16.608 98.535 16.608C99.5163 16.608 100.21 16.1973 100.615 15.376H102.583C102.316 16.1867 101.831 16.8533 101.127 17.376C100.434 17.888 99.5696 18.144 98.535 18.144C97.6923 18.144 96.935 17.9573 96.263 17.584C95.6016 17.2 95.079 16.6667 94.695 15.984C94.3216 15.2907 94.135 14.4907 94.135 13.584C94.135 12.6773 94.3163 11.8827 94.679 11.2C95.0523 10.5067 95.5696 9.97333 96.231 9.6C96.903 9.22667 97.671 9.04 98.535 9.04C99.367 9.04 100.108 9.22133 100.759 9.584C101.41 9.94667 101.916 10.4587 102.279 11.12C102.642 11.7707 102.823 12.5227 102.823 13.376ZM100.919 12.8C100.908 12.128 100.668 11.5893 100.199 11.184C99.7296 10.7787 99.1483 10.576 98.455 10.576C97.8256 10.576 97.287 10.7787 96.839 11.184C96.391 11.5787 96.1243 12.1173 96.039 12.8H100.919ZM104.01 13.552C104.01 12.6667 104.191 11.8827 104.554 11.2C104.927 10.5173 105.429 9.98933 106.058 9.616C106.698 9.232 107.402 9.04 108.17 9.04C108.863 9.04 109.466 9.17867 109.978 9.456C110.501 9.72267 110.917 10.0587 111.226 10.464V9.184H113.066V18H111.226V16.688C110.917 17.104 110.495 17.4507 109.962 17.728C109.429 18.0053 108.821 18.144 108.138 18.144C107.381 18.144 106.687 17.952 106.058 17.568C105.429 17.1733 104.927 16.6293 104.554 15.936C104.191 15.232 104.01 14.4373 104.01 13.552ZM111.226 13.584C111.226 12.976 111.098 12.448 110.842 12C110.597 11.552 110.271 11.2107 109.866 10.976C109.461 10.7413 109.023 10.624 108.554 10.624C108.085 10.624 107.647 10.7413 107.242 10.976C106.837 11.2 106.506 11.536 106.25 11.984C106.005 12.4213 105.882 12.944 105.882 13.552C105.882 14.16 106.005 14.6933 106.25 15.152C106.506 15.6107 106.837 15.9627 107.242 16.208C107.658 16.4427 108.095 16.56 108.554 16.56C109.023 16.56 109.461 16.4427 109.866 16.208C110.271 15.9733 110.597 15.632 110.842 15.184C111.098 14.7253 111.226 14.192 111.226 13.584ZM117.286 6.16V18H115.462V6.16H117.286ZM127.76 13.376C127.76 13.7067 127.739 14.0053 127.696 14.272H120.96C121.014 14.976 121.275 15.5413 121.744 15.968C122.214 16.3947 122.79 16.608 123.472 16.608C124.454 16.608 125.147 16.1973 125.552 15.376H127.52C127.254 16.1867 126.768 16.8533 126.064 17.376C125.371 17.888 124.507 18.144 123.472 18.144C122.63 18.144 121.872 17.9573 121.2 17.584C120.539 17.2 120.016 16.6667 119.632 15.984C119.259 15.2907 119.072 14.4907 119.072 13.584C119.072 12.6773 119.254 11.8827 119.616 11.2C119.99 10.5067 120.507 9.97333 121.168 9.6C121.84 9.22667 122.608 9.04 123.472 9.04C124.304 9.04 125.046 9.22133 125.696 9.584C126.347 9.94667 126.854 10.4587 127.216 11.12C127.579 11.7707 127.76 12.5227 127.76 13.376ZM125.856 12.8C125.846 12.128 125.606 11.5893 125.136 11.184C124.667 10.7787 124.086 10.576 123.392 10.576C122.763 10.576 122.224 10.7787 121.776 11.184C121.328 11.5787 121.062 12.1173 120.976 12.8H125.856ZM131.379 10.464C131.646 10.016 131.998 9.66933 132.435 9.424C132.883 9.168 133.411 9.04 134.019 9.04V10.928H133.555C132.841 10.928 132.297 11.1093 131.923 11.472C131.561 11.8347 131.379 12.464 131.379 13.36V18H129.555V9.184H131.379V10.464ZM138.896 18.144C138.203 18.144 137.579 18.0213 137.024 17.776C136.48 17.52 136.048 17.1787 135.728 16.752C135.408 16.3147 135.237 15.8293 135.216 15.296H137.104C137.136 15.6693 137.312 15.984 137.632 16.24C137.963 16.4853 138.373 16.608 138.864 16.608C139.376 16.608 139.771 16.512 140.048 16.32C140.336 16.1173 140.48 15.8613 140.48 15.552C140.48 15.2213 140.32 14.976 140 14.816C139.691 14.656 139.195 14.48 138.512 14.288C137.851 14.1067 137.312 13.9307 136.896 13.76C136.48 13.5893 136.117 13.328 135.808 12.976C135.509 12.624 135.36 12.16 135.36 11.584C135.36 11.1147 135.499 10.688 135.776 10.304C136.053 9.90933 136.448 9.6 136.96 9.376C137.483 9.152 138.08 9.04 138.752 9.04C139.755 9.04 140.56 9.296 141.168 9.808C141.787 10.3093 142.117 10.9973 142.16 11.872H140.336C140.304 11.4773 140.144 11.1627 139.856 10.928C139.568 10.6933 139.179 10.576 138.688 10.576C138.208 10.576 137.84 10.6667 137.584 10.848C137.328 11.0293 137.2 11.2693 137.2 11.568C137.2 11.8027 137.285 12 137.456 12.16C137.627 12.32 137.835 12.448 138.08 12.544C138.325 12.6293 138.688 12.7413 139.168 12.88C139.808 13.0507 140.331 13.2267 140.736 13.408C141.152 13.5787 141.509 13.8347 141.808 14.176C142.107 14.5173 142.261 14.9707 142.272 15.536C142.272 16.0373 142.133 16.4853 141.856 16.88C141.579 17.2747 141.184 17.584 140.672 17.808C140.171 18.032 139.579 18.144 138.896 18.144Z" fill="#0D101B"/>
<path fill-rule="evenodd" clip-rule="evenodd" d="M13.7962 0.520891H19.642C20.9145 0.520891 21.946 1.59458 21.946 2.91899V9.00335C21.9429 10.1475 21.5064 11.2443 20.7313 12.0556L10.4802 22.7241C9.43168 23.8144 7.73269 23.8144 6.68413 22.7241L1.59379 17.4252H7.73764C7.63019 17.212 7.56054 16.978 7.53878 16.7311C7.53397 16.6748 7.53007 16.6186 7.53007 16.561C7.53007 15.4615 8.45611 14.5665 9.59429 14.5665C10.7322 14.5665 11.6581 15.4612 11.6581 16.561C11.6581 16.6407 11.6521 16.7229 11.6402 16.8117C11.612 17.0291 11.5463 17.2331 11.4528 17.4217L12.939 17.2643C13.1683 17.2397 13.355 17.075 13.4006 16.8564C13.4295 16.7182 13.4588 16.5471 13.4787 16.3547C13.5779 15.3935 12.9843 14.4905 12.0432 14.1661C9.65432 13.3427 6.30483 13.4246 6.30483 13.4246C6.30483 13.4246 4.24222 12.4116 3.52031 12.1528C2.82119 11.902 2.09718 11.7468 1.36817 11.6681L10.8627 1.78514C11.6391 0.972912 12.6954 0.517654 13.7962 0.520891ZM0 13.4425C0.130409 13.082 0.334898 12.7439 0.613466 12.4537L0.966302 12.0864C3.08125 12.2399 4.37601 13.0471 4.37601 13.0471C4.17142 13.2634 4.21793 13.4425 4.21793 13.4425H0ZM14.5731 5.79667C14.5731 7.12108 15.6047 8.19473 16.8772 8.19473C18.1496 8.19473 19.1812 7.12104 19.1812 5.79663C19.1812 4.47222 18.1496 3.39857 16.8772 3.39857C15.6047 3.39857 14.5731 4.47226 14.5731 5.79667ZM11.3037 16.561C11.3037 15.6485 10.5385 14.9094 9.59461 14.9094C8.65025 14.9094 7.88504 15.6485 7.88527 16.5606C7.88527 16.6084 7.88825 16.6551 7.8926 16.7018C7.96683 17.5479 8.69974 18.2126 9.59461 18.2126C10.4654 18.2126 11.1828 17.5829 11.2886 16.7687C11.2978 16.7007 11.3037 16.6317 11.3037 16.561ZM10.1021 16.2756L10.4508 15.9388C10.5584 16.0772 10.6297 16.2408 10.6556 16.4209H10.1642C10.1504 16.3693 10.1293 16.3206 10.1021 16.2756ZM10.1621 16.7072H10.657C10.6306 16.8861 10.5575 17.0501 10.4494 17.1876L10.1002 16.8502C10.1277 16.8061 10.1479 16.7579 10.1621 16.7072ZM10.2382 17.3889C10.0959 17.4923 9.92773 17.5627 9.74238 17.5873V17.1108C9.79485 17.0973 9.84502 17.0785 9.89061 17.0528L10.2382 17.3889ZM9.89359 16.0726C9.84663 16.0458 9.79622 16.0256 9.74238 16.0119V15.5363C9.9291 15.5613 10.0989 15.6306 10.2421 15.7358L9.89359 16.0726ZM8.94717 15.736C9.09036 15.631 9.26035 15.5613 9.44661 15.5363V16.0119C9.393 16.0252 9.34237 16.0458 9.2954 16.0726L8.94717 15.736ZM9.44661 17.1108V17.5871C9.26127 17.5625 9.09288 17.4921 8.9506 17.3889L9.29861 17.0524C9.3442 17.0785 9.39415 17.0973 9.44661 17.1108ZM9.08898 16.85L8.73845 17.189C8.63032 17.0515 8.56021 16.8861 8.53409 16.7069H9.02529C9.03927 16.7583 9.06195 16.8059 9.08898 16.85ZM9.08715 16.2758C9.05989 16.3208 9.03904 16.3695 9.02506 16.4211L8.53364 16.4215C8.55929 16.2411 8.63055 16.0774 8.73845 15.939L9.08715 16.2758Z" fill="#D80739"/>
</svg>
