<svg width="513" height="512" viewBox="0 0 513 512" fill="none" xmlns="http://www.w3.org/2000/svg">
<path fill-rule="evenodd" clip-rule="evenodd" d="M321.359 0.000381396H456.68C486.136 0.000381396 510.014 23.8799 510.014 53.3355V188.655C509.943 214.103 499.839 238.495 481.897 256.54L244.601 493.814C220.328 518.062 180.999 518.062 156.727 493.814L38.8948 375.964H181.123C178.636 371.222 177.024 366.016 176.52 360.525C176.409 359.275 176.318 358.024 176.318 356.743C176.318 332.288 197.755 312.383 224.102 312.383C250.443 312.383 271.874 332.283 271.874 356.743C271.874 358.516 271.736 360.343 271.461 362.318C270.808 367.154 269.286 371.689 267.123 375.885L301.525 372.384C306.834 371.837 311.156 368.173 312.212 363.313C312.88 360.24 313.559 356.433 314.02 352.154C316.317 330.776 302.575 310.694 280.789 303.479C225.491 285.165 147.956 286.987 147.956 286.987C147.956 286.987 100.21 264.457 83.499 258.701C67.3126 253.123 50.5498 249.671 33.6712 247.921L253.454 28.118C271.425 10.0536 295.878 -0.0716201 321.359 0.000381396ZM2 287.386C5.01874 279.368 9.75242 271.848 16.201 265.393L24.3684 257.225C73.3317 260.637 103.307 278.591 103.307 278.591C98.5712 283.402 99.6477 287.386 99.6477 287.386H2ZM339.345 117.337C339.345 146.792 363.223 170.671 392.679 170.671C422.135 170.671 446.013 146.791 446.013 117.336C446.013 87.8802 422.135 64.0017 392.679 64.0017C363.223 64.0017 339.345 87.8812 339.345 117.337ZM263.664 356.743C263.664 336.449 245.951 320.011 224.101 320.011C202.241 320.011 184.527 336.449 184.533 356.733C184.533 357.797 184.602 358.836 184.702 359.875C186.421 378.692 203.386 393.476 224.101 393.476C244.259 393.476 260.864 379.47 263.314 361.363C263.526 359.851 263.664 358.314 263.664 356.743ZM235.848 350.396L243.92 342.905C246.412 345.983 248.062 349.622 248.661 353.626H237.285C236.967 352.479 236.479 351.395 235.848 350.396ZM237.237 359.993H248.693C248.083 363.973 246.391 367.622 243.888 370.68L235.806 363.175C236.442 362.195 236.909 361.121 237.237 359.993ZM238.998 375.156C235.705 377.456 231.812 379.022 227.522 379.569V368.971C228.736 368.671 229.898 368.252 230.953 367.681L238.998 375.156ZM231.022 345.88C229.935 345.284 228.768 344.836 227.522 344.53V333.952C231.844 334.509 235.774 336.05 239.088 338.389L231.022 345.88ZM209.114 338.394C212.428 336.06 216.363 334.509 220.675 333.952V344.53C219.434 344.826 218.262 345.284 217.175 345.88L209.114 338.394ZM220.675 368.971V379.564C216.385 379.017 212.487 377.451 209.193 375.156L217.249 367.671C218.304 368.252 219.461 368.671 220.675 368.971ZM212.397 363.17L204.282 370.709C201.779 367.651 200.156 363.973 199.552 359.989H210.922C211.246 361.131 211.771 362.19 212.397 363.17ZM212.354 350.4C211.723 351.4 211.24 352.484 210.917 353.631L199.541 353.641C200.135 349.627 201.784 345.988 204.282 342.91L212.354 350.4Z" fill="#D80739"/>
</svg>
