<svg width="14" height="16" viewBox="0 0 14 16" fill="none" xmlns="http://www.w3.org/2000/svg">
<path d="M6.58506 0C10.2219 0 13.1701 2.94823 13.1701 6.58506C13.1701 9.36742 11.2151 12.3997 7.35513 15.7149C6.91221 16.0953 6.25788 16.0953 5.8132 15.7134L5.55807 15.4922C1.86889 12.2643 0 9.3054 0 6.58506C0 2.94823 2.94823 0 6.58506 0ZM6.58506 4.05234C5.18628 4.05234 4.05234 5.18628 4.05234 6.58506C4.05234 7.98384 5.18628 9.11777 6.58506 9.11777C7.98384 9.11777 9.11777 7.98384 9.11777 6.58506C9.11777 5.18628 7.98384 4.05234 6.58506 4.05234Z" fill="white"/>
</svg>
