<svg width="24" height="23" viewBox="0 0 24 23" fill="none" xmlns="http://www.w3.org/2000/svg">
<path fill-rule="evenodd" clip-rule="evenodd" d="M15.3588 0.872087H21.4432C22.7676 0.872087 23.8413 1.90089 23.8413 3.16993V8.99995C23.8381 10.0963 23.3838 11.1472 22.577 11.9246L11.9075 22.1471C10.8162 23.1918 9.04783 23.1918 7.95647 22.1471L4.07282 18.4253H9.05309C8.94126 18.2121 8.86877 17.978 8.84612 17.7311C8.84111 17.6749 8.83705 17.6187 8.83705 17.5611C8.83705 16.4615 9.80089 15.5665 10.9855 15.5665C12.1699 15.5665 13.1335 16.4613 13.1335 17.5611C13.1335 17.6408 13.1273 17.7229 13.1149 17.8117C13.0856 18.0292 13.0172 18.2331 12.9199 18.4217L14.4667 18.2643C14.7054 18.2397 14.8998 18.075 14.9472 17.8565C14.9772 17.7183 15.0078 17.5471 15.0285 17.3547C15.1318 16.3935 14.5139 15.4906 13.5344 15.1662C11.048 14.3427 7.5618 14.4246 7.5618 14.4246C7.5618 14.4246 5.415 13.4116 4.66363 13.1528C3.59889 12.7859 2.47868 12.6236 1.36787 12.6061C1.44892 12.5014 1.53897 12.4011 1.63802 12.306L12.3056 2.08348C13.1136 1.30521 14.2131 0.868985 15.3588 0.872087ZM0.831826 14.4426C0.787475 13.9745 0.871259 13.4973 1.08318 13.0633C3.82445 13.0111 5.55426 14.0471 5.55426 14.0471C5.34132 14.2634 5.38972 14.4426 5.38972 14.4426H0.831826ZM16.1675 5.92732C16.1675 7.19636 17.2411 8.22512 18.5655 8.22512C19.8899 8.22512 20.9636 7.19632 20.9636 5.92727C20.9636 4.65823 19.8899 3.62947 18.5655 3.62947C17.2411 3.62947 16.1675 4.65827 16.1675 5.92732ZM12.7647 17.5611C12.7647 16.6486 11.9683 15.9095 10.9858 15.9095C10.0029 15.9095 9.2065 16.6486 9.20674 17.5606C9.20674 17.6085 9.20984 17.6552 9.21437 17.7019C9.29163 18.5479 10.0544 19.2127 10.9858 19.2127C11.8922 19.2127 12.6388 18.5829 12.749 17.7688C12.7585 17.7008 12.7647 17.6317 12.7647 17.5611ZM11.514 17.2757L11.8769 16.9389C11.989 17.0773 12.0632 17.2409 12.0901 17.4209H11.5786C11.5643 17.3693 11.5424 17.3206 11.514 17.2757ZM11.5765 17.7072H12.0916C12.0641 17.8861 11.9881 18.0502 11.8755 18.1877L11.5121 17.8502C11.5407 17.8062 11.5617 17.7579 11.5765 17.7072ZM11.6557 18.389C11.5076 18.4924 11.3326 18.5628 11.1396 18.5874V18.1109C11.1943 18.0973 11.2465 18.0785 11.2939 18.0528L11.6557 18.389ZM11.297 17.0726C11.2481 17.0458 11.1957 17.0257 11.1396 17.0119V16.5363C11.334 16.5613 11.5107 16.6307 11.6597 16.7358L11.297 17.0726ZM10.312 16.736C10.461 16.6311 10.6379 16.5613 10.8318 16.5363V17.0119C10.776 17.0252 10.7233 17.0458 10.6744 17.0726L10.312 16.736ZM10.8318 18.1109V18.5871C10.6389 18.5626 10.4636 18.4921 10.3155 18.389L10.6778 18.0524C10.7252 18.0785 10.7772 18.0973 10.8318 18.1109ZM10.4596 17.85L10.0947 18.189C9.98219 18.0515 9.90922 17.8861 9.88204 17.707H10.3933C10.4078 17.7584 10.4314 17.806 10.4596 17.85ZM10.4577 17.2759C10.4293 17.3208 10.4076 17.3695 10.393 17.4211L9.88156 17.4216C9.90827 17.2411 9.98243 17.0775 10.0947 16.9391L10.4577 17.2759Z" fill="#D80739"/>
</svg>
