<svg width="64" height="30" viewBox="0 0 64 30" fill="none" xmlns="http://www.w3.org/2000/svg">
<path d="M50.4865 9.89087C49.3645 9.89087 48.4521 10.8059 48.4521 11.9321V13.9201H52.525V11.9321C52.525 10.8059 51.6086 9.89087 50.4865 9.89087Z" fill="#FF91A5"/>
<path d="M56.1389 0.205078H7.86111C3.54043 0.205078 0 3.74823 0 8.06891V21.931C0 26.2585 3.54043 29.7949 7.86111 29.7949H56.1389C60.4596 29.7949 64 26.2585 64 21.931V8.06891C64 3.74823 60.4596 0.205078 56.1389 0.205078ZM17.103 17.1474L18.9889 19.2008L15.7222 21.6519L14.3823 19.2008C14.1849 18.8509 13.8757 18.1646 13.4414 17.1474C12.9661 18.2653 12.6502 18.9462 12.4936 19.2008L11.1346 21.6519L7.77668 19.2008L9.80698 17.1474C10.3789 16.5823 10.9331 16.0975 11.4805 15.6999C10.9222 15.6495 10.1883 15.546 9.28272 15.3758L6.47081 14.9183L7.77532 11.0892L10.2972 12.2357C10.5627 12.3555 11.2231 12.7327 12.2744 13.3578C12.0497 12.3406 11.9054 11.5848 11.84 11.0892L11.4819 8.34806H15.4866L15.1626 11.0892C15.0917 11.7564 14.9365 12.5121 14.7064 13.3578C15.168 13.1263 15.473 12.9724 15.6174 12.888C16.1239 12.6061 16.5147 12.4114 16.7775 12.2861L19.3008 11.0892L20.5508 14.9183L17.7607 15.5011C17.25 15.5991 16.4929 15.6631 15.4866 15.6999C16.1688 16.2337 16.7026 16.713 17.103 17.1474ZM35.5908 17.1474L37.4795 19.2008L34.2128 21.6505L32.8742 19.2008C32.6768 18.8509 32.3677 18.1646 31.9346 17.1474C31.458 18.2653 31.1448 18.9462 30.9883 19.2008L29.6266 21.6505L26.27 19.2008L28.3003 17.1474C28.8722 16.5823 29.425 16.0975 29.9738 15.6999C29.4182 15.6495 28.6815 15.546 27.776 15.3758L24.9627 14.9183L26.2686 11.0892L28.7918 12.2357C29.0546 12.3555 29.7178 12.7327 30.7677 13.3578C30.5375 12.3406 30.3932 11.5848 30.3319 11.0892L29.9724 8.35078H33.9785L33.6531 11.0892C33.5796 11.7564 33.4271 12.5121 33.1997 13.3578C33.6586 13.1263 33.9636 12.9724 34.1093 12.888C34.6131 12.6061 35.0053 12.4114 35.2694 12.2861L37.794 11.0892L39.0454 14.9183L36.2526 15.5011C35.742 15.5991 34.9876 15.6631 33.9799 15.6999C34.6567 16.2337 35.1918 16.713 35.5908 17.1474ZM56.3064 20.617C56.3064 21.4599 55.616 22.1489 54.7745 22.1489H46.2026C45.3597 22.1489 44.6706 21.4599 44.6706 20.617V15.4507C44.6706 14.6078 45.3597 13.9188 46.2026 13.9188H46.4095V11.9307C46.4095 9.6798 48.2383 7.84831 50.4865 7.84831C52.736 7.84831 54.5661 9.67844 54.5661 11.9307V13.9188H54.7731C55.6133 13.9188 56.305 14.6078 56.305 15.4507V20.617H56.3064Z" fill="#FF91A5"/>
</svg>
